<svg id="Layer_1" data-name="Layer 1" xmlns="http://www.w3.org/2000/svg" viewBox="0 0 30 30"><defs><style>.cls-1{fill:#0a2542;}.cls-2{fill:#fefefe;}.cls-3{fill:#a4dafe;}.cls-4{fill:#9abdce;}.cls-5{fill:#fef297;}.cls-6{fill:#a4dafd;}.cls-7{fill:#cac9f2;}.cls-8{fill:#010101;}</style></defs><title>icon-</title><path class="cls-1" d="M23.56.77A3.5,3.5,0,0,1,24,.91a2.41,2.41,0,0,1,1.39,3.31c-.09.2-.1.26.15.26a2.2,2.2,0,0,1,2.31,2.31q0,7.09,0,14.2a2.24,2.24,0,0,1-2.38,2.33H17.2c-.27,0-.29.07-.23.3.19.74.37,1.48.53,2.22,0,.2.12.26.33.25s.7,0,1.05,0a1.67,1.67,0,0,1,1.78,1.77c0,.23.07.27.28.27.43,0,.87,0,1.3,0s.74.2.73.57-.25.54-.72.54H7.66a.56.56,0,0,1-.6-.36.55.55,0,0,1,.53-.75c.47,0,.94,0,1.42,0,.26,0,.33-.05.33-.33A1.65,1.65,0,0,1,11,26.09a7.07,7.07,0,0,1,1,0c.32,0,.44-.08.51-.4.14-.71.32-1.4.49-2.1.05-.21,0-.28-.21-.28H4.51a2.27,2.27,0,0,1-2.27-1.54,2.54,2.54,0,0,1-.12-.87v-14a2.25,2.25,0,0,1,2.4-2.4H19.14a.47.47,0,0,0,.46-.25c.43-.66.89-1.28,1.29-2a2.88,2.88,0,0,1,2-1.51Z"/><path class="cls-2" d="M5.39,17.89a.61.61,0,0,0-.69-.54H3.45c-.16,0-.22,0-.22-.22q0-5.18,0-10.37A1.1,1.1,0,0,1,4.42,5.59H18.48l.2,0-.17.24C17.76,7,17,8.1,16.25,9.24a.38.38,0,0,1-.35.2,3.52,3.52,0,0,0-3.53,3.38,9,9,0,0,0,.35,3.1.53.53,0,0,0,.89.29,2.65,2.65,0,0,1,2-.65,6.56,6.56,0,0,0,1.77,0,2.66,2.66,0,0,0,2.08-2.8,2.23,2.23,0,0,0-.09-.63.55.55,0,0,1,.16-.59c1.57-1.9,3.14-3.82,4.7-5.73a.46.46,0,0,1,.42-.2h1a1.1,1.1,0,0,1,1.12,1,2.44,2.44,0,0,1,0,.27q0,5.09,0,10.15c0,.26-.08.3-.31.3h-17c-.51,0-.66.11-.77.54a2,2,0,0,1-1,.06c-.12,0-.14-.14-.19-.23a.49.49,0,0,0-.88,0c-.05.08-.07.19-.18.23A2,2,0,0,1,5.39,17.89Z"/><path class="cls-3" d="M5.39,17.89h1.1c.07,0,.08.12.11.19a.49.49,0,0,0,.9,0,.29.29,0,0,1,.11-.18h1.1c.08.44.24.57.73.57h17c.28,0,.36.06.35.35,0,.71,0,1.42,0,2.14a1.14,1.14,0,0,1-1.25,1.26h-21A1.15,1.15,0,0,1,3.23,21c0-.75,0-1.5,0-2.25,0-.19,0-.25.23-.24H4.71C5.15,18.46,5.31,18.32,5.39,17.89Z"/><path class="cls-4" d="M24.53,3.35a1.22,1.22,0,0,1-.3.69L20.62,8.45c-.08.1-.15.13-.26,0L19,7.46c-.11-.08-.13-.13-.05-.24C20,5.63,21.06,4,22.14,2.43A1.3,1.3,0,0,1,23.64,2,1.39,1.39,0,0,1,24.53,3.35Z"/><path class="cls-5" d="M13.61,14.85a5,5,0,0,1,.13-2.94,2.46,2.46,0,0,1,2.39-1.36.44.44,0,0,1,.22.1l1.74,1.29c.05,0,.12.08.14.16A1.64,1.64,0,0,1,17,14.47a7.37,7.37,0,0,1-.94,0A4.59,4.59,0,0,0,13.61,14.85Z"/><path class="cls-6" d="M15,28.12c-1.44,0-2.88,0-4.31,0-.22,0-.26-.07-.25-.27,0-.43.21-.66.64-.66h7.84a.63.63,0,0,1,.64.81c0,.18-.15.11-.23.11H15Z"/><path class="cls-7" d="M15,26.09c-.39,0-.79,0-1.19,0-.15,0-.2,0-.16-.19.19-.8.39-1.6.57-2.4a.2.2,0,0,1,.22-.18h1.17c.13,0,.19,0,.22.17.19.8.38,1.6.58,2.4,0,.14,0,.2-.16.2C15.81,26.08,15.39,26.09,15,26.09Z"/><path class="cls-2" d="M19.77,9.48l-.09.1c-.32.41-.66.8-1,1.21-.07.09-.12.14-.24.05-.39-.31-.78-.59-1.18-.88-.1-.07-.1-.12,0-.22l.9-1.33c.05-.09.1-.12.19-.05l1.36,1S19.77,9.42,19.77,9.48Z"/><path class="cls-8" d="M7.61,17.89c-.06.38-.24.56-.55.57s-.5-.18-.57-.57c.09-.36.27-.53.56-.53S7.52,17.53,7.61,17.89Z"/></svg>