<svg id="Layer_1" data-name="Layer 1" xmlns="http://www.w3.org/2000/svg" viewBox="0 0 30 30"><defs><style>.cls-1{fill:#0a2542;}.cls-2{fill:#9ac5fe;}.cls-3{fill:#e4ebeb;}.cls-4{fill:#010101;}.cls-5{fill:#fed79d;}.cls-6{fill:#98341f;}.cls-7{fill:#b25324;}.cls-8{fill:#474f54;}.cls-9{fill:#f9bd2c;}.cls-10{fill:#fe9000;}.cls-11{fill:#32393f;}.cls-12{fill:#fecbb2;}.cls-13{fill:#fef6e5;}.cls-14{fill:#fe435b;}.cls-15{fill:#00c7c7;}.cls-16{fill:#fee5cb;}</style></defs><title>icon--05</title><path class="cls-1" d="M30,21.53c-.09.06-.07.17-.1.26a2.15,2.15,0,0,1-2,1.49H26.81c-.18,0-.23.06-.22.23,0,.35,0,.7,0,1a2.13,2.13,0,0,1-2.06,2h-.14q-11,0-22,0A2.14,2.14,0,0,1,.28,25a2.24,2.24,0,0,1-.1-.68q0-7.71,0-15.41a2.15,2.15,0,0,1,2.2-2.21c.31,0,.62,0,.93,0s.29-.08.28-.3a7.22,7.22,0,0,1,0-.93,2.12,2.12,0,0,1,2.09-2h.21c7.26,0,14.52,0,21.78,0A2.24,2.24,0,0,1,29.92,5c0,.09,0,.2.08.27Z"/><path class="cls-2" d="M13.37,7.89H24.23c.85,0,1.19.35,1.19,1.2V24.17c0,.86-.35,1.21-1.19,1.21H2.54c-.84,0-1.19-.35-1.19-1.21V9.07c0-.82.36-1.18,1.16-1.18Z"/><path class="cls-3" d="M16.82,4.63H27.65c.83,0,1.19.35,1.19,1.18V21c0,.81-.37,1.17-1.17,1.17-.29,0-.57,0-.85,0s-.25-.07-.23-.25a1,1,0,0,0,0-.17V9a2.17,2.17,0,0,0-1.5-2.22,2.78,2.78,0,0,0-.86-.1H5.13c-.42,0-.37.06-.37-.37v-.7a1,1,0,0,1,1-1h11Z"/><path d="M8.23,10.9A5.74,5.74,0,1,1,2.5,16.61,5.75,5.75,0,0,1,8.23,10.9Z"/><path d="M20,15.78H16.26a.57.57,0,0,1-.56-.85.62.62,0,0,1,.59-.31h7.27c.45,0,.73.23.73.59s-.27.57-.73.58Z"/><path d="M20,17.49h3.67a.57.57,0,0,1,.56.86.64.64,0,0,1-.62.3H16.21a.6.6,0,0,1-.58-.6.56.56,0,0,1,.61-.56Z"/><path d="M18.7,12.91H16.32c-.42,0-.69-.23-.69-.58s.27-.59.68-.59h4.8c.43,0,.68.22.68.58s-.25.59-.68.59Z"/><path d="M21.78,20.36h1.83a.6.6,0,0,1,.67.57.61.61,0,0,1-.67.6H19.94a.6.6,0,0,1-.66-.58c0-.36.25-.59.67-.59Z"/><path class="cls-4" d="M23.7,11.75a.58.58,0,1,1-.58.59A.58.58,0,0,1,23.7,11.75Z"/><path class="cls-5" d="M11.39,19.9A1.3,1.3,0,0,0,10,18.73H6.61a1.33,1.33,0,0,0-1.55,1.16,4.51,4.51,0,0,1-.26-6.27,4.56,4.56,0,1,1,6.59,6.28Z"/><path class="cls-6" d="M3.73,9.22a1,1,0,0,1,.51.65,6.42,6.42,0,0,1,.35,1.5c0,.15,0,.31.06.46s.07.29.09.43c.06.75.12,1.5.11,2.25.06.53,0,1.06,0,1.59,0,.15,0,.3,0,.44a.21.21,0,0,1-.15,0H3.78a.24.24,0,0,1-.16,0,.28.28,0,0,1,0-.2V9.41a.26.26,0,0,1,0-.19Z"/><path class="cls-7" d="M3.62,9.22v7.31l0,0-.07,0h-1a.15.15,0,0,1-.11,0c0-1.16,0-2.33.08-3.49a14.12,14.12,0,0,1,.38-2.75,3.58,3.58,0,0,1,.19-.55,1,1,0,0,1,.45-.52Z"/><path class="cls-8" d="M2.82,23C3.3,23,2,21.84,2,21.37c0-.24,0-.48,0-.72a1.68,1.68,0,0,1,.51-1.25.46.46,0,0,1,.15-.16,1.66,1.66,0,0,1,.78-.3.25.25,0,0,1,.19,0s0,0,0,.05a.58.58,0,0,1,0,.19v3.45a.32.32,0,0,1,0,.23,2.05,2.05,0,0,1-.81.16"/><path class="cls-9" d="M4.83,16.53V16.1c.09,0,.12.07.18.11a1.17,1.17,0,0,0,1.75-.32,1.16,1.16,0,0,0-.11-1.35,1.14,1.14,0,0,0-1.33-.34,1.21,1.21,0,0,0-.39.24s-.06.08-.12.07c0-.26,0-.52,0-.78,0-.63-.07-1.27-.14-1.9a8.7,8.7,0,0,1,1.69-1.12A6.26,6.26,0,0,1,9.22,10a3.29,3.29,0,0,1,.54.05,2.42,2.42,0,0,0,0,.38v7.4a1,1,0,0,1,0,.25c0,.09-.13.08-.2.09a1.18,1.18,0,0,0-.08,2.32c.09,0,.2,0,.27.09a.6.6,0,0,1,0,.23c0,.43,0,.86,0,1.29a5.11,5.11,0,0,1-1.17.06,7.25,7.25,0,0,1-.8-.09,1.21,1.21,0,0,1-1-1.38,2.69,2.69,0,0,0,0-1A1.83,1.83,0,0,0,5.63,18.4a3.89,3.89,0,0,0-.82-.25s0-.1,0-.16c0-.44,0-.89,0-1.33A.16.16,0,0,1,4.83,16.53Z"/><path class="cls-10" d="M9.7,18.15V10.2s0-.11.06-.12a5,5,0,0,1,1.88.6,6.07,6.07,0,0,1,3.22,4.23A5.84,5.84,0,0,1,13.58,20a5.94,5.94,0,0,1-3.37,2,2.36,2.36,0,0,1-.45.08c-.08,0-.06-.08-.06-.13V20.57a.3.3,0,0,1,.13,0,1.19,1.19,0,0,0,0-2.36.3.3,0,0,1-.13,0Z"/><path class="cls-11" d="M3.62,22.88V19s.1,0,.15,0a1.67,1.67,0,0,1,.88.36s0,.07.08.1A1.91,1.91,0,0,1,5,21.69,2.4,2.4,0,0,1,3.7,22.86Z"/><path class="cls-12" d="M4.73,19.39A1.57,1.57,0,0,0,3.62,19h0a.23.23,0,0,1,0-.18V16.72a.23.23,0,0,1,0-.18H4.83c0,.54,0,1.08,0,1.62a.5.5,0,0,0,0,.12C4.79,18.65,4.75,19,4.73,19.39Z"/><path class="cls-13" d="M3.62,16.54V19a1.7,1.7,0,0,0-1.11.44c0-.45,0-.9-.08-1.35v0c0-.5,0-1,0-1.49Z"/><path class="cls-14" d="M4.82,14.51a1.26,1.26,0,0,1,1-.43,1.21,1.21,0,0,1,.56,2.27,1.21,1.21,0,0,1-1.47-.21l0,0C4.83,15.57,4.85,15,4.82,14.51Z"/><path class="cls-8" d="M8,14.21A1.21,1.21,0,1,1,9.26,13,1.22,1.22,0,0,1,8,14.21Z"/><path class="cls-13" d="M9.7,20.59a1.22,1.22,0,1,1,0-2.44h0c.05.05,0,.11,0,.18V20.4c0,.07,0,.13,0,.18Z"/><path class="cls-15" d="M10,13.83a1.21,1.21,0,1,1,1.19,1.22A1.2,1.2,0,0,1,10,13.83Z"/><path class="cls-6" d="M10.8,17A1.23,1.23,0,0,1,12,15.75,1.22,1.22,0,1,1,10.8,17Z"/><path class="cls-16" d="M9.7,20.58V18.16a1.21,1.21,0,1,1,0,2.42Z"/></svg>