<svg id="Layer_1" data-name="Layer 1" xmlns="http://www.w3.org/2000/svg" viewBox="0 0 30 30"><defs><style>.cls-1{fill:#0a2542;}.cls-2{fill:#79b1fe;}.cls-3{fill:#fefefe;}.cls-4{fill:#010101;}.cls-5{fill:#d7eb83;}</style></defs><title>icon-</title><path class="cls-1" d="M15.17,0c.89.34,1.81.59,2.72.87q4.66,1.49,9.33,2.93c.45.14.55.29.55.77,0,3.35,0,6.69,0,10A15.61,15.61,0,0,1,16.22,29.73l-1,.27h-.35c-.75-.21-1.51-.37-2.24-.64a15.49,15.49,0,0,1-9.34-9.2,14.88,14.88,0,0,1-1-5.52c0-3.37,0-6.73,0-10.1,0-.45.11-.6.55-.74L14.59.1c.08,0,.18,0,.23-.1Z"/><path class="cls-2" d="M3.4,10.2c0-1.7,0-3.4,0-5.1,0-.2,0-.29.25-.35L14.76,1.28a.72.72,0,0,1,.48,0L26.36,4.75c.18.06.25.13.25.32,0,3.21,0,6.43,0,9.64a14.48,14.48,0,0,1-11,14,3.35,3.35,0,0,1-1.91-.2A14.29,14.29,0,0,1,3.91,18.43a13.12,13.12,0,0,1-.51-3.84Z"/><path class="cls-3" d="M20.63,22.75a5.85,5.85,0,0,1-1.06,1,.21.21,0,0,1-.17,0,.66.66,0,0,0-.73.11,11.19,11.19,0,0,1-3.33,1.62,1.16,1.16,0,0,1-.69,0,10.86,10.86,0,0,1-4.22-2.32A11.06,11.06,0,0,1,6.68,16a8.92,8.92,0,0,1-.09-1.16c0-2.39,0-4.79,0-7.18,0-.46,0-.46.42-.6l7.74-2.42a.82.82,0,0,1,.49,0l5.67,1.78c.69.22,1.38.42,2.07.65.37.12.41.18.41.57,0,2.48,0,5,0,7.44a10.39,10.39,0,0,1-1.11,4.46,1.06,1.06,0,0,0-.06,1.12,7.94,7.94,0,0,1-.79,1.22c-.07.05-.15,0-.22,0a.5.5,0,0,0-.53.15.45.45,0,0,0-.09.54C20.62,22.6,20.68,22.67,20.63,22.75Z"/><path class="cls-1" d="M22.22,20.65a.6.6,0,0,1-.15-.86,11.41,11.41,0,0,0,1.25-5.41c0-2.27,0-4.55,0-6.82A.37.37,0,0,0,23,7.14L15.24,4.71a.69.69,0,0,0-.45,0L6.93,7.16c-.18.06-.26.12-.26.33,0,2.46,0,4.92,0,7.38A11.13,11.13,0,0,0,14.8,25.39a.75.75,0,0,0,.42,0,11.24,11.24,0,0,0,3.43-1.66.63.63,0,0,1,.92,0,.62.62,0,0,1-.22.93,12.57,12.57,0,0,1-4.07,1.92.94.94,0,0,1-.55,0,12.21,12.21,0,0,1-9-9.62,10.24,10.24,0,0,1-.23-2.47V7c0-.51.1-.65.58-.8l8.53-2.67a1.17,1.17,0,0,1,.74,0l8.56,2.69c.47.14.57.29.57.78V14.6a12.35,12.35,0,0,1-1.38,5.72A.6.6,0,0,1,22.22,20.65Z"/><path class="cls-4" d="M20.63,22.75c-.21-.32-.23-.56,0-.79s.45-.27.83-.09c.24.34.26.61.06.84S21,23,20.63,22.75Z"/><path d="M13.93,19.4a.56.56,0,0,1-.44-.19L9.64,15.35a.56.56,0,0,1,0-.9l1.9-1.91a.59.59,0,0,1,.92,0c.43.42.87.85,1.28,1.29.15.15.23.16.39,0q1.65-1.68,3.32-3.34c.42-.41.68-.41,1.1,0l1.74,1.74c.38.39.39.67,0,1l-5.84,5.84A.66.66,0,0,1,13.93,19.4Z"/><path class="cls-5" d="M19.13,12.75c0,.1-.1.15-.16.21l-4.59,4.59c-.45.45-.45.45-.89,0L11,15.07c-.13-.13-.14-.21,0-.34s.56-.54.83-.82c.12-.14.2-.16.34,0,.39.41.79.8,1.19,1.2s.7.45,1.14,0c1.09-1.09,2.2-2.19,3.28-3.29.17-.17.26-.2.43,0s.52.53.78.79Z"/></svg>