<svg id="Layer_1" data-name="Layer 1" xmlns="http://www.w3.org/2000/svg" viewBox="0 0 30 30"><defs><style>.cls-1{fill:#f3bb1c;}.cls-2{fill:#0a2542;}.cls-3{fill:#e12b4a;}.cls-4{fill:#b3bed0;}.cls-5{fill:#fefefe;}.cls-6{fill:#c1c9d5;}</style></defs><title>icon-</title><path class="cls-1" d="M13.44.85V-.27h3.1V.85a2.65,2.65,0,0,1,.08,1,.48.48,0,0,0,0,.17c0,.89,0,.89-.85.89-.63,0-1.27,0-1.9,0s-.53,0-.53-.53c0-.12,0-.24,0-.36a.91.91,0,0,0,0-.17A2.46,2.46,0,0,1,13.44.85Z"/><path class="cls-1" d="M13.45,30.27V29.15a2.39,2.39,0,0,1-.07-1,5.61,5.61,0,0,1,0-.71.31.31,0,0,1,.34-.33h2.51c.36,0,.42.08.43.44a5.8,5.8,0,0,1,0,.59,2.61,2.61,0,0,1-.08,1v1.12Z"/><path class="cls-2" d="M29.42,2.34V28.43a.66.66,0,0,1-.11.51c-.11-.09-.1-.23-.11-.36v-.86c0-.38,0-.39-.38-.4-.16,0-.32,0-.45-.1a1,1,0,0,1-.07-.55q0-5.4,0-10.79,0-6.51,0-13a1.08,1.08,0,0,1,.07-.56A1.1,1.1,0,0,1,29.42,2.34Z"/><path class="cls-2" d="M16.56,1.88v-1H27.91a1.26,1.26,0,0,1,0,1,.62.62,0,0,1-.4.08C24,2,20.48,2,17,2A.56.56,0,0,1,16.56,1.88Z"/><path class="cls-2" d="M16.56,29.15v-1a.33.33,0,0,1,.21-.09c3.37,0,6.74,0,10.11,0a1,1,0,0,1,.38,0,1,1,0,0,1,0,1.08Z"/><path class="cls-3" d="M27.91,1.88v-1c0-.6,0-.6.64-.6.39,0,.79,0,1.19,0,.21,0,.26.08.26.28,0,.49,0,1,0,1.48,0,.26-.07.34-.32.31a1.22,1.22,0,0,0-.26,0,4.43,4.43,0,0,0-1,0,.39.39,0,0,1-.48,0A.32.32,0,0,1,27.91,1.88Z"/><path class="cls-3" d="M27.28,29.15a3.55,3.55,0,0,0,0-1,1.63,1.63,0,0,1,0-.76.2.2,0,0,1,.18-.19,1.71,1.71,0,0,1,.95,0c.21,0,.42,0,.63,0s.28.08.27.29c0,.48,0,.95,0,1.43,0,.2-.07.29-.3.27-.48,0-1,0-1.45,0C27.46,29.21,27.36,29.24,27.28,29.15Z"/><path class="cls-2" d="M.53,27.68V2.32a1.13,1.13,0,0,1,1,0,.74.74,0,0,1,.07.46V10.4c0,1.84,0,3.68,0,5.52,0,3.78,0,7.55,0,11.33a.74.74,0,0,1-.07.46A1.1,1.1,0,0,1,.53,27.68Z"/><path class="cls-2" d="M13.44.85v1A.56.56,0,0,1,13,2C9.51,2,6,2,2.45,2a.72.72,0,0,1-.38-.07,1.24,1.24,0,0,1,0-1Z"/><path class="cls-2" d="M13.44,28.13v1H2.09a1.26,1.26,0,0,1,0-1A.48.48,0,0,1,2.38,28h10.9A.23.23,0,0,1,13.44,28.13Z"/><path class="cls-3" d="M2.09.85v1a.36.36,0,0,1,0,.43.68.68,0,0,1-.54,0,5.79,5.79,0,0,0-1,0C0,2.29,0,2.29,0,1.77S0,1,0,.55C0,.33,0,.23.29.24c.51,0,1,0,1.52,0,.22,0,.3.06.27.28S2.09.74,2.09.85Z"/><path class="cls-3" d="M2.09,28.13v1c0,.6,0,.6-.64.6-.36,0-.73,0-1.1,0S0,29.67,0,29.39a10,10,0,0,0,0-1.34c0-.28.05-.41.35-.36a1.09,1.09,0,0,0,.18,0,5.79,5.79,0,0,0,1,0,.67.67,0,0,1,.52,0,.37.37,0,0,1,.07.35A.31.31,0,0,1,2.09,28.13Z"/><path class="cls-4" d="M2.07,27.7a1.8,1.8,0,0,1-.52,0V2.33a1.8,1.8,0,0,1,.52,0c0,.05,0,.09-.06.09-.33,0-.33.25-.33.51,0,2.71,0,5.43,0,8.14a16.23,16.23,0,0,1-.05,2.1,10,10,0,0,1,.7-2.76,13.13,13.13,0,0,1,3-4.59,13.61,13.61,0,0,1,4.58-3A13,13,0,0,1,13.07,2c.13,0,.25-.05.37,0s0,.12,0,.18c0,.66,0,.66.66.66s1.46,0,2.19,0c.19,0,.27,0,.25-.24s0-.4,0-.59.25,0,.37,0a13.38,13.38,0,0,1,6.61,3,13.25,13.25,0,0,1,3.85,5.27A12.58,12.58,0,0,1,28.31,15a12.86,12.86,0,0,1-1.41,6,13,13,0,0,1-4.66,5.19c-.07.05-.13.1-.22.08a7.54,7.54,0,0,1-.44-1.11c-.3-.81-.6-1.63-.89-2.46s-.58-1.52-.83-2.29a3.42,3.42,0,0,1,.37-2.87,2.91,2.91,0,0,1,.32-.46.25.25,0,0,0-.05-.42c-.83-.64-1.63-1.3-2.45-2-1.71-1.35-3.41-2.72-5.13-4.07a1.7,1.7,0,0,1-.51-.86,2.9,2.9,0,0,1-.18-1.49,1.68,1.68,0,0,1,1-1.28,5.14,5.14,0,0,1,2.63-.31,11.87,11.87,0,0,0,2.73,0,2.7,2.7,0,0,0,1.65-.81,2.1,2.1,0,0,0,.53-1.33c0-.21-.07-.29-.28-.24l-.32.08a.29.29,0,0,0-.3.3,1.11,1.11,0,0,1-.69.9,4.58,4.58,0,0,1-2.4.28A9,9,0,0,0,13.43,6a2.61,2.61,0,0,0-2.07,2.2,3.19,3.19,0,0,0,.19,1.73,2.18,2.18,0,0,1,.11,1.31c-.63,3.07-1.23,6.14-1.85,9.21-.08.4-.08.4.33.49a3.55,3.55,0,0,1,2.67,2.14c.17.4.3.82.46,1.23s.22.64.35.95c.15.47.33.92.49,1.39.06.17.17.33.11.53-.25,0-.59-.11-.73.07s0,.5,0,.75c0,.05,0,.1,0,.15h-.11a4.07,4.07,0,0,0-.61-.05,8.86,8.86,0,0,1-2.53-.63A13,13,0,0,1,5.12,24a13.76,13.76,0,0,1-3.4-6.49c-.05-.25-.05-.5-.09-.74a8.67,8.67,0,0,1,.06.88c0,3.11,0,6.22,0,9.33,0,.28-.05.58.36.61C2.07,27.63,2.07,27.67,2.07,27.7Z"/><path class="cls-5" d="M22,26.21A13.68,13.68,0,0,0,24.74,24a13.51,13.51,0,0,0,3-5.35,12.85,12.85,0,0,0,.47-4.53,12.17,12.17,0,0,0-1-4.11,13.47,13.47,0,0,0-7.62-7.21,14.11,14.11,0,0,0-3-.75V1.88H27.91s0,.08,0,.12c0,.24,0,.36.3.31a1,1,0,0,1,.17,0v24.9c-.28,0-.56,0-.85,0s-.25.07-.24.25a2.35,2.35,0,0,1,0,.65H16.73c.11-.19.31-.14.47-.17A14.08,14.08,0,0,0,21,26.71c.26-.13.5-.29.75-.42C21.84,26.24,21.92,26.17,22,26.21Z"/><path class="cls-5" d="M13.44,2a12.87,12.87,0,0,0-3.61.92,13.63,13.63,0,0,0-4.44,3,13.13,13.13,0,0,0-3.66,6.85c0,.11,0,.22-.05.33a1,1,0,0,1-.07.32V3a1.94,1.94,0,0,1,0-.54c.07-.2.32,0,.45-.13s0-.28,0-.42H13.44Z"/><path class="cls-3" d="M22,26.21a13.35,13.35,0,0,1-5.25,1.87l-.05,0-.17,0c0-.24,0-.48,0-.72s-.06-.24-.25-.24H14.22l-.66-1.89a.65.65,0,0,1,.37-.22l6.5-2.38c.1,0,.2-.1.32,0L22,26.06C22,26.11,22,26.16,22,26.21Z"/><path class="cls-6" d="M12.73,28a2,2,0,0,1,.6.11H2.09v-.06a.51.51,0,0,1,.39-.1h9.25A4.79,4.79,0,0,0,12.73,28Z"/><path class="cls-5" d="M12.73,28c-.08.09-.18.06-.28.06H2.09c0-.13,0-.25,0-.37l0,0c-.43-.09-.43-.09-.43-.56V16.56a13.7,13.7,0,0,0,2.16,5.62,13.35,13.35,0,0,0,4.8,4.43A12.76,12.76,0,0,0,12.47,28,2.06,2.06,0,0,0,12.73,28Z"/><path class="cls-2" d="M20.75,22.63l-7.19,2.64c-.25-.65-.51-1.29-.73-1.95A3.45,3.45,0,0,0,10,21c-.28,0-.33-.12-.28-.4.66-3.22,1.3-6.44,2-9.66a1.08,1.08,0,0,0-.07-.69,3.67,3.67,0,0,1-.24-2.33,2.85,2.85,0,0,1,2.41-2.08,10.13,10.13,0,0,1,3.11,0,5.32,5.32,0,0,0,2.06-.15,1.15,1.15,0,0,0,.94-1.12c0-.14.08-.16.18-.18s.41-.08.61-.14.25,0,.25.2A2.08,2.08,0,0,1,20,6.25a3.55,3.55,0,0,1-1.82.57,14.28,14.28,0,0,1-2.26-.08,5.83,5.83,0,0,0-2.12.13,1.8,1.8,0,0,0-1.42,2.39,2.6,2.6,0,0,0,1,1.57c2.45,1.9,4.87,3.86,7.3,5.79.17.13.2.21.05.4a3.52,3.52,0,0,0-.61,3.71C20.31,21.35,20.52,22,20.75,22.63Z"/><path class="cls-5" d="M16.36,18.1A1.36,1.36,0,1,1,15,16.73,1.37,1.37,0,0,1,16.36,18.1Z"/></svg>