<svg id="Layer_1" data-name="Layer 1" xmlns="http://www.w3.org/2000/svg" viewBox="0 0 30 30"><defs><style>.cls-1{fill:#0a2542;}.cls-2{fill:#dae2e2;}.cls-3{fill:#d9e4e4;}.cls-4{fill:#bbcbca;}.cls-5{fill:#fefefe;}.cls-6{fill:#fdfefe;}.cls-7{fill:#d9e3e3;}.cls-8{fill:#fdfdfd;}.cls-9{fill:#fcfcfc;}.cls-10{fill:#d8e3e3;}.cls-11{fill:#fcfdfd;}.cls-12{fill:#d7e1e1;}.cls-13{fill:#fbfbfb;}.cls-14{fill:#fbfcfc;}.cls-15{fill:#fafafa;}.cls-16{fill:#fafbfb;}.cls-17{fill:#d7e2e2;}.cls-18{fill:#f8fafa;}.cls-19{fill:#f9fafa;}.cls-20{fill:#f2f6f6;}.cls-21{fill:#d5e1e1;}.cls-22{fill:#ebeded;}.cls-23{fill:#f1f5f5;}.cls-24{fill:#cedada;}.cls-25{fill:#f6f8f8;}.cls-26{fill:#f4f6f6;}.cls-27{fill:#f2f5f5;}.cls-28{fill:#f3f6f6;}.cls-29{fill:#e9efef;}.cls-30{fill:#eef3f3;}.cls-31{fill:#f1f3f3;}.cls-32{fill:#f5f8f8;}.cls-33{fill:#f4f7f7;}.cls-34{fill:#f5f7f7;}.cls-35{fill:#f7f9f9;}.cls-36{fill:#dfe1e1;}.cls-37{fill:#edf2f2;}.cls-38{fill:#ecf2f2;}.cls-39{fill:#e7eeee;}.cls-40{fill:#ebf1f1;}.cls-41{fill:#e8efef;}.cls-42{fill:#f0f4f4;}.cls-43{fill:#eff4f4;}.cls-44{fill:#e5ecec;}.cls-45{fill:#d5dfdf;}.cls-46{fill:#f6f9f9;}.cls-47{fill:#f3f7f7;}.cls-48{fill:#ebeeee;}.cls-49{fill:#f0f5f5;}.cls-50{fill:#f1f4f4;}.cls-51{fill:#ecf1f1;}.cls-52{fill:#ebf0f0;}.cls-53{fill:#eef2f2;}.cls-54{fill:#f8f9f9;}.cls-55{fill:#cedbdb;}.cls-56{fill:#ccd9d8;}.cls-57{fill:#eaf0f0;}.cls-58{fill:#3b7ac7;}.cls-59{fill:#79dd88;}.cls-60{fill:#6ac479;}.cls-61{fill:#78db88;}.cls-62{fill:#d7e3e4;}.cls-63{fill:#d6e2e3;}.cls-64{fill:#d7e2e4;}.cls-65{fill:#d4e1e3;}.cls-66{fill:#d4e1df;}.cls-67{fill:#d3e0e3;}.cls-68{fill:#d5e2e3;}.cls-69{fill:#d1dee1;}.cls-70{fill:#77db87;}.cls-71{fill:#eaf0f4;}.cls-72{fill:#78dc88;}.cls-73{fill:#3d7dc4;}.cls-74{fill:#3e7ec2;}.cls-75{fill:#d2dfe5;}.cls-76{fill:#7bd38a;}.cls-77{fill:#d0e3db;}.cls-78{fill:#c9d9e1;}.cls-79{fill:#76da86;}.cls-80{fill:#e9f0f8;}.cls-81{fill:#ebf1f6;}.cls-82{fill:#61b68f;}.cls-83{fill:#6ac697;}.cls-84{fill:#8d9699;}.cls-85{fill:#262626;}.cls-86{fill:#f4f7fa;}.cls-87{fill:#d4e1ea;}.cls-88{fill:#b7cdde;}.cls-89{fill:#b8cede;}.cls-90{fill:#d1dee2;}.cls-91{fill:#adc6dc;}.cls-92{fill:#bdd1df;}.cls-93{fill:#afc9dd;}.cls-94{fill:#dac366;}.cls-95{fill:#dec25d;}.cls-96{fill:#948e62;}.cls-97{fill:#c4d6e0;}.cls-98{fill:#adc7dc;}.cls-99{fill:#bacfde;}.cls-100{fill:#cfdfda;}.cls-101{fill:#57a7aa;}.cls-102{fill:#468cbc;}.cls-103{fill:#fdd657;}.cls-104{fill:#407bc2;}.cls-105{fill:#c3d3d7;}.cls-106{fill:#5886b4;}</style></defs><title>icon-</title><path class="cls-1" d="M6.55,28.77a3.35,3.35,0,0,1-.52-2c0-1.39.12-2.77.2-4.15q.24-3.84.12-7.68c0-.73-.06-1.45-.1-2.21a8.08,8.08,0,0,1-1.81.57,1.74,1.74,0,0,1-1.28-.21A7.18,7.18,0,0,1,.58,10.33a2.54,2.54,0,0,1-.22-.6,1.07,1.07,0,0,1,.23-1C1.74,7.36,2.76,5.9,3.93,4.56A15,15,0,0,1,6.76,1.94,9.26,9.26,0,0,1,9.64.83a9.62,9.62,0,0,1,2.27-.3c.24-.14.47,0,.7,0,.79.06,1.57.17,2.37.19A12.72,12.72,0,0,0,17.73.48a.53.53,0,0,1,.58,0,11.7,11.7,0,0,1,3.88.82,6.71,6.71,0,0,1,2.87,2A19,19,0,0,0,26.5,5c.62.61,1.25,1.22,1.85,1.86a4.43,4.43,0,0,1,1.27,2.18,1.74,1.74,0,0,1-.3,1.56,11.49,11.49,0,0,1-1.77,1.92,3,3,0,0,1-3.52.37.18.18,0,0,0-.18,0v.3c0,4.87,0,9.74,0,14.61,0,1.1-.36,1.67-1.72,1.72s-2.69,0-4,0c-2.5,0-5,.07-7.5.09a13.53,13.53,0,0,1-2.7-.19,3.87,3.87,0,0,1-1-.37A.45.45,0,0,1,6.55,28.77Z"/><path class="cls-2" d="M6.55,28.77l.36.28C6.64,29.11,6.56,29.05,6.55,28.77Z"/><path class="cls-3" d="M11.68.77l.05.81a.65.65,0,0,0-.37.16c-.68.44-1.34.91-2,1.33L9,3.28c.14-.08.24-.16.36-.22.67-.45,1.38-.81,2.06-1.22.1-.06.19-.14.32-.09l.22.64C11.1,3,10.22,3.56,9.33,4.11L8.7,4.5l.66-.39C10.24,3.56,11.13,3,12,2.55l.45.6c0,.11-.11.16-.18.21-.87.58-1.74,1.15-2.63,1.68a3.78,3.78,0,0,0-.33.22A3.37,3.37,0,0,1,9.7,5c.88-.56,1.79-1.07,2.69-1.59a.78.78,0,0,1,.29-.14l.77.47a0,0,0,0,0,0,0l0,0a4.09,4.09,0,0,0,3,0,3.05,3.05,0,0,0,1.82-2,4.57,4.57,0,0,1,1.06-.63L21,1.51c-.56.4-1.16.71-1.74,1.07L19,2.72c-.24.13-.46.29-.7.41l.11-.07a5.88,5.88,0,0,0,.6-.35c.68-.4,1.34-.83,2.05-1.18a3.12,3.12,0,0,1,.72.21c-.05.16-.2.21-.32.29L16.27,5.34c-.41.26-.82.51-1.24.75l-.79.49a.23.23,0,0,0-.07.06s0,0,.09-.07l.8-.48c1.59-1,3.22-1.88,4.83-2.82l2-1.18a.78.78,0,0,1,.4-.15,1.8,1.8,0,0,1,.54.26c0,.14-.15.2-.26.26-1.22.77-2.44,1.56-3.68,2.3l-.74.44c.26-.15.51-.31.77-.45,1.29-.8,2.63-1.54,3.94-2.31a.63.63,0,0,1,.24-.09,1.61,1.61,0,0,1,.42.32s0,.13.06.06a1.21,1.21,0,0,1,.39.42c-.42.32-.89.58-1.34.86-.77.5-1.55,1-2.34,1.45l-.76.46c.26-.16.52-.32.79-.47,1.22-.76,2.48-1.46,3.72-2.18l.33.47c-.11.18-.34.2-.48.33.16-.1.34-.18.51-.3l.36.41c0,.14-.16.2-.27.26-.77.48-1.55,1-2.34,1.42l-.9.55c-.09.07-.21.1-.3.18s-.21.1-.3.17l-.06,0s.05,0,.07,0,.21-.11.3-.18.21-.11.3-.18l.91-.55c.79-.47,1.58-.94,2.38-1.4a1,1,0,0,1,.31-.15l.4.42c-.05.14-.18.19-.3.26-1.83,1.17-3.67,2.35-5.51,3.5l-.67.41c-.19.13-.4.23-.6.35a2.51,2.51,0,0,0-.27.18l.3-.19.59-.35C20.3,8,21.79,7.16,23.26,6.3l2-1.16A.64.64,0,0,1,25.59,5l.42.41a.32.32,0,0,1-.15.13c-1.55,1-3.09,2-4.66,2.91a3.56,3.56,0,0,1-.6.34A4.83,4.83,0,0,0,19.47,9c.37,0,.73,0,1.1,0s.5.07.57.38c0,.08-.06.13-.13.17-.65.4-1.28.85-2,1.22a5.62,5.62,0,0,1-1.53.07c-.76,0-1.51,0-2.26-.11s-1.63,0-2.44-.05a9.91,9.91,0,0,0-1.64.17c-.28,0-.47.26-.74.34,0,0-.08,0-.09-.08s.09-.16.17-.2.41-.26.53-.33a9.79,9.79,0,0,0-.83.53L7.47,12.71c-.18.11-.29.23-.26.44a.24.24,0,0,1-.08.21,15,15,0,0,1,0-1.77,2.49,2.49,0,0,1,1.2-.73c.12.07.22.2.39.09a.39.39,0,0,0,.19-.38v-.9A.74.74,0,0,1,9,9.26,1.46,1.46,0,0,1,9.31,9a.89.89,0,0,1,.43,0,1.54,1.54,0,0,0,1-.13A11,11,0,0,0,9,8.91a.85.85,0,0,0-.68.57l-.1.15c-.32.24-.69.4-1,.61a.14.14,0,0,1-.16,0,2,2,0,0,1,0-.69c0-.23-.09-.26-.28-.24-.36,0-.41.32-.49.58s-.38.39-.62.52a8.48,8.48,0,0,0-.93.52C4,11.31,3.4,11.68,2.76,12c-.28-.26-.43-.62-.69-.89a2.62,2.62,0,0,1,.75-.53c.33-.22.68-.41,1-.61l.62-.38c.09-.07.2-.1.29-.17s.21-.11.3-.18.2-.11.29-.18l.07,0-.08.05c-.09.07-.2.1-.29.18s-.21.1-.3.17-.2.11-.3.18L3.82,10,2,11.07a2.66,2.66,0,0,1-.41-.47,9.19,9.19,0,0,1,1.1-.74C3.54,9.33,4.38,8.8,5.24,8.3c.25-.18.53-.31.79-.49.09-.07.21-.11.3-.18l.06,0a.18.18,0,0,0-.07,0c-.1.06-.21.11-.31.18l-.8.48C4,9.05,2.73,9.75,1.49,10.48A1.77,1.77,0,0,1,1.16,10a.93.93,0,0,1,.36-.29c1.62-1,3.22-2.13,4.85-3.15l.15-.09c.11,0,.19-.14.3-.19a3.62,3.62,0,0,1-.33.2c-1.66,1-3.36,2-5,2.94a1.13,1.13,0,0,0-.37.35,1,1,0,0,1,.16-1C2.48,7.89,3.72,7.05,5,6.26c.16-.1.31-.2.48-.29l.12-.08S5.51,6,5.45,6s-.31.2-.47.29c-.93.58-1.89,1.11-2.83,1.66C2.06,8,2,8.05,1.86,8L2.93,6.64A21.37,21.37,0,0,1,4.72,5.45,3.62,3.62,0,0,0,5,5.23a2.64,2.64,0,0,1-.35.23c-.36.23-.74.45-1.11.67-.08,0-.17.13-.29,0a14.63,14.63,0,0,1,4-3.94l.21-.1c.06.09,0,.14-.07.19a9.61,9.61,0,0,1-.91.78s0,0,0,0l0,0c.72-.5,1.5-.89,2.24-1.33.37-.22.73-.44,1.11-.62A11.34,11.34,0,0,1,11.5.77c0,.09,0,.11-.1.14s0,0,0,0-.07,0-.08.08a.27.27,0,0,1,.08-.07Z"/><path class="cls-3" d="M6.74,26.38v-.59A11.39,11.39,0,0,1,8,25c.09,0,.15-.12.19-.13A1.44,1.44,0,0,0,8,25c-.35.18-.66.4-1,.59-.09,0-.15.13-.26.09a8.2,8.2,0,0,1,0-1.4c.47-.38,1-.66,1.5-1A2.05,2.05,0,0,1,8.76,23a2,2,0,0,1,.6,0,3.79,3.79,0,0,0,1.21-.1s.07,0,.1-.1c-.4-.15-.82,0-1.21-.1-.16-.17,0-.2.11-.24.54-.34,1.08-.7,1.62-1a6.25,6.25,0,0,1,.6-.4c.67,0,1.35.12,2,.07,1.3-.09,2.59,0,3.89-.11a1.35,1.35,0,0,1,.4,0c.25.14,0,.22-.05.28-.4.25-.79.5-1.2.74a.32.32,0,0,0-.12.08.05.05,0,0,1,0,0s0,0,.07-.05c.51-.29,1-.61,1.51-.91a1.92,1.92,0,0,1,.29-.14,1.43,1.43,0,0,1,.29,0,.88.88,0,0,0,.89-.57.42.42,0,0,1,.09-.14c.72-.47,1.47-.87,2.21-1.3.28-.16.54-.34.83-.47.07,0,.16-.15.24,0s0,.36,0,.55-.21.12-.3.21-.21.12-.31.19l-.07,0,.08,0a3.14,3.14,0,0,0,.31-.18c.1,0,.17-.18.29-.06s0,.33,0,.49a.35.35,0,0,1-.21.26c-.41.24-.78.53-1.2.76-.28,0-.42.24-.56.44a.38.38,0,0,0-.25.08c-.7.46-1.42.9-2.14,1.34l-.61.37s-.07.06-.06.06a.21.21,0,0,1,.07-.07l.63-.37c.68-.42,1.36-.84,2.06-1.22.09-.05.19-.17.31-.05a1.34,1.34,0,0,1,.06.69c-.33.24-.68.45-1,.66l-.25.07a2.21,2.21,0,0,0-.52.16c.13.13.27.1.4.11a4.69,4.69,0,0,1,.92,0c.07.06,0,.09,0,.13s-.27.16-.4.24l-.13.1.13-.1c.22-.11.42-.25.62-.37a1.24,1.24,0,0,0,.79-.48c.36-.21.72-.41,1.07-.63.09-.05.2-.18.32,0s0,.37,0,.55-.11.18-.2.23c-1,.67-2,1.38-3.05,2a3.7,3.7,0,0,1-.33.21l.36-.22c.94-.6,1.92-1.14,2.89-1.69.09-.05.2-.18.32,0s0,.37,0,.55-.11.17-.2.23c-.84.57-1.66,1.18-2.53,1.72l-.33.21.36-.22c.74-.5,1.55-.91,2.32-1.38.1-.06.22-.2.37-.06s0,.36,0,.54a.76.76,0,0,1-.35.36c-.49.34-1,.7-1.48,1l-.19.12H21s0,0,.05,0a2.12,2.12,0,0,0,.2-.12Q22,25.4,22.73,25a.59.59,0,0,0,.34-.4.05.05,0,0,1,.07,0v2.87c0,.25,0,.5,0,.75a.9.9,0,0,1-1,1c-.05-.15.08-.22.14-.35-.25.07-.42.27-.67.3H18a.08.08,0,0,1,.09-.09,1.5,1.5,0,0,0,.88-.45,5.66,5.66,0,0,1,.56-.4,1.09,1.09,0,0,0,.17-.13l-.19.13a12,12,0,0,1-1.68.94l-2,0c0-.15.09-.18.17-.24.68-.49,1.35-1,2.06-1.43l.17-.1a2.12,2.12,0,0,0-.2.12c-.9.58-1.85,1.1-2.72,1.6a.53.53,0,0,1,.48.05,12.21,12.21,0,0,1-1.71,0c0-.13.1-.17.18-.23,1-.71,2-1.45,3.11-2.12l.33-.22-.36.23c-1.26.78-2.56,1.49-3.84,2.25-.07,0-.18,0-.22.11a11.92,11.92,0,0,1-1.46,0,.08.08,0,0,1,.08-.1,1.34,1.34,0,0,0,.78-.36c1.1-.72,2.17-1.48,3.29-2.18.15-.08.29-.18.44-.27l-.46.28c-1.4.87-2.86,1.66-4.28,2.5a3.05,3.05,0,0,1-.32.13A12.09,12.09,0,0,1,9,29.11c0-.13.11-.15.18-.2.79-.52,1.6-1,2.41-1.52l.89-.54.12-.08-.13.09c-.31.17-.6.36-.91.54-.84.54-1.73,1-2.59,1.52a1.27,1.27,0,0,1-.32.13,1.78,1.78,0,0,1-.71-.22c.06-.15.22-.21.34-.29,1.37-.88,2.72-1.77,4.12-2.6l.79-.49a.23.23,0,0,0,.07-.06l-.08.07-.8.48c-1.56.95-3.14,1.84-4.72,2.76a1.61,1.61,0,0,1-.74-1c.57-.41,1.18-.77,1.77-1.15,1.33-.86,2.65-1.73,4-2.54l.61-.38c-.21.13-.42.26-.64.38-1.46.91-3,1.74-4.45,2.6a11.4,11.4,0,0,1-1.37.76,2.83,2.83,0,0,1-.1-.71,12.1,12.1,0,0,0,1.51-.91c1.17-.74,2.33-1.5,3.51-2.21l.62-.37a.27.27,0,0,0,.06-.07.26.26,0,0,1-.08.08c-.21.11-.41.26-.62.37-1.42.87-2.87,1.68-4.31,2.52-.14.08-.28.17-.43.24S6.84,26.45,6.74,26.38Z"/><path class="cls-4" d="M12.78,1l.88.17c.07.12.15,0,.22,0l.94,0c0,.19-.14.28-.22.41s-.16.2-.22.3c.42-.19.8-.46,1.21-.67a.33.33,0,0,1-.22,0,.14.14,0,0,1-.1-.07L17,1c.05.13,0,.19-.12.26a6.31,6.31,0,0,1-.63.53s0,0,0,0a.08.08,0,0,1,0,0c.39-.27.81-.48,1.21-.73a.24.24,0,0,1,.22,0,2.45,2.45,0,0,1-2.15,2.67s0-.05,0-.07,0,0-.06,0-.1,0-.13,0a2.08,2.08,0,0,1-1-.1c.13-.16.32-.22.46-.35s0,0,0,0-.05,0-.07,0a1.53,1.53,0,0,1-.52.31,1.69,1.69,0,0,1-.66-.32,5.17,5.17,0,0,1,.72-.61s0,0,0,0,0,0,0,0a3.35,3.35,0,0,1-.86.49A1.65,1.65,0,0,1,13,2.62a3.44,3.44,0,0,0,.38-.46c-.19.06-.32.22-.51.24a2.75,2.75,0,0,1-.4-1.31c0-.05,0-.12.05-.15C12.57,1.08,12.66,1.12,12.78,1Z"/><path class="cls-3" d="M25.77,12.86a1.9,1.9,0,0,1-.78-.15.08.08,0,0,1,0-.05c-.05,0-.08,0-.12,0a7.71,7.71,0,0,1-.8-.3c-.2-.08-.28-.19-.19-.39a14,14,0,0,1,1.43-.87l3.19-1.84a1.06,1.06,0,0,1,.34-.16,1.57,1.57,0,0,1-.15,1.32,9.66,9.66,0,0,1-1.61,1.94,1.56,1.56,0,0,1-.87.43c0-.22.18-.27.3-.38s0,0,0,0l0,0A2.69,2.69,0,0,1,25.77,12.86Z"/><path class="cls-3" d="M23.09,11.47a.16.16,0,0,1,0,.15,3.89,3.89,0,0,1,0,.59c0,.1-.08.14-.15.18l-.68.41c-.1.08-.22.11-.31.19l-.07,0L22,13c.1-.07.21-.11.31-.19l.6-.35c.07,0,.14-.13.21,0s0,.33,0,.5-.11.17-.2.23c-.91.58-1.82,1.16-2.74,1.73-.09,0-.2.17-.29,0a3.79,3.79,0,0,1,0-.89c0-.5,0-1,0-1.5,0-.18.14-.26.27-.34l.37-.2c.33-.16.63-.35.94-.53s.84-.5,1.27-.74a.61.61,0,0,1,.29-.11l0,0v.81c-.09.07-.21.1-.3.17s-.07.06-.05.07,0-.06.07-.08S23,11.45,23.09,11.47Z"/><path class="cls-3" d="M7.13,13.36l0-.28A2.89,2.89,0,0,1,8,12.45c.72-.47,1.46-.93,2.2-1.35a.19.19,0,0,1,.16,0v.12a4.48,4.48,0,0,0-.11,1.26.34.34,0,0,1-.14.29,3.66,3.66,0,0,0-.67.37l-2,1.15c-.11.06-.21.16-.35.08v-.58c.09-.07.2-.11.28-.18-.09,0-.16.15-.28.12A.62.62,0,0,1,7.13,13.36Z"/><path class="cls-3" d="M23.91,11.77V10.31a15.53,15.53,0,0,1,1.61-1c.17-.09.21-.29.36-.4l.09,0c.35.06.56-.22.84-.34.11-.05.21-.11.32-.05s.12.19.08.3a.18.18,0,0,1-.13.11.82.82,0,0,0-.67.29c-.09.12-.26.07-.36.16-.34.34-.84.44-1.18.79-.13.13-.35.14-.52.25a.66.66,0,0,0-.29.33,2.82,2.82,0,0,0,.88-.45c1.14-.67,2.3-1.31,3.43-2a.39.39,0,0,1,.14-.05,1.67,1.67,0,0,1,.25.52c-.12.21-.34.27-.53.39l-4,2.48C24.13,11.72,24,11.81,23.91,11.77Z"/><path class="cls-3" d="M26.88,6.28a3.16,3.16,0,0,1,.4.42,9.07,9.07,0,0,1-1.23.82l-2.21,1.4a1.44,1.44,0,0,1-.39.2,12.27,12.27,0,0,1-1.28.84c-.08.06-.2.16-.3,0a2.16,2.16,0,0,1,0-.76,2,2,0,0,1,.68-.47l4-2.33A.73.73,0,0,1,26.88,6.28Z"/><path class="cls-3" d="M26.17,5.6a1.45,1.45,0,0,1,.42.4,8.94,8.94,0,0,1-1.2.8L22,9a.38.38,0,0,1-.18.09c-.31-.14-.66-.13-1-.3.06-.2.28-.22.41-.34,1.49-.9,3-1.76,4.52-2.65A1,1,0,0,1,26.17,5.6Z"/><path class="cls-3" d="M23.08,13v-.6a.08.08,0,0,1,0-.11c0-.22,0-.44,0-.67a7,7,0,0,1,.05,1.45q0,3.42,0,6.85a1.11,1.11,0,0,1,0,.17.06.06,0,0,1-.08,0,.31.31,0,0,1,0-.31v-.6s0,0,0,0a0,0,0,0,1,0,0v-.64c-.11-.11-.06-.24-.07-.35l-2.6,1.67a2,2,0,0,0-.41.31c-.05.05-.1.12-.16,0a3.15,3.15,0,0,1,0-.92c.52-.36,1.08-.63,1.61-1s.84-.49,1.26-.72A.48.48,0,0,0,23,17a4.51,4.51,0,0,1,0-.52.76.76,0,0,0,0-.15c0-.2,0-.41,0-.61a.76.76,0,0,0,0-.15V15c0-.16,0-.31,0-.47,0-.4,0-.79,0-1.18A.47.47,0,0,1,23.08,13Z"/><path class="cls-3" d="M27.58,7.05a1.68,1.68,0,0,1,.35.4c-.48.36-1,.65-1.51,1-.7.45-1.42.89-2.13,1.33-.13.07-.25.23-.44.15l-.19-.63a1.89,1.89,0,0,1,.66-.45l2.94-1.7C27.36,7.07,27.45,7,27.58,7.05Z"/><path class="cls-3" d="M21.92,9.15V10c.09.11.18.07.28,0l.7-.4c.09-.06.18-.15.31-.08l-.12,1,0,0c-.29,0-.49.23-.73.36s-.57.34-.86.51-.6.36-.9.54-.46.19-.59.42c-.08,0-.1-.07-.11-.14,0-.26-.12-.52-.13-.78A7.62,7.62,0,0,1,21,10.75a.13.13,0,0,1,.13,0c.09.14.19.26.37.21a.38.38,0,0,0,.26-.39c0-.34,0-.69,0-1a.77.77,0,0,1,.05-.4A.05.05,0,0,1,21.92,9.15Z"/><path class="cls-3" d="M7,20.44a4.89,4.89,0,0,1,.05-1,.21.21,0,0,1,0,.28q1.34-.86,2.7-1.68c.11-.07.23-.15.21-.31s0-.11-.09-.07-.36.17-.53.27-.31.17-.43.07,0-.24,0-.37a.1.1,0,0,1,.06-.05.41.41,0,0,0,.46-.12c.13-.15.35-.18.49-.33s.15,0,.19.06a5.79,5.79,0,0,1-.05,1.44c0,.12-.14.16-.23.21L7.26,20.38A.23.23,0,0,1,7,20.44Z"/><path class="cls-5" d="M22.33,1.94,18,4.46,15.19,6.07l-.13,0c-.07,0-.08,0-.06-.06l5.11-3.25,1.66-1.07A1.71,1.71,0,0,1,22.33,1.94Z"/><path class="cls-3" d="M7.09,18.58a9.25,9.25,0,0,1,0-1.18c.11.14.21.06.32,0C8.2,16.92,9,16.45,9.69,16c.12-.07.24-.16.37-.22s.17-.08.22,0a2.07,2.07,0,0,1,0,1c-.18-.11-.32,0-.46.1-.75.42-1.48.87-2.24,1.28C7.33,18.24,7.25,18.44,7.09,18.58Z"/><path class="cls-3" d="M10.11,12.7c.11,0,.11-.15.12-.25.14.05.14.18.14.29,0,.67,0,1.33,0,2,0,.11,0,.22-.11.29s-.1-.21-.12-.33v-.21c0-.24,0-.49,0-.73s0-.23-.19-.12L7.54,15c-.12.07-.23.2-.39.11v-.58a1.2,1.2,0,0,1,.46-.35c.63-.38,1.25-.77,1.89-1.14C9.69,12.94,9.91,12.83,10.11,12.7Z"/><path class="cls-3" d="M10.22,13.68v.84a.38.38,0,0,1-.19.16l-2.5,1.45c-.12.07-.23.16-.38.12v-.59a.49.49,0,0,1,.23-.24L10,13.75C10.07,13.71,10.13,13.66,10.22,13.68Z"/><path class="cls-3" d="M5.57,10.37A1.93,1.93,0,0,0,6.2,9.9v.88c-.37.28-.79.48-1.18.72l-1.51.87a.5.5,0,0,1-.27.08,1.56,1.56,0,0,1-.45-.4c.61-.41,1.25-.76,1.87-1.14C5,10.72,5.27,10.55,5.57,10.37Z"/><path class="cls-3" d="M10.21,14.66l0,.38a.39.39,0,0,1,0,.36,5.88,5.88,0,0,1-1,.63q-.9.54-1.83,1c-.09.05-.17.14-.29.1v-.64a.79.79,0,0,1,.22-.19l2.56-1.6C10,14.7,10.09,14.61,10.21,14.66Z"/><path class="cls-5" d="M25.59,5c-.72.49-1.51.89-2.26,1.33C22,7.11,20.71,7.86,19.4,8.62l-.56.29c-.06,0-.07,0-.06-.05l4.76-3L25.3,4.72Z"/><path class="cls-3" d="M7,21.31a3.42,3.42,0,0,1,0-.71c.84-.45,1.62-1,2.44-1.47l.45-.26c.07-.05.16-.14.25,0a4.37,4.37,0,0,1,.06.72c-.82.41-1.58.91-2.38,1.34C7.55,21.06,7.32,21.31,7,21.31Z"/><path class="cls-5" d="M21.92,9.15h-.05A.08.08,0,0,1,21.8,9a5.42,5.42,0,0,1,1.09-.75C24,7.56,25.17,6.85,26.3,6.13A.64.64,0,0,1,26.59,6a1.28,1.28,0,0,1,.29.28c-.59.42-1.23.73-1.84,1.1-1,.58-2,1.14-2.95,1.71A.85.85,0,0,1,21.92,9.15Z"/><path class="cls-5" d="M23.91,11.77,28.2,9.12c.18-.12.37-.22.55-.33a.8.8,0,0,1,.11.34,3.62,3.62,0,0,1-.93.58c-1.24.74-2.49,1.45-3.74,2.17a.74.74,0,0,1-.29.12Z"/><path class="cls-5" d="M12.73,24.05,7.11,27.66a.26.26,0,0,1-.19.05.76.76,0,0,1-.08-.33,4.11,4.11,0,0,1,1-.6q2.39-1.39,4.79-2.77l.09,0C12.73,24,12.74,24,12.73,24.05Z"/><path class="cls-3" d="M6.8,24.05c0-.49,0-1,.1-1.46a3.07,3.07,0,0,1,1.24-.76c.06.07.06.16.1.24,0,.28.22.52.26.81-.2.27-.52.35-.78.52A3.49,3.49,0,0,0,6.8,24.05Z"/><path class="cls-5" d="M6.55,6.47,3.79,8.27,1.27,9.92l-.11,0a.45.45,0,0,1-.08-.23c0-.18.08-.26.23-.35l4-2.28c.41-.24.83-.46,1.24-.69C6.56,6.39,6.57,6.41,6.55,6.47Z"/><path class="cls-5" d="M27.58,7.05c-.58.26-1.11.62-1.66.93-.76.42-1.51.86-2.26,1.29-.07,0-.12-.13-.22-.11s0,0,0-.05,0,0,0,0l3.75-2.37.09,0A1.27,1.27,0,0,1,27.58,7.05Z"/><path class="cls-3" d="M9.06,17.59a.52.52,0,0,1-.13.41,2.56,2.56,0,0,0,.9-.39c.13-.11.27-.16.27.1a1.57,1.57,0,0,1-.55.37L7.39,19.33c-.09.05-.19.15-.31.06v-.58a1.68,1.68,0,0,1,.62-.47c.35-.22.7-.45,1.06-.66C8.86,17.62,8.94,17.54,9.06,17.59Z"/><path class="cls-3" d="M4.46,12.86a1.45,1.45,0,0,1-.76-.16c0-.1.06-.13.12-.17.7-.46,1.4-.9,2.1-1.34.09-.06.18-.15.29-.07a2.08,2.08,0,0,1,.06.7A10.48,10.48,0,0,1,4.46,12.86Z"/><path class="cls-5" d="M16,26.61l-3.7,2.5c-.16.11-.35,0-.49.11h-.47a10.16,10.16,0,0,1,1.14-.69c1.14-.67,2.3-1.32,3.46-2C16,26.53,16,26.56,16,26.61Z"/><path class="cls-5" d="M6.74,26.38,9.1,25l2.64-1.51c.06,0,.07,0,0,.06L7,26.64c-.09.06-.17.11-.27,0Z"/><path class="cls-5" d="M7.14,17.18l3-1.72a.45.45,0,0,1,.11,0,.2.2,0,0,1,0,.29L7.31,17.56c-.26.17-.12-.11-.18-.16Z"/><path class="cls-5" d="M23.85,9.9c.58-.3,1.12-.67,1.68-1l2.08-1.3a.77.77,0,0,1,.32-.14.55.55,0,0,1,.18.24c-.08.19-.27.24-.43.33-.48.29-1,.55-1.45.84-.09.06-.2.06-.29.11h-.06a.75.75,0,0,1-.3.26L24.22,10c-.11.06-.24.19-.36,0Z"/><path class="cls-5" d="M9.06,17.59l-2,1.22v-.23c0-.45.45-.51.74-.69.7-.43,1.43-.83,2.15-1.25.23-.14.16.06.19.15a.1.1,0,0,1,0,.12,4.41,4.41,0,0,1-1.12.68Z"/><path class="cls-5" d="M6.21,11.12a5.1,5.1,0,0,0-.93.56c-.53.33-1,.68-1.58,1a1,1,0,0,1-.46-.25l2.64-1.54a1.79,1.79,0,0,1,.32-.13Z"/><path class="cls-5" d="M13.26,29.18c.13-.24.39-.29.6-.41l3.46-2c.06,0,.08,0,.06.06l-3.21,2.22-.11.1Z"/><path class="cls-5" d="M10.22,13.68,7.31,15.55l-.16.11v-.52a14.07,14.07,0,0,0,1.42-.78c.54-.29,1.07-.62,1.6-.93C10.26,13.51,10.21,13.6,10.22,13.68Z"/><path class="cls-5" d="M12.43,26,9.65,27.75,7.94,28.83a.56.56,0,0,1-.28-.13c0-.12.12-.16.19-.2l3.87-2.23.66-.36C12.44,25.89,12.45,25.92,12.43,26Z"/><path class="cls-6" d="M26.17,5.6l-3.48,2-1.46.82c-.07,0-.08,0-.06-.06l3.42-2.12A12.69,12.69,0,0,1,26,5.42C26.1,5.44,26.1,5.55,26.17,5.6Z"/><path class="cls-7" d="M8.19,9.61l.05-.11c.15.16.09.36.09.54a2.4,2.4,0,0,1,0,.6c-.14.22-.38.26-.57.38s-.52.25-.67.53a4.88,4.88,0,0,1,0-1A2.83,2.83,0,0,1,7.78,10,1.21,1.21,0,0,0,8.19,9.61Z"/><path class="cls-8" d="M9.87,1.15A3.15,3.15,0,0,1,9,1.69c-.83.5-1.68,1-2.52,1.46-.06,0-.07,0-.06-.06a10.36,10.36,0,0,0,1-.95A8.63,8.63,0,0,1,9.87,1.15Z"/><path class="cls-3" d="M23.14,24.57h-.05v-.64a.33.33,0,0,1,0-.41v-.64a.32.32,0,0,1,0-.4v-.65c-.09-.11-.18-.06-.27,0-.26.18-.54.33-.8.52-.06,0-.14.16-.24,0s.08-.52.1-.79c.39-.25.8-.45,1.19-.7a.11.11,0,0,1,.08,0Z"/><path class="cls-6" d="M7.08,19.39a15.05,15.05,0,0,0,1.36-.75c.56-.3,1.08-.67,1.66-.93A.27.27,0,0,1,10,18c-1,.58-1.89,1.17-2.86,1.78l0-.36A0,0,0,0,1,7.08,19.39Z"/><path class="cls-3" d="M25.94,9c.7-.47,1.46-.83,2.17-1.28a2,2,0,0,1,.32.47c-.34.23-.7.44-1.05.65-.07,0-.14.09-.22,0s.06-.23-.08-.27-.21.09-.29.11C26.5,8.76,26.31,9.17,25.94,9Z"/><path class="cls-8" d="M5,6.29,1.44,8.65c-.06,0-.12.1-.2.08L1.86,8C2.61,7.62,3.3,7.16,4,6.76l1-.53C5,6.21,5.05,6.24,5,6.29Z"/><path class="cls-6" d="M18.9,4.72l3.76-2.37.21-.15a.79.79,0,0,1,.27.15,16.3,16.3,0,0,1-1.55.93c-.83.5-1.67,1-2.5,1.45l-.13,0C18.89,4.8,18.88,4.78,18.9,4.72Z"/><path class="cls-8" d="M27.16,8.85l1-.58a.51.51,0,0,1,.31-.11l.07.11a4.57,4.57,0,0,1-1,.66c-1.1.65-2.2,1.28-3.31,1.91,0,0-.12.17-.18,0,.14-.25.41-.34.64-.48.73-.45,1.46-.91,2.2-1.35a.4.4,0,0,1,.24-.1Z"/><path class="cls-8" d="M7,21.31c.94-.54,1.88-1.08,2.83-1.61.09-.05.19-.25.35-.07,0,0,0,0,0,.07a.65.65,0,0,1-.28.24c-.43.25-.84.53-1.27.77-.09.06-.17.14-.26.19-.39.19-.74.46-1.12.68-.09.05-.17.13-.29.08Z"/><path class="cls-3" d="M7,21.66,8.07,21a.92.92,0,0,1,.28-.14,6.39,6.39,0,0,1-.17,1.23c-.08-.07,0-.16-.06-.24s-.07-.13-.18-.06a7.37,7.37,0,0,1-.77.45c-.08,0-.15.11-.26.08A2.76,2.76,0,0,1,7,21.66Z"/><path class="cls-3" d="M23.14,20.9h-.05c-.09-.08-.16,0-.23,0s-.44.28-.66.42-.18.16-.31.06a1.33,1.33,0,0,1-.12-.55.73.73,0,0,1,.38-.29,3.83,3.83,0,0,1,.94-.49h0Z"/><path class="cls-8" d="M1.49,10.48c.12-.25.39-.3.6-.42,1-.61,2-1.19,3.07-1.78h.06c.06,0,.07,0,0,.06l-3.19,2a1.87,1.87,0,0,1-.48.26Z"/><path class="cls-8" d="M20.29,5.42l3.33-2.08A1,1,0,0,1,24,3.15l.07.12c0,.16-.19.18-.3.25L20.41,5.47h-.06C20.29,5.5,20.28,5.47,20.29,5.42Z"/><path class="cls-8" d="M6.8,24.05a.56.56,0,0,1,.33-.39c.46-.25.9-.52,1.35-.78.13,0,.22,0,.23.18a8.87,8.87,0,0,1-1.15.77,2.83,2.83,0,0,1-.77.45Z"/><path class="cls-6" d="M10.21,14.66,7.27,16.49l-.13.05v-.29L9.8,14.72l.41-.2Z"/><path class="cls-8" d="M15.77,29.12h-.58l0-.06L18,27.42c.06,0,.07,0,.06.06L15.9,29l-.09.11h0Z"/><path class="cls-8" d="M10.1,18.81,7.16,20.62a.09.09,0,0,1-.15,0v-.16l2.87-1.66a1.89,1.89,0,0,1,.21-.09A.08.08,0,0,1,10.1,18.81Z"/><path class="cls-8" d="M12.68,3.31a2.79,2.79,0,0,1-.72.47L9.7,5.07c-.06,0-.07,0-.06-.06l2.85-1.86Z"/><path class="cls-8" d="M9.29,4.08l2.44-1.6A.33.33,0,0,1,12,2.39l.08.16a1.57,1.57,0,0,1-.61.41c-.7.4-1.36.83-2.08,1.18C9.29,4.16,9.28,4.14,9.29,4.08Z"/><path class="cls-8" d="M8.65,29.05c.6-.41,1.24-.73,1.86-1.1l1.05-.59c.06,0,.07,0,.06.06L9,29.11A.83.83,0,0,1,8.65,29.05Z"/><path class="cls-8" d="M9.29,3l2.18-1.45c.09-.06.17-.13.26,0v.17L9.48,3l-.13,0C9.29,3.12,9.28,3.09,9.29,3Z"/><path class="cls-9" d="M4.46,12.86c.44-.33.94-.55,1.4-.83a.89.89,0,0,1,.41-.21.57.57,0,0,1,0,.29c-.17.26-.49.32-.69.53a1.68,1.68,0,0,1-.69.18c-.09,0-.21,0-.3,0Z"/><path class="cls-3" d="M23.86,10c.09.08.18,0,.26,0l1.76-1c-.12.2-.19.4-.47.51a9,9,0,0,0-.83.49c-.22.12-.4.34-.68.34Z"/><path class="cls-8" d="M24.9,4.3a2.27,2.27,0,0,1-.72.46l-2,1.13c-.06,0-.07,0-.05-.06L24.8,4.18Z"/><path class="cls-8" d="M23.44,9.09v.07a1.2,1.2,0,0,0-.22.4,8.69,8.69,0,0,0-1.07.61c-.18.1-.25.06-.22-.14Z"/><path class="cls-10" d="M17.67,1.05l-1.45.82c-.06,0-.07,0-.06-.06A4.23,4.23,0,0,0,17,1L17.5.89C17.67.83,17.7.91,17.67,1.05Z"/><path class="cls-11" d="M9.52,13.1l-2.1,1.31c-.09.06-.19.1-.28.15v-.23a14.27,14.27,0,0,0,1.44-.79l.89-.49C9.53,13,9.54,13.05,9.52,13.1Z"/><path class="cls-11" d="M17.85,29.1c.42-.31.89-.52,1.33-.8.11-.07.24-.12.35-.18s.08,0,.06.06c-.19.15-.4.29-.59.46a1.56,1.56,0,0,1-1,.46Z"/><path class="cls-12" d="M18.32,1.64c0-.14,0-.27.05-.4,0-.43,0-.43.46-.29l.48.16C19,1.25,18.69,1.53,18.32,1.64Z"/><path class="cls-8" d="M6.91,22.3l1-.61c.18-.11.18,0,.17.14l-1.22.76Z"/><path class="cls-13" d="M3.29,6.18a10.23,10.23,0,0,0,1.12-.62l.28-.14c.06,0,.07,0,.06.06-.52.35-1,.7-1.57,1-.07.05-.14.14-.25.12A2,2,0,0,1,3.29,6.18Z"/><path class="cls-8" d="M8.19,9.61A.3.3,0,0,1,8,9.93c-.35.19-.68.41-1,.61v-.29Z"/><path class="cls-11" d="M21.05,1.53a4,4,0,0,1-.94.59c-.35.23-.73.42-1.1.62-.06,0-.07,0-.06-.05l1.78-1.12A.9.9,0,0,1,21,1.51Z"/><path class="cls-14" d="M2,11.07c0-.16.18-.18.27-.24L3.82,10c.06,0,.07,0,.06.06L2.07,11.13Z"/><path class="cls-15" d="M7.07,11.55a.35.35,0,0,1,.25-.37c.31-.13.56-.4.91-.46a.12.12,0,0,1,0,.17,10.64,10.64,0,0,0-1.17.7A0,0,0,0,1,7.07,11.55Z"/><path class="cls-9" d="M4.69,11,3,12a.28.28,0,0,1-.21.07,0,0,0,0,1,0,0c.15-.23.4-.29.62-.42l1.25-.71C4.69,10.87,4.71,10.9,4.69,11Z"/><path class="cls-3" d="M14.3,1.93l.52-.71a1.36,1.36,0,0,1,.45,0l.14,0c0,.13-.13.17-.21.23-.24.15-.48.28-.72.44C14.43,2,14.37,2,14.3,1.93Z"/><path class="cls-16" d="M21.63,29.11l.79-.48c0,.26-.21.35-.26.53A1.19,1.19,0,0,1,21.63,29.11Z"/><path class="cls-17" d="M14.41,2.68a3.79,3.79,0,0,1-.77.6.33.33,0,0,1-.16-.12,4.9,4.9,0,0,1,.88-.53C14.42,2.6,14.43,2.63,14.41,2.68Z"/><path class="cls-17" d="M12.84,2.4A2.33,2.33,0,0,1,13.51,2c-.17.22-.25.5-.54.6Z"/><path class="cls-9" d="M18.32,1.64c.32-.2.58-.5,1-.53a0,0,0,0,1,.05,0,4.19,4.19,0,0,1-1.06.63Z"/><path class="cls-18" d="M6.74,25.68A14.17,14.17,0,0,1,8,25s0,0,0,0l0,0-1.28.75Z"/><path class="cls-12" d="M5.57,12.64c.14-.29.46-.35.69-.53a.26.26,0,0,1-.19.34A2.34,2.34,0,0,1,5.57,12.64Z"/><path class="cls-19" d="M25.77,12.86a4.07,4.07,0,0,1,.75-.46c.06,0,.07,0,.06.06a1.2,1.2,0,0,0-.35.36A.81.81,0,0,1,25.77,12.86Z"/><path class="cls-20" d="M24.44,3.77c-.17.22-.44.27-.66.41a2.65,2.65,0,0,1,.63-.44A0,0,0,0,1,24.44,3.77Z"/><path class="cls-21" d="M14.3,3.6a2.85,2.85,0,0,1,.52-.33s0,0,.06,0a1.1,1.1,0,0,1-.49.36Z"/><path class="cls-22" d="M12.78,1a.21.21,0,0,1-.23.19c-.1,0,0-.16-.06-.25Z"/><path class="cls-23" d="M7.14,13.69l.41-.23a.7.7,0,0,1-.41.29Z"/><path class="cls-24" d="M15.35,3.73a.73.73,0,0,1,.36-.21c0,.13-.14.13-.19.2Z"/><path class="cls-25" d="M13.88,1.18a.64.64,0,0,1-.29.16c0-.09.06-.11.07-.17Z"/><path class="cls-26" d="M11.39.88,11.5.77a.28.28,0,0,1,.18,0,.4.4,0,0,1-.29.17s0,0,0,0Z"/><path class="cls-27" d="M24.89,12.69a.37.37,0,0,1,.26-.16c0,.11-.09.14-.16.18Z"/><path class="cls-28" d="M23.09,11.47l-.29.12h0a.32.32,0,0,1,.29-.17Z"/><path class="cls-29" d="M23.62,2.73a.24.24,0,0,1-.27.1l.21-.16Z"/><path class="cls-3" d="M4.58,12.86c.09-.08.2,0,.3,0A.45.45,0,0,1,4.58,12.86Z"/><path class="cls-30" d="M13.48,3.8a.19.19,0,0,1-.19.08c0-.1.1-.08.16-.1S13.47,3.78,13.48,3.8Z"/><path class="cls-1" d="M10.1,18.81v-.12c0-.52.08-1,.06-1.57a.18.18,0,0,1,0-.23v-.1a5.48,5.48,0,0,0,.05-1.07v-.29a1,1,0,0,0,0-.39,18.66,18.66,0,0,0,0-2.59c0-.12,0-.24,0-.35a1.41,1.41,0,0,1,.18-.92,3.38,3.38,0,0,1,2.16-.57,40,40,0,0,1,4.24.12,12,12,0,0,0,2.32,0,.08.08,0,0,1,.08,0,1.21,1.21,0,0,1,.59.65.17.17,0,0,1,0,.12,8,8,0,0,1,.2.95c0,.85,0,1.7,0,2.55a.22.22,0,0,1,.06.14c0,.47-.07.95-.1,1.42a2.43,2.43,0,0,1,0,.27c0,.72.1,1.43.06,2.15a.38.38,0,0,1-.07.21v1a.1.1,0,0,1,0,.17c-.2.67-.72.79-1.33.77-.11,0-.23.09-.34,0l-3.95.07a20,20,0,0,1-2.57-.07.19.19,0,0,1-.12,0c-.1,0-.19,0-.29-.06a2,2,0,0,1-.61-.27,1.09,1.09,0,0,1-.36-.41.25.25,0,0,1,0-.07c-.06-.21-.19-.41-.1-.64v-.05Z"/><path class="cls-1" d="M21.8,9l.07.1c0,.48,0,.95,0,1.42a.5.5,0,0,1-.27.51c-.23.1-.42,0-.48-.29a.16.16,0,0,1,0-.09c0-.34,0-.68,0-1a.86.86,0,0,1,0-.23.42.42,0,0,0-.46-.34h-1c-.12,0-.33.07-.34-.1s.2-.14.32-.17a5.42,5.42,0,0,1,1.06-.09.14.14,0,0,1,.18,0A2.43,2.43,0,0,1,21.8,9Z"/><path class="cls-1" d="M8.25,10.89l0-.17V9.5a.92.92,0,0,1,.95-.71h1.57c.05,0,.13,0,.15.06s-.05.11-.1.14a1.56,1.56,0,0,1-.74.15l-.78,0c-.1,0-.22.06-.28.16a4.3,4.3,0,0,0,0,1.29.45.45,0,0,1-.19.45C8.5,11.17,8.43,11.17,8.25,10.89Z"/><path class="cls-11" d="M10.28,11.12l-3.13,2c0-.19,0-.29.21-.38,1-.55,1.89-1.12,2.86-1.63C10.28,11,10.29,11.07,10.28,11.12Z"/><path class="cls-11" d="M21.1,9.44a.19.19,0,0,1,.06.17.53.53,0,0,1-.25.24c-.46.27-.93.52-1.38.8a.43.43,0,0,1-.36.08h0c.5-.41,1.07-.7,1.6-1.06Z"/><path class="cls-16" d="M10.22,9.61l-1.17.74L9,10.26a8.68,8.68,0,0,1,1.17-.71C10.23,9.53,10.24,9.56,10.22,9.61Z"/><path class="cls-31" d="M11,8a6.44,6.44,0,0,1-1.21.72l0-.07L10.92,8A.09.09,0,0,1,11,8Z"/><path class="cls-32" d="M10.28,11.12l-.06,0a4.92,4.92,0,0,1,1.08-.59l-.9.58Z"/><path class="cls-33" d="M18.9,4.72l.06.06a7.77,7.77,0,0,1-.87.53l0-.07Z"/><path class="cls-32" d="M22.16,5.83l.05.06a4,4,0,0,1-.93.52h0A5.82,5.82,0,0,1,22.16,5.83Z"/><path class="cls-33" d="M4.69,11l-.06-.06a3.46,3.46,0,0,1,.94-.52A7.43,7.43,0,0,1,4.69,11Z"/><path class="cls-33" d="M20.29,5.42l.06.06a3,3,0,0,1-.9.47Z"/><path class="cls-34" d="M19,2.69l.06.05-.87.53,0-.06Z"/><path class="cls-25" d="M15,6.06l.06.06a3.71,3.71,0,0,1-.82.47h0A4.44,4.44,0,0,1,15,6.06Z"/><path class="cls-32" d="M9.29,4.08l.06.06a2.09,2.09,0,0,1-.78.41Z"/><path class="cls-25" d="M5.27,8.33l0-.06A3.25,3.25,0,0,1,6,7.81H6A5.09,5.09,0,0,1,5.27,8.33Z"/><path class="cls-18" d="M18.78,8.86l.06.05a2,2,0,0,1-.58.35c-.06,0-.07,0-.06,0Z"/><path class="cls-26" d="M10.22,9.61l-.06-.06a2.35,2.35,0,0,1,.64-.35h0C10.66,9.4,10.41,9.46,10.22,9.61Z"/><path class="cls-25" d="M3.88,10,3.82,10a1.9,1.9,0,0,1,.64-.35h0C4.31,9.81,4.06,9.87,3.88,10Z"/><path class="cls-32" d="M20.82,8.74h-.18l.53-.35.06.06Z"/><path class="cls-33" d="M6.55,6.47l0-.06A.82.82,0,0,1,7,6.17Z"/><path class="cls-35" d="M5,6.29,5,6.23a2.05,2.05,0,0,1,.47-.29c.06,0,.07,0,.06.06Z"/><path class="cls-32" d="M9.29,3l.06.06a.77.77,0,0,1-.5.24Z"/><path class="cls-23" d="M18.2,9.21l.06,0-.46.3,0-.06Z"/><path class="cls-28" d="M9.64,5l.06.06a1,1,0,0,1-.5.24Z"/><path class="cls-28" d="M4.75,5.48l-.06-.06.46-.29,0,0Z"/><path class="cls-36" d="M9,9.26c0-.21.15-.16.28-.16A.4.4,0,0,1,9,9.26Z"/><path class="cls-30" d="M5.51,6l-.06-.06a.44.44,0,0,1,.32-.12Z"/><path class="cls-37" d="M11.39.88V.94a.24.24,0,0,1-.26.12Z"/><path class="cls-38" d="M5.33,9.09A.37.37,0,0,1,5,9.26H5a.37.37,0,0,1,.29-.17Z"/><path class="cls-39" d="M5.33,9.09c0-.11.15-.13.3-.19a.43.43,0,0,1-.3.19Z"/><path class="cls-20" d="M11,8,10.92,8l.27-.12C11.14,8,11.05,8,11,8Z"/><path class="cls-23" d="M6.32,7.63A.35.35,0,0,1,6,7.81H6a.35.35,0,0,1,.29-.18Z"/><path class="cls-40" d="M6.32,7.63c0-.1.15-.13.3-.19a.37.37,0,0,1-.3.19Z"/><path class="cls-41" d="M20.7,6.76c-.05.11-.14.13-.3.2a.4.4,0,0,1,.3-.2Z"/><path class="cls-37" d="M21,6.59a.37.37,0,0,1-.29.17h0A.35.35,0,0,1,21,6.58Z"/><path class="cls-42" d="M14.24,6.59c-.05.1-.14.13-.29.17a.43.43,0,0,1,.29-.18Z"/><path class="cls-23" d="M21,6.58a.37.37,0,0,1,.29-.17h0a.38.38,0,0,1-.29.18Z"/><path class="cls-43" d="M10.8,9.2c0-.1.14-.13.29-.17a.35.35,0,0,1-.28.17Z"/><path class="cls-25" d="M4.46,9.61a.34.34,0,0,1,.29-.17h0a.37.37,0,0,1-.29.17Z"/><path class="cls-42" d="M4.75,9.44A.35.35,0,0,1,5,9.26H5a.35.35,0,0,1-.29.18Z"/><path class="cls-44" d="M6.68,7.43a.2.2,0,0,1,.17-.13C6.86,7.41,6.77,7.4,6.68,7.43Z"/><path class="cls-39" d="M6.44,3.09l.06.06c0,.07-.11.08-.19.11S6.38,3.13,6.44,3.09Z"/><path class="cls-44" d="M8.26,4.8a.13.13,0,0,1-.14.07s0,0,0,0S8.2,4.78,8.26,4.8Z"/><path class="cls-1" d="M8.71,23.06l-.23-.18a2.33,2.33,0,0,1-.3-.81,2.46,2.46,0,0,1,.17-1.23l.24-.17c.32-.06.38,0,.48.4a1.15,1.15,0,0,1,0,.19,5.39,5.39,0,0,0-.06.8.76.76,0,0,0,.13.44c.07.07.19.07.26.14a6.76,6.76,0,0,1,1.27.06c.07,0,.17,0,.19.1s-.1.13-.18.16a4,4,0,0,1-1.29.13C9.17,23.09,8.94,23.07,8.71,23.06Z"/><path class="cls-1" d="M21.81,20.84l.12.59a.08.08,0,0,1,0,.11,2.92,2.92,0,0,1-.12.88c0,.08,0,.12-.07.17a1,1,0,0,1-.81.48.2.2,0,0,1-.17,0A7.91,7.91,0,0,1,19.47,23c-.09,0-.22,0-.22-.13s.13-.13.22-.15l.47-.1c.21,0,.4-.07.6-.07.49,0,.49,0,.57-.48l.05-.08-.05-.76s0-.07,0-.1a.52.52,0,0,1,.57-.48C21.82,20.67,21.83,20.75,21.81,20.84Z"/><path class="cls-5" d="M19.87,20.32l0-.17c.16-.3.48-.41.74-.59.75-.5,1.52-1,2.28-1.47a1.12,1.12,0,0,1,.18-.08v.45L20.6,19.91Z"/><path class="cls-6" d="M23.09,22.48v.4L20,24.65l-.11,0c-.06,0-.08,0-.06-.06Z"/><path class="cls-8" d="M23.09,23.52v.41l-2.67,1.52c-.06,0-.07,0-.06-.06C21.26,24.77,22.15,24.11,23.09,23.52Z"/><path class="cls-11" d="M13.19,27.36l-2.67,1.73c-.18.12-.35.06-.59.08a3.38,3.38,0,0,1,.74-.47c.82-.46,1.62-1,2.46-1.39C13.19,27.28,13.2,27.31,13.19,27.36Z"/><path class="cls-8" d="M9.41,22.64c-.1,0-.21.05-.29-.06s0-.16.09-.2l2.18-1.26c.06,0,.12,0,.17,0h.12c.06.16-.1.17-.17.21Z"/><path class="cls-8" d="M21.81,20.84l-.12-.17c.44-.35.93-.62,1.39-.92v.34A14.78,14.78,0,0,1,21.81,20.84Z"/><path class="cls-8" d="M21.12,21.15v.1l-2.33,1.34c-.06,0-.07,0-.06-.05l2.21-1.42C21,21.07,21.08,21,21.12,21.15Z"/><path class="cls-8" d="M21.23,25.85l1.86-1.28h0c0,.24-.07.36-.28.47-.52.27-1,.58-1.53.87C21.22,25.93,21.21,25.91,21.23,25.85Z"/><path class="cls-45" d="M21.16,22.07a2.26,2.26,0,0,1,0,.26c0,.22-.07.35-.34.32a8.58,8.58,0,0,0-.88,0c.07-.07.17,0,.25-.05.28-.13.52-.32.79-.46C21,22.1,21.08,22.05,21.16,22.07Z"/><path class="cls-11" d="M21.74,22.59l.07-.17c.33-.28.72-.47,1.07-.72s.22,0,.2.13C22.64,22.09,22.19,22.34,21.74,22.59Z"/><path class="cls-16" d="M18.2,21.09h.34l-1.8,1a0,0,0,0,1-.06,0c.43-.35.92-.6,1.36-.91Z"/><path class="cls-18" d="M8.36,24.05A9.33,9.33,0,0,1,6.82,25a7.14,7.14,0,0,1,1.54-.94Z"/><path class="cls-16" d="M22.33,26.73l.72-.56c0,.41-.42.44-.66.61C22.33,26.81,22.32,26.78,22.33,26.73Z"/><path class="cls-35" d="M21.16,22.07a3.94,3.94,0,0,1-1,.52,3.17,3.17,0,0,1,1-.58Z"/><path class="cls-46" d="M11.62,27.42l-.06-.05a3.73,3.73,0,0,1,.93-.53h0A4.55,4.55,0,0,1,11.62,27.42Z"/><path class="cls-33" d="M12.73,24.05,12.67,24a3.85,3.85,0,0,1,.76-.44A3.44,3.44,0,0,1,12.73,24.05Z"/><path class="cls-32" d="M13.19,27.36l-.06-.05a2.06,2.06,0,0,1,.79-.41Z"/><path class="cls-32" d="M12.43,26l0-.06a4.08,4.08,0,0,1,.81-.47h0A5.09,5.09,0,0,1,12.43,26Z"/><path class="cls-33" d="M11.79,23.58l0-.06a2.09,2.09,0,0,1,.64-.35h0A2.12,2.12,0,0,1,11.79,23.58Z"/><path class="cls-47" d="M16,26.61l-.06-.06a1.88,1.88,0,0,1,.59-.32A2,2,0,0,1,16,26.61Z"/><path class="cls-32" d="M18.72,22.54l.06.05a2.35,2.35,0,0,1-.64.35h0C18.29,22.74,18.54,22.68,18.72,22.54Z"/><path class="cls-32" d="M20.76,23.07h.17a2.45,2.45,0,0,1-.64.34h0C20.41,23.24,20.61,23.19,20.76,23.07Z"/><path class="cls-27" d="M17.38,26.84l-.06-.06a.83.83,0,0,1,.5-.23Z"/><path class="cls-28" d="M19.83,24.63l.06.06a.82.82,0,0,1-.5.24Z"/><path class="cls-48" d="M19.51,29A.77.77,0,0,1,20,28.8C19.82,28.89,19.74,29.08,19.51,29Z"/><path class="cls-34" d="M20.35,25.39l.06.06-.46.29,0-.06Z"/><path class="cls-33" d="M19.59,28.18l-.06-.06a1.14,1.14,0,0,1,.41-.24C19.84,28.06,19.7,28.1,19.59,28.18Z"/><path class="cls-42" d="M8,25V25c.08-.14.22-.16.37-.18Z"/><path class="cls-27" d="M18.08,27.48,18,27.42l.35-.22C18.33,27.36,18.18,27.4,18.08,27.48Z"/><path class="cls-27" d="M22.33,26.73l.06.05a.39.39,0,0,1-.32.13Z"/><path class="cls-42" d="M18.14,22.94c-.05.11-.14.14-.29.18a.43.43,0,0,1,.29-.18Z"/><path class="cls-33" d="M12.38,23.17c0-.1.14-.13.29-.17a.43.43,0,0,1-.29.18Z"/><path class="cls-23" d="M20.29,23.41c-.05.1-.14.13-.29.17a.38.38,0,0,1,.29-.17Z"/><path class="cls-37" d="M8.94,23.7c.05-.11.14-.14.29-.18a.43.43,0,0,1-.29.18Z"/><path class="cls-23" d="M8.65,23.87a.37.37,0,0,1,.29-.17h0a.34.34,0,0,1-.29.17Z"/><path class="cls-38" d="M13.19,25.44c.05-.1.14-.13.29-.17a.43.43,0,0,1-.29.18Z"/><path class="cls-49" d="M12.49,26.84c0-.11.15-.12.31-.2a.39.39,0,0,1-.31.2Z"/><path class="cls-18" d="M8.65,23.87a.35.35,0,0,1-.29.18h0a.35.35,0,0,1,.29-.18Z"/><path class="cls-33" d="M23.09,19.1a.07.07,0,0,1,0,0,.72.72,0,0,1-.28.13h0A.37.37,0,0,1,23.09,19.1Z"/><path class="cls-37" d="M7.6,28c.05-.11.14-.14.29-.18A.39.39,0,0,1,7.6,28Z"/><path class="cls-42" d="M22.5,19.45a.39.39,0,0,1,.3-.18h0a.4.4,0,0,1-.3.17Z"/><path class="cls-50" d="M7.6,28c0,.1-.14.13-.3.19A.38.38,0,0,1,7.6,28Z"/><path class="cls-51" d="M22.5,19.45c0,.1-.14.13-.28.18a.36.36,0,0,1,.28-.18Z"/><path class="cls-23" d="M21.23,25.85l.05.06a.31.31,0,0,1-.23.12,0,0,0,0,1,0,0s0,0,0,0Z"/><path class="cls-44" d="M13.74,25.12a.15.15,0,0,1-.18.1A.16.16,0,0,1,13.74,25.12Z"/><path class="cls-52" d="M21.05,26V26s-.05.1-.14.09A.23.23,0,0,1,21.05,26Z"/><path class="cls-53" d="M16.68,22.13h.06a.22.22,0,0,1-.2.09A.13.13,0,0,1,16.68,22.13Z"/><path class="cls-54" d="M14.3,1.93a12.8,12.8,0,0,0,1.11-.69c.08,0,.16,0,.27,0l-1.45.83,0,0Z"/><path class="cls-24" d="M14.41,2.68l-.05-.05a.21.21,0,0,1,.18-.1C14.54,2.62,14.47,2.65,14.41,2.68Z"/><path class="cls-55" d="M16.16,1.81l.06.06c0,.07-.11.08-.19.11S16.1,1.85,16.16,1.81Z"/><path class="cls-56" d="M14.88,3.27h-.06c0-.07.11-.09.2-.12S14.94,3.26,14.88,3.27Z"/><path class="cls-40" d="M26.58,12.46l-.06-.06a.25.25,0,0,1,.19-.09C26.71,12.4,26.64,12.43,26.58,12.46Z"/><path class="cls-8" d="M19.94,15.08V15l3.13-2v.27a.49.49,0,0,1-.25.24L20.24,15C20.15,15.06,20.06,15.13,19.94,15.08Z"/><path class="cls-9" d="M21.46,11.42l1.45-.9c.08,0,.19-.14.16.07-.51.3-1,.63-1.55.89C21.46,11.5,21.44,11.47,21.46,11.42Z"/><path class="cls-47" d="M21.46,11.42l.06.06a3.59,3.59,0,0,1-.94.52A7.43,7.43,0,0,1,21.46,11.42Z"/><path class="cls-25" d="M23.08,12.29v.11c-.28.11-.5.35-.81.41h0A3.61,3.61,0,0,1,23.08,12.29Z"/><path class="cls-43" d="M22.8,11.59c-.05.11-.14.14-.29.18a.39.39,0,0,1,.29-.18Z"/><path class="cls-27" d="M22,13a.35.35,0,0,1,.29-.18h0A.35.35,0,0,1,22,13Z"/><path class="cls-30" d="M22,13c-.05.1-.14.13-.3.19A.38.38,0,0,1,22,13Z"/><path class="cls-39" d="M22,12.09c0-.09.09-.11.18-.1A.16.16,0,0,1,22,12.09Z"/><path class="cls-57" d="M21.62,13.21a.2.2,0,0,1-.17.11C21.46,13.21,21.53,13.21,21.62,13.21Z"/><path class="cls-32" d="M9.52,13.1l0,0a1.74,1.74,0,0,1,.64-.35C10,12.9,9.71,13,9.52,13.1Z"/><path class="cls-3" d="M27.05,8.91c-.73.51-1.51.94-2.25,1.42l-.83.51a.6.6,0,0,1,.55-.59c.3-.06.38-.35.65-.41s.65-.51,1.09-.61c.16,0,.3-.29.52-.33S27,8.82,27.05,8.91Z"/><path class="cls-3" d="M19.89,19c0-.74-.13-1.48-.06-2.22a3.2,3.2,0,0,1,.63-.4l2.28-1.32c.1-.06.2-.16.34-.09v.59a8.07,8.07,0,0,1-1.14.72c-.18.13-.37.23-.55.34a5.74,5.74,0,0,0,.53-.32c.31-.16.59-.37.89-.53.08,0,.16-.12.27-.1v.65c-.29.2-.6.37-.9.56-.14.1-.31.15-.44.26.14-.11.32-.17.46-.27s.41-.26.61-.38.15-.12.26-.07V17a4.45,4.45,0,0,1-1,.71c-.6.4-1.21.77-1.81,1.16C20.15,19,20.05,19.07,19.89,19Z"/><path class="cls-3" d="M19.94,15.08c1-.6,2.1-1.2,3.14-1.81v1.24a.93.93,0,0,1-.37.31l-2.54,1.61c-.1.07-.19.18-.33.11A11.94,11.94,0,0,1,19.94,15.08Z"/><path class="cls-5" d="M19.84,16.54l1.44-.9,1.8-1.13V15L21,16.13a7.57,7.57,0,0,1-1.19.64Z"/><path class="cls-5" d="M19.89,19a6,6,0,0,0,.92-.55L23.09,17a.47.47,0,0,1-.3.55c-.89.5-1.78,1-2.67,1.54a.35.35,0,0,1-.22.06Z"/><path class="cls-54" d="M23.09,15.66a8.92,8.92,0,0,1-1.17.65s0,0,0,0v0c.39-.23.76-.5,1.17-.7Z"/><path class="cls-35" d="M23.08,16.41l-.87.48c-.06,0-.07,0-.05-.06a5.66,5.66,0,0,1,.93-.52Z"/><path class="cls-9" d="M21.11,10.73a0,0,0,0,1,0,0l-1,.55a2.12,2.12,0,0,1-.31.14l0-.11a8.86,8.86,0,0,1,1.13-.75C21,10.55,21.14,10.49,21.11,10.73Z"/><path class="cls-3" d="M10.16,16.89v.23c-.18.21-.47.26-.65.48s-.3.11-.45,0Z"/><path class="cls-11" d="M21.93,21.54v-.11l1-.6c.1-.06.2-.13.19.07a6.44,6.44,0,0,1-1.05.67S22,21.55,21.93,21.54Z"/><path class="cls-3" d="M9,21.08c-.07-.21-.08-.47-.41-.41l1.57-1,.17.65c-.06.15-.21.19-.33.26L9.3,21C9.21,21.05,9.12,21.13,9,21.08Z"/><path class="cls-58" d="M10.93,13.94v-.71a1,1,0,0,1,.26-.27c-.08,0-.14.14-.26.08,0-.55.05-1.09.06-1.64,0-.17,0-.26.26-.23.37.05.75,0,1.12.07,0,.24-.23.31-.3.48a6.45,6.45,0,0,1,.95-.47h1.05c-.1.31-.39.41-.6.6l0,0s0,0,.07,0c.33-.19.65-.39,1-.56,0,0,0,0,0,0s-.21.09-.29,0l1.6-.08c0,.08-.05.12-.1.16-.37.28-.74.59-1.14.84l-.07,0s.07,0,.11,0c.57-.34,1.13-.69,1.73-1l.18-.06,1-.06c0,.17-.12.24-.23.31-.55.39-1.08.81-1.65,1.16,0,0,0,0-.07,0l.09-.06c.83-.51,1.66-1,2.51-1.45a1.1,1.1,0,0,1,.68.31c-.08.17-.26.22-.4.32-.76.54-1.51,1.1-2.23,1.56.78-.47,1.65-1,2.52-1.46.09,0,.17-.13.29-.06a2.34,2.34,0,0,1,.18,1.11c-.12.23-.36.32-.55.45-.61.44-1.22.87-1.85,1.26l-.18.12s0,0,0,0,0,0,0,0a.67.67,0,0,1,.19-.12c.58-.39,1.19-.71,1.8-1,.27-.16.52-.32.57-.66a3.36,3.36,0,0,1,0,1,.37.37,0,0,1-.17.2c-.55.36-1.08.76-1.65,1.1l-.16.11.19-.12c.53-.32,1.07-.64,1.61-.94.06,0,.11-.09.18-.05l0,1.72c-.06-.09-.11-.14-.23,0l-.92.71a.66.66,0,0,0-.27.19.16.16,0,0,1-.11,0,.42.42,0,0,0-.39,0,3.24,3.24,0,0,0-1.46,1,2,2,0,0,0-.2.21c-.17.24-.31.21-.43,0,0-.16.21-.19.29-.28-.12,0-.2.21-.38.16-.23-.22-.46-.46-.7-.67a2.06,2.06,0,0,0-.74-.37.35.35,0,0,0-.38,0,5.89,5.89,0,0,0-2,1.53s0,.05-.06.07-.16.22-.26.18,0-.19,0-.29,0-.25,0-.38a.71.71,0,0,1,.29-.28c.7-.46,1.37-1,2.08-1.41,0,0,0,0,0,0s0,0,0,0c-.69.45-1.41.83-2.11,1.25-.07,0-.15.1-.24,0v-1.1a.13.13,0,0,1,0-.12c.13-.27.42-.35.62-.54.43-.25.79-.58,1.22-.84a6.42,6.42,0,0,0,.63.15.4.4,0,0,0,.24,0l.07,0L14,14.9a1.18,1.18,0,0,0,.59-.39,1,1,0,0,0-.52-1.63,2.2,2.2,0,0,0-.37-.07.29.29,0,0,0-.32.06l-.24.09a1,1,0,0,0-.79,1,.33.33,0,0,1,0,.17,6,6,0,0,1-.58.4,2.77,2.77,0,0,1-.78.36v-.69c.08-.16.24-.23.37-.34l.45-.31s0,0,0,0C11.46,13.69,11.26,14,10.93,13.94Z"/><path class="cls-59" d="M10.93,19.58a.43.43,0,0,1,.08-.36,19,19,0,0,1,1.8-1.67.87.87,0,0,1,.6-.24c-.1.27-.37.39-.55.58,0,0,0,0,0,0l0,0a2.18,2.18,0,0,1,.85-.48,1.14,1.14,0,0,1,.42.36c-.11.33-.43.44-.66.64,0,0,0,0,0,0s0,0,0,0a2.81,2.81,0,0,1,.81-.41l1.51,1.69a.09.09,0,0,1-.05.12,7.91,7.91,0,0,1-1.54.84h-.84c-.23-.07-.05-.16,0-.21a2.57,2.57,0,0,1,.5-.35,4.13,4.13,0,0,1-1.08.56c-.34,0-.68,0-1,0-.67.1-.89-.12-.88-.84a1.14,1.14,0,0,1,.31-.31C11.13,19.55,11.05,19.64,10.93,19.58Z"/><path class="cls-60" d="M16.73,19.51l-.47-.46c.07-.23.27-.37.41-.56a5.62,5.62,0,0,1-.64.34c-.24-.15-.24-.29,0-.48s.58-.57.88-.83a.69.69,0,0,1,1.14.29c-.06.25-.34.33-.42.55a5.6,5.6,0,0,1,.64-.36l.48.51c-.05.1-.14.15-.21.23.11,0,.19-.17.33-.11a.66.66,0,0,1,.34.7c0,.26,0,.52,0,.78s-.22.54-.59.58a1.15,1.15,0,0,1-1.15-.43,5.05,5.05,0,0,0-.6-.63.47.47,0,0,1,.24-.26C17,19.41,16.89,19.56,16.73,19.51Z"/><path class="cls-3" d="M11.56,21.08,9.27,22.43c-.06,0-.15.06-.15.15a.82.82,0,0,1-.18-.72c0-.2,0-.41.06-.61s.25-.21.39-.29c.31-.2.63-.4,1-.59a1.09,1.09,0,0,0,.34.37c.1.29.35.24.57.27Z"/><path class="cls-3" d="M21.11,10.73c0-.2-.15-.09-.23,0l-.84.54a.6.6,0,0,1-.28.13,1.5,1.5,0,0,0-.59-.63c.63-.27,1.19-.67,1.79-1l.2-.12A4.19,4.19,0,0,1,21.11,10.73Z"/><path class="cls-58" d="M17.68,16.71l.05-.06c.1,0,.19-.12.29-.15a8.91,8.91,0,0,1,.93-.57c.07,0,.14-.1.24,0v2.05a3.06,3.06,0,0,0-1.51-1.19s0,0,0,0A0,0,0,0,1,17.68,16.71Z"/><path class="cls-58" d="M11,16.24v.14a4.33,4.33,0,0,1,0-1.19,3.79,3.79,0,0,1,.94-.75c.14-.06.21-.24.39-.21a2,2,0,0,1,.41.63,12.09,12.09,0,0,1-1.38.84c-.16.09-.27.19-.25.38A.44.44,0,0,1,11,16.24Z"/><path class="cls-61" d="M11.8,20.65a8,8,0,0,1,1.1,0c.13,0,.26-.11.39,0h1a1.85,1.85,0,0,0,1.2-.6,1.44,1.44,0,0,1,.4-.28l1,.92Z"/><path class="cls-62" d="M19,11.7l-2.82,1.6-.23.13c-.06-.09,0-.12.06-.14l2.65-1.88.16-.07A.65.65,0,0,1,19,11.7Z"/><path class="cls-63" d="M18.15,11c0,.1-.11.12-.18.17l-2.33,1.33c-.06,0-.07,0-.06-.06l1.63-1.17A.86.86,0,0,0,17.5,11Z"/><path class="cls-64" d="M11,17.48l2.38-1.35c.06,0,.07,0,.06.06L11,17.88Z"/><path class="cls-63" d="M16.39,11.17l-1.79,1c-.06,0-.08,0-.07-.06l1.27-1,.41,0C16.28,11.11,16.36,11.05,16.39,11.17Z"/><path class="cls-65" d="M19.23,14.11l-1.78,1c-.07,0-.08,0-.07-.07l1.85-1.27Z"/><path class="cls-66" d="M15.89,19.73a8.3,8.3,0,0,1-1,.83c-.18.14-.43.05-.65.05l1.27-.75a2.4,2.4,0,0,0,.26-.18Z"/><path class="cls-67" d="M19.19,15.89,18,16.52s0,0,0,0a0,0,0,0,1,0,0l1.12-.89c.09.09,0,.19.06.26Z"/><path class="cls-68" d="M13,11.25a5.47,5.47,0,0,1-1.15.6l.5-.61Z"/><path class="cls-69" d="M14.2,11.22l.34,0,0,0-1.07.6c-.06,0-.08,0-.07-.07l.65-.58Z"/><path class="cls-70" d="M18.25,18a2.5,2.5,0,0,1-.81.5,2.46,2.46,0,0,1,.59-.69C18.15,17.82,18.2,17.91,18.25,18Z"/><path class="cls-11" d="M10.35,20.37A7.12,7.12,0,0,1,9,21.25v-.17l1.33-.75S10.35,20.35,10.35,20.37Z"/><path class="cls-71" d="M11.91,14.49l-1,.7V14.9l.73-.41C11.74,14.5,11.82,14.32,11.91,14.49Z"/><path class="cls-72" d="M16,18.83a2.39,2.39,0,0,1,.78-.47,2.88,2.88,0,0,1-.55.69Z"/><path class="cls-73" d="M14.31,18l-.82.47c-.07,0-.08,0-.07-.06l.71-.63A.55.55,0,0,1,14.31,18Z"/><path class="cls-74" d="M12.83,17.87l.58-.56a.36.36,0,0,1,.3.1l-.86.51s0,0,0,0A0,0,0,0,1,12.83,17.87Z"/><path class="cls-75" d="M11.79,13.57l-.46.35c-.15,0-.23.21-.4.12v-.1l.8-.43C11.79,13.48,11.81,13.51,11.79,13.57Z"/><path class="cls-76" d="M11.26,21l-.17,0c-.29.07-.34,0-.4-.29A4.23,4.23,0,0,0,11.26,21Z"/><path class="cls-77" d="M10.93,19.58l.45-.22a1.11,1.11,0,0,1-.46.45Z"/><path class="cls-78" d="M15.1,17.82l.56-.32a1.17,1.17,0,0,1-.47.44Z"/><path class="cls-79" d="M18.85,18.63c-.16.05-.26.2-.45.22.06-.18.15-.31.33-.34Z"/><path class="cls-80" d="M10.93,13l.39-.21a.8.8,0,0,1-.39.4Z"/><path class="cls-70" d="M16.73,19.51a1.53,1.53,0,0,1,.48-.23,1.34,1.34,0,0,1-.37.35Z"/><path class="cls-81" d="M10.93,14c.15,0,.22-.23.4-.12a1.64,1.64,0,0,1-.4.29Z"/><path class="cls-82" d="M17.68,16.71v0h-.4A.31.31,0,0,1,17.68,16.71Z"/><path class="cls-83" d="M13.28,16.77c.13-.11.26-.15.38,0Z"/><path class="cls-84" d="M16.39,11.17l-.18-.06a.4.4,0,0,1,.3,0Z"/><path class="cls-47" d="M21.92,16.25v.06a1.32,1.32,0,0,1-.66.35Z"/><path class="cls-23" d="M22.16,16.83l.05.06-.57.35C21.76,17,22,17,22.16,16.83Z"/><path class="cls-85" d="M12.66,14.84a1.82,1.82,0,0,1-.4-.58.09.09,0,0,1,0-.11c0-.79.19-1,1.11-1.35.1,0,.2-.11.32-.05a1.12,1.12,0,0,1,.71,2,1.25,1.25,0,0,1-.46.19c-.07,0-.16,0-.22.1h0a.5.5,0,0,1-.27,0,1.23,1.23,0,0,1-.65-.16A.1.1,0,0,1,12.66,14.84Z"/><path class="cls-63" d="M16.75,14.51l2.44-1.7h0c.07.29-.05.45-.31.59-.7.37-1.38.78-2.07,1.17C16.75,14.6,16.74,14.56,16.75,14.51Z"/><path class="cls-62" d="M12.66,14.84l.14.08a9.88,9.88,0,0,1-1.18.86c-.16,0-.24.14-.37.19s-.15.15-.28.11,0-.28.15-.37C11.64,15.43,12.15,15.13,12.66,14.84Z"/><path class="cls-86" d="M11,16.08c.22-.09.37-.35.65-.3l-.63.46Z"/><path class="cls-87" d="M12.25,14.15v.11c-.15,0-.21.19-.35.23s-.17,0-.25,0A2.06,2.06,0,0,1,12.25,14.15Z"/><path class="cls-88" d="M17.38,15.08l.07.07a.76.76,0,0,1-.38.19A.65.65,0,0,1,17.38,15.08Z"/><path class="cls-89" d="M14.53,12.12l.07.06-.3.21A.38.38,0,0,1,14.53,12.12Z"/><path class="cls-90" d="M18,16.46v.06c-.08.08-.16.16-.29.13A.37.37,0,0,1,18,16.46Z"/><path class="cls-91" d="M15.58,12.47l.06.06a.47.47,0,0,1-.28.14A.38.38,0,0,1,15.58,12.47Z"/><path class="cls-92" d="M13.42,11.82l.07.07-.24.16A.31.31,0,0,1,13.42,11.82Z"/><path class="cls-93" d="M18.93,15c0-.09.05-.12.12-.13s0,0,0,.06S19,15,18.93,15Z"/><path class="cls-94" d="M13.45,15.08a.24.24,0,0,1,.27,0A.17.17,0,0,1,13.45,15.08Z"/><path class="cls-95" d="M13.68,12.75l-.32.05A.2.2,0,0,1,13.68,12.75Z"/><path class="cls-96" d="M13.71,15.08c0-.16.13-.11.22-.1A.3.3,0,0,1,13.71,15.08Z"/><path class="cls-92" d="M11.79,13.57l-.06-.06a.31.31,0,0,1,.2-.11C12,13.51,11.86,13.53,11.79,13.57Z"/><path class="cls-97" d="M16.75,14.51l.06.06-.18.11c-.06,0-.07,0-.06-.06Z"/><path class="cls-98" d="M16.57,14.62l.06.06a.27.27,0,0,1-.19.1C16.41,14.67,16.51,14.66,16.57,14.62Z"/><path class="cls-99" d="M13.42,16.19l-.06-.06c.05-.05.12-.12.16-.07S13.48,16.16,13.42,16.19Z"/><path class="cls-100" d="M13.29,20.6H12.9L14,19.94C13.84,20.24,13.52,20.36,13.29,20.6Z"/><path class="cls-101" d="M12.83,17.87s0,0,0,.05l-.19.13C12.66,17.92,12.75,17.9,12.83,17.87Z"/><path class="cls-102" d="M13.42,18.4l.07.06a.33.33,0,0,1-.19.11C13.27,18.46,13.37,18.44,13.42,18.4Z"/><path class="cls-103" d="M14,13.48a.86.86,0,0,1,0,1c-.17.32-.28.34-.62.16a.51.51,0,0,1,0-.17c-.08,0-.14.06-.22,0a.94.94,0,0,1-.19-1.13c.19-.34.31-.37.67-.17a.65.65,0,0,1-.22.46C13.67,13.63,13.8,13.44,14,13.48Z"/><path class="cls-104" d="M14,13.48l-.54.29,0,0,.29-.52A.5.5,0,0,1,14,13.48Z"/><path class="cls-105" d="M13.24,14.5a1,1,0,0,1,.27-.15c.12,0,0,.06,0,.1a.23.23,0,0,1-.23.12Z"/><path class="cls-106" d="M13.31,14.57l.23-.12a.25.25,0,0,1-.11.19Z"/></svg>