<svg id="Layer_1" data-name="Layer 1" xmlns="http://www.w3.org/2000/svg" xmlns:xlink="http://www.w3.org/1999/xlink" viewBox="0 0 40 24"><defs><style>.cls-1{fill:none;}.cls-2{fill:#212930;}.cls-3{fill:#171718;}.cls-4{fill:#765647;}.cls-5{fill:#766b66;}.cls-6{fill:#151617;}.cls-7{fill:#1b1b1d;}.cls-8{fill:#bf9580;}.cls-9{fill:#886961;}.cls-10{fill:#b78e7c;}.cls-11{fill:#181718;}.cls-12{fill:#a47265;}.cls-13{fill:#b4826f;}.cls-14{fill:#956b5b;}.cls-15{fill:#bf9686;}.cls-16{fill:#875c4f;}.cls-17{fill:#2e2927;}.cls-18{fill:#ca9e8c;}.cls-19{fill:#4d3e3c;}.cls-20{fill:#906a52;}.cls-21{fill:#342d2d;}.cls-22{fill:#b68b68;}.cls-23{fill:#b38969;}.cls-24{fill:#876052;}.cls-25{fill:#8d614e;}.cls-26{fill:#8e6c62;}.cls-27{fill:#191e22;}.cls-28{fill:#996a58;}.cls-29{fill:#a98679;}.cls-30{fill:#9e765d;}.cls-31{fill:#b48177;}.cls-32{fill:#b7978f;}.cls-33{fill:#d9b6ab;}.cls-34{fill:#c59f91;}.cls-35{fill:#c1857e;}.cls-36{fill:#d2ab9b;}.cls-37{fill:#c8a597;}.cls-38{fill:#a36963;}.cls-39{fill:#3e3c3d;}.cls-40{fill:#a98980;}.cls-41{fill:#ba9a93;}.cls-42{fill:#ab785d;}.cls-43{fill:#c7a495;}.cls-44{fill:#876f67;}.cls-45{fill:#c08f74;}.cls-46{fill:#936552;}.cls-47{fill:#c29176;}.cls-48{fill:#9e7e71;}.cls-49{fill:#5e4f4d;}.cls-50{fill:#b4b4b3;}.cls-51{fill:#cca596;}.cls-52{fill:#935d57;}.cls-53{fill:#d8bbb2;}.cls-54{fill:#dcbcb0;}.cls-55{fill:#9f776a;}.cls-56{fill:#bd9481;}.cls-57{fill:#d8b7ac;}.cls-58{fill:#2f2a2a;}.cls-59{fill:#3b3336;}.cls-60{fill:#cfa38e;}.cls-61{clip-path:url(#clip-path);}.cls-62{fill:#151619;}.cls-63{fill:#131415;}.cls-64{fill:#694d43;}.cls-65{fill:#503d35;}.cls-66{fill:#886154;}.cls-67{fill:#ab796b;}.cls-68{fill:#322525;}.cls-69{fill:#312422;}.cls-70{fill:#4b3e3d;}.cls-71{fill:#1b1b1a;}.cls-72{fill:#ad8d87;}.cls-73{fill:#242323;}.cls-74{fill:#9e715e;}.cls-75{fill:#c28e7f;}.cls-76{fill:#856358;}.cls-77{fill:#4f403e;}.cls-78{fill:#a7755f;}.cls-79{fill:#cbad9d;}.cls-80{fill:#b99279;}.cls-81{fill:#966b57;}.cls-82{fill:#503c37;}.cls-83{fill:#7f5e4e;}.cls-84{fill:#352b2a;}.cls-85{fill:#372d27;}.cls-86{fill:#4f3a32;}.cls-87{fill:#6b5146;}.cls-88{fill:#b08669;}.cls-89{fill:#84604f;}.cls-90{fill:#9d7255;}.cls-91{fill:#d2ac9d;}.cls-92{fill:#6d4f46;}.cls-93{fill:#bc9382;}.cls-94{fill:#1c2227;}.cls-95{fill:#cba199;}.cls-96{fill:#d3afa6;}.cls-97{fill:#473938;}.cls-98{fill:#b4846f;}.cls-99{fill:#a4796b;}.cls-100{fill:#af8781;}.cls-101{fill:#cca28c;}.cls-102{fill:#b78d7a;}.cls-103{fill:#dcbcb1;}.cls-104{fill:#2f2a2b;}.cls-105{fill:#2d2a29;}.cls-106{fill:#ac8870;}.cls-107{fill:#5d5154;}.cls-108{fill:#b18876;}.cls-109{fill:#241b1b;}.cls-110{fill:#504a51;}.cls-111{fill:#bcc1be;}.cls-112{fill:#a57365;}.cls-113{fill:#73564e;}.cls-114{fill:#292728;}.cls-115{fill:#b99886;}.cls-116{fill:#aa908b;}.cls-117{fill:#a18177;}.cls-118{fill:#92716c;}.cls-119{fill:#d5d4dd;}.cls-120{fill:#755a50;}.cls-121{fill:#b2b8b2;}.cls-122{fill:#c3a799;}.cls-123{fill:#a17d72;}.cls-124{fill:#423634;}.cls-125{fill:#5b4740;}.cls-126{fill:#8f7066;}.cls-127{fill:#92695e;}.cls-128{fill:#508c99;}.cls-129{fill:#ab8779;}.cls-130{fill:#77544e;}.cls-131{fill:#4a3f42;}.cls-132{fill:#e6e2e9;}.cls-133{fill:#4a4b51;}.cls-134{fill:#e2e4eb;}.cls-135{fill:#d7d9e3;}.cls-136{fill:#6a7384;}.cls-137{fill:#7a96a3;}.cls-138{fill:#c49f92;}.cls-139{fill:#7d4338;}.cls-140{fill:#d49d98;}.cls-141{fill:#d1ab97;}.cls-142{fill:#89584b;}.cls-143{fill:#614b46;}.cls-144{fill:#332d2f;}.cls-145{fill:#755752;}.cls-146{fill:#b38661;}.cls-147{fill:#a97761;}.cls-148{fill:#3f3537;}.cls-149{fill:#ab7e5f;}.cls-150{fill:#ba8d7b;}.cls-151{fill:#635458;}.cls-152{fill:#985745;}.cls-153{fill:#9c766c;}.cls-154{fill:#8b685d;}.cls-155{fill:#755751;}.cls-156{fill:#c59c78;}.cls-157{fill:#c69e88;}.cls-158{fill:#8f6351;}.cls-159{fill:#9d6c59;}.cls-160{fill:#82584c;}.cls-161{fill:#986850;}.cls-162{fill:#83574a;}.cls-163{fill:#4f3c38;}.cls-164{fill:#cea791;}.cls-165{fill:#917064;}.cls-166{fill:#c6a198;}.cls-167{fill:#b99283;}.cls-168{fill:#e1c4ba;}.cls-169{fill:#d4b09a;}.cls-170{fill:#8e685f;}.cls-171{fill:#c69d84;}.cls-172{fill:#6c4a43;}.cls-173{fill:#dbbbae;}.cls-174{fill:#572f28;}.cls-175{fill:#c79f91;}.cls-176{fill:#41211d;}.cls-177{fill:#c19a86;}.cls-178{fill:#916e67;}.cls-179{fill:#68524e;}.cls-180{fill:#252125;}.cls-181{fill:#a3a1a5;}.cls-182{fill:#afa6b0;}.cls-183{fill:#b6aab3;}.cls-184{fill:#d7b4a7;}.cls-185{fill:#493e3d;}.cls-186{fill:#c59f8d;}.cls-187{fill:#82645f;}.cls-188{fill:#966c61;}.cls-189{fill:#dab7ac;}.cls-190{fill:#caa190;}.cls-191{fill:#c5a4a0;}.cls-192{fill:#d4b1a3;}.cls-193{fill:#a47c73;}.cls-194{fill:#bcc0c3;}.cls-195{fill:#1f1e23;}.cls-196{fill:#7c615b;}.cls-197{fill:#5a89a1;}.cls-198{fill:#84aab8;}.cls-199{fill:#a29ea5;}.cls-200{fill:#8c6252;}.cls-201{fill:#5a4747;}.cls-202{fill:#c59e8d;}.cls-203{fill:#af846f;}.cls-204{fill:#3b3537;}.cls-205{fill:#62504f;}.cls-206{fill:#a67c72;}.cls-207{fill:#a68573;}.cls-208{fill:#bf946e;}.cls-209{fill:#d3ac9c;}.cls-210{fill:#b97d73;}.cls-211{fill:#946b58;}.cls-212{fill:#a47159;}.cls-213{fill:#b07b5e;}.cls-214{fill:#bd9282;}.cls-215{fill:#a6786c;}.cls-216{fill:#cea393;}.cls-217{fill:#a77a6f;}.cls-218{fill:#684d46;}.cls-219{fill:#d0a28c;}.cls-220{fill:#d5ad9a;}.cls-221{fill:#bb8377;}.cls-222{fill:#dabeb6;}.cls-223{fill:#ce908a;}.cls-224{fill:#8c504e;}.cls-225{fill:#9d645e;}.cls-226{fill:#b77f76;}</style><clipPath id="clip-path" transform="translate(24.5 8.5)"><circle class="cls-1" cx="-17" cy="-1" r="7.5"/></clipPath></defs><title>tab-icon</title><circle class="cls-2" cx="32.5" cy="16.5" r="7.5"/><path class="cls-2" d="M1.26,9.16V6.63A5.89,5.89,0,0,1,6.52,1.38H9a5.68,5.68,0,0,1,5.19,4.05,6.77,6.77,0,0,1-.84,6.67,1.53,1.53,0,0,1-.86.72c-1.1-.08-1.59-.91-2.11-1.71a1,1,0,0,1-.11-.6c0-.24.12-.47.17-.71a1.23,1.23,0,0,1,.12-.26c.11-.15.26-.27.37-.43.22-.51.5-1,.08-1.58a.68.68,0,0,1-.18-.23.71.71,0,0,1,0-.29c.71-3.07-1.71-4.48-4.2-4.44-.94,0-2,1.52-2.1,2.84A4.28,4.28,0,0,0,4.7,7a2.83,2.83,0,0,1,.09.87,1.41,1.41,0,0,0-.07,1.43,14.07,14.07,0,0,1,1.11,2,1,1,0,0,1,.07.45,1.06,1.06,0,0,1-.05.31C5.59,13,4.79,13.22,4,13.47a4.34,4.34,0,0,1-2.49-3.1C1.35,10,1.45,9.54,1.26,9.16Z" transform="translate(24.5 8.5)"/><path class="cls-3" d="M6.73,14.62c-.89-.49-2-.58-2.73-1.32.53-.5,1.46-.54,1.67-1.41.42-.22.77,0,1.14.14a5.68,5.68,0,0,0,1,.41.66.66,0,0,1,.49.33c-.07.4-.39.42-.69.46-.69,0-.34.3-.2.57s.25.55,0,.82Z" transform="translate(24.5 8.5)"/><path class="cls-4" d="M9,14.4l-.21.22H8.41a.48.48,0,0,1-.16-.39c0-.34.35-.46.54-.67a1.36,1.36,0,0,1,.72-.5.37.37,0,0,1,.26.15C10,13.92,9.5,14.13,9,14.4Z" transform="translate(24.5 8.5)"/><path class="cls-4" d="M7.36,14.62c.07-.32-.23-.52-.26-.81a.32.32,0,0,1,.22-.12,1,1,0,0,1,.38.15.83.83,0,0,1,.35.41c0,.33-.35.21-.48.37Z" transform="translate(24.5 8.5)"/><path class="cls-5" d="M7.57,14.62,8,14.25a.25.25,0,0,1,.41,0v.4Z" transform="translate(24.5 8.5)"/><path class="cls-6" d="M4.42,7.05A3.65,3.65,0,0,1,4.3,4.79C4.77,3.32,5.64,2,7.19,2.21c2.57.41,3.92,1.58,4.05,3.55a2.31,2.31,0,0,1-.3,1.47c0,.28-.08.51-.43.5a.74.74,0,0,1-.2-.23,1.27,1.27,0,0,1-.09-.43,2.17,2.17,0,0,0-.2-1,10,10,0,0,0-.5-1.17A1.71,1.71,0,0,1,9,3.63a.51.51,0,0,0-.34-.39c.19.25.42.48.11.77-.68.26-1.4-.22-2.1.11-.34.15-.72.18-1,.51a1.41,1.41,0,0,0-.46.73C5,5.92,5.34,6.81,4.42,7.05Z" transform="translate(24.5 8.5)"/><path class="cls-7" d="M9,14.4c.19-.43.77-.66.61-1.26-.13-.3.1-.49.22-.72a3.25,3.25,0,0,0,.25-.45,2,2,0,0,0,.3-.83l.08-.1c.69.49,1.09,1.31,1.89,1.67A5.31,5.31,0,0,1,9,14.4Z" transform="translate(24.5 8.5)"/><path class="cls-8" d="M10.55,10.43,10.5,11h0c-.19,1.08-1.16.84-1.85,1.09a1.16,1.16,0,0,1-.8-.1.5.5,0,0,1-.21-.4c0-.54.56-.41.79-.68a.59.59,0,0,0,.22-.3c-.22-.3-.7-.32-.8-.74a.64.64,0,0,1,1.07-.67c.21.32.45.61.68.92.1.84.53-.06.74.14A.37.37,0,0,1,10.55,10.43Z" transform="translate(24.5 8.5)"/><path class="cls-9" d="M5.64,11.3l-1.18-2A.66.66,0,0,1,4.72,9c.26-.32,0-1.1.86-.88A1.18,1.18,0,0,1,5.71,9a1.28,1.28,0,0,0,0,1,4.12,4.12,0,0,1,.13,1A.43.43,0,0,1,5.64,11.3Z" transform="translate(24.5 8.5)"/><path class="cls-10" d="M5.64,11.3,5.69,11A.45.45,0,0,1,6,11a16,16,0,0,1,1.81.9h.81c0,.67-.5.59-.94.61s-.59-.24-.9-.32c-.31-.25-.82-.14-1-.56Z" transform="translate(24.5 8.5)"/><path class="cls-11" d="M4.42,7.05C5,6.53,4.65,5.73,5,5.16c.44.37.34.86.26,1.31a6.91,6.91,0,0,0,0,1.11.75.75,0,0,1-.12.48c-.27.2-.39,0-.5-.18Z" transform="translate(24.5 8.5)"/><path class="cls-12" d="M4.63,7.88,5,8.09a2.41,2.41,0,0,1-.23,1.06l-.35.2C4.34,8.84,3.92,8.3,4.63,7.88Z" transform="translate(24.5 8.5)"/><path class="cls-13" d="M11.12,7.3c.83.69.39,1.38,0,2.08-.66-.16-.34-.61-.29-1S10.82,7.61,11.12,7.3Z" transform="translate(24.5 8.5)"/><path class="cls-14" d="M10.55,7.63l.39-.4a.24.24,0,0,1,0,.12,1.54,1.54,0,0,1,.12.82,6,6,0,0,0-.31,1.46.19.19,0,0,1,0,.16c-.67-.13-.42-.69-.51-1.09S10.15,7.89,10.55,7.63Z" transform="translate(24.5 8.5)"/><path class="cls-15" d="M10.5,8.74c.05.36-.09.75.21,1a.68.68,0,0,1-.16.64l-.26,0c-.32-.24-.26-.63-.37-.95a.86.86,0,0,1,0-.45.56.56,0,0,1,.29-.33A.27.27,0,0,1,10.5,8.74Z" transform="translate(24.5 8.5)"/><path class="cls-16" d="M10.75,9.63a2.58,2.58,0,0,1,.19-1.55c.18,0,.26,0,.22.22,0,.36-.42.71,0,1.08Z" transform="translate(24.5 8.5)"/><path class="cls-17" d="M5.7,11.62l1,.45c.11.09.11.17,0,.24l-1.06-.42Z" transform="translate(24.5 8.5)"/><path class="cls-18" d="M11.16,8.3l-.22-.21V7.35a.16.16,0,0,1,.18,0C11,7.64,11.48,8,11.16,8.3Z" transform="translate(24.5 8.5)"/><path class="cls-19" d="M7.57,12.3c.37-.06.78,0,1-.41.63-.28,1.43-.2,1.88-.86.37.45.2.8-.2,1.1a1.13,1.13,0,0,1-.53.25c-.55,0-1,.45-1.54.35H7.57A.29.29,0,0,1,7.57,12.3Z" transform="translate(24.5 8.5)"/><path class="cls-17" d="M8.2,12.73a2.17,2.17,0,0,1,1.46-.63.57.57,0,0,1,0,.6,1.64,1.64,0,0,1-.46.45,1.71,1.71,0,0,1-1.76.13.28.28,0,0,1-.11-.3C7.61,12.9,8,13,8.2,12.73Z" transform="translate(24.5 8.5)"/><path class="cls-20" d="M7.31,13l.07.16c-.07.21.11.45,0,.66H7.1c-.25-.2-.52-.46-.44-.76S7.08,13,7.31,13Z" transform="translate(24.5 8.5)"/><path class="cls-21" d="M7.57,12.3v.43l-.84-.42v-.24A1.53,1.53,0,0,1,7.57,12.3Z" transform="translate(24.5 8.5)"/><path class="cls-22" d="M7.33,13.8c.07-.22-.63-.48,0-.66a6.41,6.41,0,0,0,1.85-.21c.22-.06.29,0,.24.24L9,13.78c-.49.07-.93.48-1.47.22Z" transform="translate(24.5 8.5)"/><path class="cls-23" d="M7.56,14,9,13.78l-.63.44-.41,0Z" transform="translate(24.5 8.5)"/><path class="cls-23" d="M9.47,13.17l-.24-.24.28-.4a.4.4,0,0,1,.61,0l-.47.61Z" transform="translate(24.5 8.5)"/><path class="cls-24" d="M5,7.7C4.55,6.86,5.24,6,5,5.16a.92.92,0,0,1,.44-.64c.39-.23.72-.59,1.23-.48.16.19.08.37,0,.55-.19.34-.75.44-.63,1a.87.87,0,0,1,0,.28,1,1,0,0,0-.13.93l0,.14a1.62,1.62,0,0,1,0,.31.72.72,0,0,1-.27.56A.55.55,0,0,1,5,7.7Z" transform="translate(24.5 8.5)"/><path class="cls-25" d="M6.52,4.53l.21-.4a2.3,2.3,0,0,1,2.36.17,3.73,3.73,0,0,1,.78.48L10.27,6a.39.39,0,0,1-.27.1c-.62-.12-.93-.65-1.36-1s-.7-.23-1.07-.25S6.79,4.89,6.52,4.53Z" transform="translate(24.5 8.5)"/><path class="cls-11" d="M9.87,4.78c-1-.41-2-1-3.14-.65l-1.26.39c.65-.91,1.6-.84,2.54-.78a5.66,5.66,0,0,1,.82.16c.18-.1,0-.55.42-.42C9.12,4.07,9.49,4.43,9.87,4.78Z" transform="translate(24.5 8.5)"/><path class="cls-26" d="M10.48,7.05v.43a.57.57,0,0,1-.23.15,2.31,2.31,0,0,1-.83,0,.81.81,0,0,1-.27-.11A.8.8,0,0,1,8.86,7,.65.65,0,0,1,9,6.6a.76.76,0,0,1,.26-.16,1,1,0,0,1,.59,0A2.15,2.15,0,0,1,10.48,7.05Z" transform="translate(24.5 8.5)"/><path class="cls-27" d="M9.25,3.48l-.42.42c0-.59-.82-.35-.94-.92C8.52,2.68,8.93,2.94,9.25,3.48Z" transform="translate(24.5 8.5)"/><path class="cls-28" d="M10.48,7.05c-.3,0-.57,0-.6-.42s0-.46.2-.62h.19A1,1,0,0,1,10.48,7.05Z" transform="translate(24.5 8.5)"/><path class="cls-29" d="M10.28,7.49h.21a.34.34,0,0,1,.06.15c0,.37,0,.74-.05,1.11h-.21c-.32.07-.34-.17-.39-.38A1,1,0,0,1,10.28,7.49Z" transform="translate(24.5 8.5)"/><path class="cls-30" d="M10.12,12.53H9.51l.15-.43.61,0C10.29,12.29,10.3,12.44,10.12,12.53Z" transform="translate(24.5 8.5)"/><path class="cls-31" d="M8,10c.29.09.58.17.86.28s.53.25.18.57c-.37-.09-.68.15-1,.2l-.4,0c-.31-.07-.47.22-.73.28a.51.51,0,0,1-.47-.64.89.89,0,0,1,.52-.52c.23-.08.42-.24.66-.3A.48.48,0,0,1,8,10Z" transform="translate(24.5 8.5)"/><path class="cls-32" d="M6.51,10.63a.57.57,0,0,0,.46.6.41.41,0,0,1,.24-.08.81.81,0,0,1,.56.31v.44a2.25,2.25,0,0,1-1.9-.85l0-.14C6.05,10.68,6.21,10.51,6.51,10.63Z" transform="translate(24.5 8.5)"/><path class="cls-33" d="M10.09,8.94v.42c.14.55.2,1-.63.85-.38-.16-.71-.35-.63-.85-.06,0-.09-.08-.08-.14s0-.08,0-.08a.46.46,0,0,1,.38,0c.18.08.3,0,.42-.13S9.9,8.83,10.09,8.94Z" transform="translate(24.5 8.5)"/><path class="cls-34" d="M8,10h-.4a.55.55,0,0,1-.23-.39,1.2,1.2,0,0,1,0-.46c.11-.29.2-.6.54-.72a.65.65,0,0,1,.31.05.53.53,0,0,1,.18.69A.81.81,0,0,0,8,10Z" transform="translate(24.5 8.5)"/><path class="cls-35" d="M7.77,11.46c-.23,0-.47,0-.62-.21,0-.23,0-.5.4-.42H8c.3-.2.49-.06.63.21C8.5,11.52,8.05,11.31,7.77,11.46Z" transform="translate(24.5 8.5)"/><path class="cls-36" d="M9.46,10.21c.53,0,.64-.4.63-.85.32.31.18.7.2,1.05-.29.08-.41.54-.72.43S9.49,10.43,9.46,10.21Z" transform="translate(24.5 8.5)"/><path class="cls-37" d="M8.41,9.15,8.2,8.52c0-.36.22-.32.45-.27.29.26.44.54.21.91l0,.2Z" transform="translate(24.5 8.5)"/><path class="cls-38" d="M8.62,11.05,8,10.84a.71.71,0,0,1,1,0Z" transform="translate(24.5 8.5)"/><path class="cls-32" d="M5.46,9.16v-1c-.14-.41.19-.26.36-.3s.51-.19.78-.21a1.33,1.33,0,0,1,.45.07.84.84,0,0,1,.51.76,4.86,4.86,0,0,1-.27.92.79.79,0,0,1-.49.35c-.18,0-.45,0-.45-.16,0-.38-.07-.42-.3-.1A.45.45,0,0,1,5.46,9.16Z" transform="translate(24.5 8.5)"/><path class="cls-39" d="M5.89,8.1c-.15,0-.32-.21-.43.05C5,8.43,5.1,9,5,9.37c0,0-.07,0-.08,0a1.07,1.07,0,0,1-.07-.19c.08-.35.16-.7.23-1.06V7.7l.64,0a.23.23,0,0,1,.27,0A.33.33,0,0,1,5.89,8.1Z" transform="translate(24.5 8.5)"/><path class="cls-32" d="M5.88,11.05H5.69a1.7,1.7,0,0,1-.23-1c-.18-.35-.07-.51.31-.52A.31.31,0,0,1,6,9.69c0,.45.18.92-.11,1.36Z" transform="translate(24.5 8.5)"/><path class="cls-40" d="M5.9,9.59a.4.4,0,0,0-.44.41.54.54,0,0,1,0-.84l.63.21C6.15,9.55,6.07,9.61,5.9,9.59Z" transform="translate(24.5 8.5)"/><path class="cls-41" d="M10.09,8.94l-.42.23a.21.21,0,0,1-.27,0,.87.87,0,0,1,.37-1.08c.18,0,.26.13.32.27l.21.42Z" transform="translate(24.5 8.5)"/><path class="cls-42" d="M10.08,6l-.2.62H9.25A3.27,3.27,0,0,1,8.71,6a1.48,1.48,0,0,0-2.12-.44.72.72,0,0,1-.71,0c-.48-.76.29-.78.64-1H7.77c.32.24.84-.07,1.06.41Z" transform="translate(24.5 8.5)"/><path class="cls-43" d="M9.07,6.64l0,.48c-.41.2-.64.74-1.21.65A6.52,6.52,0,0,1,5.69,7a1.34,1.34,0,0,1,0-.2.92.92,0,0,1,.69-.47c.88,0,1.79-.61,2.63.11A1.11,1.11,0,0,1,9.07,6.64Z" transform="translate(24.5 8.5)"/><path class="cls-44" d="M5.69,7c.84-.24,1.48.56,2.3.44a.34.34,0,0,1,.08.38A.48.48,0,0,1,7.85,8c-.32.07-.57-.26-.9-.13H6.5c-.17-.19-.44,0-.61-.17l-.22-.06Z" transform="translate(24.5 8.5)"/><path class="cls-45" d="M6.29,6.63l-.61.21h0c-.2-.41.16-.71.22-1.06a1.48,1.48,0,0,0,0-.21l.62-.22.13.11A.87.87,0,0,1,6.29,6.63Z" transform="translate(24.5 8.5)"/><path class="cls-42" d="M5.87,5.79c.32.43-.24.68-.22,1.06C5.32,6.41,5.45,6.07,5.87,5.79Z" transform="translate(24.5 8.5)"/><path class="cls-46" d="M8.83,4.94,7.77,4.53C8.15,4.6,8.67,4.31,8.83,4.94Z" transform="translate(24.5 8.5)"/><path class="cls-47" d="M6.5,5.36A1.72,1.72,0,0,1,9.25,6.63H9a23.31,23.31,0,0,0-2.5-1.25Z" transform="translate(24.5 8.5)"/><path class="cls-48" d="M7.8,7.9H8c.37-.31.72-.68,1.28-.4l.22,0a.4.4,0,0,1,.07.28c-.2.38-.46.66-1,.53a.42.42,0,0,0-.42.2H8c-.17-.08-.32-.18-.33-.4A.37.37,0,0,1,7.8,7.9Z" transform="translate(24.5 8.5)"/><path class="cls-49" d="M9.28,7.49,8,7.89c0-.14,0-.28,0-.41.38,0,.52-.79,1.06-.36Z" transform="translate(24.5 8.5)"/><path class="cls-50" d="M9.53,7.73l0-.22c.26,0,.52-.26.78,0a1.27,1.27,0,0,1-.19.83l-.22-.21C9.7,8,9.55,7.94,9.53,7.73Z" transform="translate(24.5 8.5)"/><path class="cls-51" d="M5.89,11.05c0-.42-.46-.84,0-1.26.41-.06.82.06,1.23,0a.4.4,0,0,1,0,.65l-.61.23Z" transform="translate(24.5 8.5)"/><path class="cls-10" d="M7.12,10.4c0-.23,0-.46-.19-.6-.19,0-.25,0-.22-.22l.4-.22c.24-.17.32,0,.42.18s0,.3,0,.44A.65.65,0,0,1,7.12,10.4Z" transform="translate(24.5 8.5)"/><path class="cls-52" d="M7.55,10.83l-.4.42-.18,0C7,10.79,7,10.44,7.55,10.83Z" transform="translate(24.5 8.5)"/><path class="cls-53" d="M9.53,7.73l.34.38c-.32.27-.15.74-.41,1,0,.4-.18.34-.42.22l-.18-.21-.24-.84C8.93,8.13,9.23,7.93,9.53,7.73Z" transform="translate(24.5 8.5)"/><path class="cls-54" d="M9,9.37l.42-.22.21,0c0,.22,0,.5-.27.56S9.08,9.57,9,9.37Z" transform="translate(24.5 8.5)"/><path class="cls-55" d="M7.53,9.54l-.42-.18.27-.87a.25.25,0,0,1,.27.08c0,.2.08.41-.09.59Z" transform="translate(24.5 8.5)"/><path class="cls-56" d="M7.56,9.16l0-.68c-.08-.24-.09-.42.25-.37L8,8.52Z" transform="translate(24.5 8.5)"/><path class="cls-57" d="M6.71,9.58l.22.22c-.36.7-.7.15-1,0a1.27,1.27,0,0,1,0-.2c.06-.07.12-.15.19-.22s.08-.28,0-.37c-.2-.37,0-.44.29-.43s.3.2.27.44S6.15,9.43,6.71,9.58Z" transform="translate(24.5 8.5)"/><path class="cls-58" d="M7.78,8.11c-.19.05-.24.2-.25.37H7.38c0-.31-.19-.47-.43-.61.29-.32.57-.21.85,0A1.49,1.49,0,0,0,7.78,8.11Z" transform="translate(24.5 8.5)"/><path class="cls-59" d="M5.89,7.72c.23,0,.47-.11.61.17-.26-.09-.33.37-.61.21Z" transform="translate(24.5 8.5)"/><path class="cls-60" d="M6.52,5.38C7.7,5.09,8.35,5.89,9,6.63c-.91-.54-1.82.19-2.73,0A3.38,3.38,0,0,0,6.52,5.38Z" transform="translate(24.5 8.5)"/><circle class="cls-2" cx="7.5" cy="7.5" r="7.5"/><g class="cls-61"><path class="cls-62" d="M-13.75,2.48a2,2,0,0,1,.27.47,4.66,4.66,0,0,0,.54.94,3,3,0,0,1,1.14.39,16.58,16.58,0,0,0,2.4.62A.46.46,0,0,1-9.13,5c0,.45,0,.9,0,1.35,0,.12,0,.14-.14.14h-6.68a.15.15,0,0,1,.07-.19l.51-.49a.66.66,0,0,0,.43-.4,1.38,1.38,0,0,1,.14-.24.71.71,0,0,0,.17-.46.65.65,0,0,1,.06-.24.81.81,0,0,1,.1-.21,1.85,1.85,0,0,0,.21-.33A3.42,3.42,0,0,1-14,3.52a1,1,0,0,0,.08-.75,1.08,1.08,0,0,1,0-.19C-13.89,2.49-13.85,2.43-13.75,2.48Z" transform="translate(24.5 8.5)"/><path class="cls-63" d="M-24.46,6a8.14,8.14,0,0,0,1.35-.51c.05,0,.09,0,.14,0a2.08,2.08,0,0,0,.88-.19c.23-.07.41-.22.63-.3s.68-.22,1-.37a1.51,1.51,0,0,0,.58-.35,2.2,2.2,0,0,0,.3-.64c.08-.14.17-.14.28,0s.22.14.33.22l0,0c.11.19.11.43.28.58s.07.07.09.11a1,1,0,0,1,.16.54.61.61,0,0,0,.37.58c.09.06.17.15.26.21s.26.25.4.37.2.13.2.28h-7.13c-.15,0-.2,0-.18-.19A1.48,1.48,0,0,0-24.46,6Z" transform="translate(24.5 8.5)"/><path class="cls-64" d="M-17.4,6.26a3.51,3.51,0,0,1-.4-.36A3.38,3.38,0,0,0-18,5.49c-.05-.07-.12-.14-.05-.24s.24.15.31.26a1.75,1.75,0,0,0,.94.73,1.87,1.87,0,0,0,.22.07c.15,0,.3,0,.38-.15s.34-.22.52-.29a.6.6,0,0,0,.4-.42,6.43,6.43,0,0,1,.56-.9c.08-.1.14-.23.28-.28l.06,0-.09.19c-.11.15-.16.32-.28.46s-.19.37-.3.55a1.55,1.55,0,0,1-.26.37c-.15.26-.43.39-.6.64h-.57a2.44,2.44,0,0,0-.54-.09A1,1,0,0,1-17.4,6.26Z" transform="translate(24.5 8.5)"/><path class="cls-65" d="M-17.4,6.26c.24,0,.49.11.74.15.06,0,.11,0,.14.09h-.64Z" transform="translate(24.5 8.5)"/><path class="cls-63" d="M-20.56-1c.06-.07,0-.14,0-.21s-.09-.23-.15-.34A7.06,7.06,0,0,1-21-2.62a3.9,3.9,0,0,1-.1-1.7A1.84,1.84,0,0,1-21-4.57c.07-.16.25-.28.12-.5a.2.2,0,0,1,.05-.18c.27-.12.16-.48.38-.6A.75.75,0,0,0-20-6.49c0-.1.08-.11.16-.09s.15,0,.11,0,0-.25.11-.33c.26-.29.52-.63.95-.58s.6-.1.9,0c.1,0,.25,0,.37,0s.49.1.75.11a1.68,1.68,0,0,1,.68.24c.25.13.52.21.76.35a4.65,4.65,0,0,1,.78.56,4.13,4.13,0,0,1,1.21,1.73,1.23,1.23,0,0,1,0,1c-.06.13,0,.26.06.39a2.09,2.09,0,0,1-.11,1.08.41.41,0,0,0,0,.16c0,.13-.09.17-.16.19s-.36.13-.4.35c0,0-.05,0-.08.07a.14.14,0,0,1-.14,0,.2.2,0,0,1,0-.22.18.18,0,0,0,0-.16s-.1-.06-.14,0,0,.06,0,.1a.63.63,0,0,1-.06.33s-.06.08-.12.08-.13-.27-.27-.34a1.7,1.7,0,0,0-1.07,0c-.18,0-.34.13-.51.17s-.4.16-.44.41a.34.34,0,0,0,0,.14,2.12,2.12,0,0,0,.5,1,.18.18,0,0,1,.09.14.1.1,0,0,1-.08.08c-.16,0-.23-.12-.33-.2a2.16,2.16,0,0,1-.34-.51A2.4,2.4,0,0,0-17-.58c0-.05-.05-.12-.12-.12s-.08.08-.1.13,0,.11-.05.17a1,1,0,0,0-.08.25,3.07,3.07,0,0,1-.17.42.88.88,0,0,1-.72.54c-.05,0-.1,0-.15,0a1.68,1.68,0,0,1-.67,0,1.2,1.2,0,0,1-.45-.15A.88.88,0,0,1-19.74.5,1.65,1.65,0,0,1-20-.1c-.08-.15-.1-.33-.23-.45s-.17,0-.24-.1S-20.67-.84-20.56-1Z" transform="translate(24.5 8.5)"/><path class="cls-66" d="M-20.21-.62c.16.13.17.32.24.49a10.93,10.93,0,0,0,.13,1.27,1.11,1.11,0,0,1,0,.48.94.94,0,0,0,.22.77c.08.11.12.23.2.34s0,0,0,.07a.18.18,0,0,1-.08.13.08.08,0,0,1-.1,0A3.21,3.21,0,0,1-20,2.2l0,0a5.24,5.24,0,0,1-.17-.62A7.12,7.12,0,0,1-20.42.1a4.87,4.87,0,0,1,0-.54C-20.43-.6-20.37-.67-20.21-.62Z" transform="translate(24.5 8.5)"/><path class="cls-67" d="M-20.56-1a.37.37,0,0,0,.11.28c0,.08.07.16,0,.24s-.07,0-.11,0a2,2,0,0,0,0,1s0,.1.07,0,.1.06.09.12a.88.88,0,0,0,.08.42c0,.1.07.22-.07.29l-.05,0c0-.12-.11-.19-.16-.29A2.85,2.85,0,0,1-21-.13a2.15,2.15,0,0,1,0-.62C-21-1-20.86-1.17-20.56-1Z" transform="translate(24.5 8.5)"/><path class="cls-68" d="M-13.95-1.38c.12-.07.06-.21.1-.31s0-.07.07-.05,0,.05,0,.11c.06-.1.09-.21.25-.14s.15-.09.21-.16h.08s.17-.07.16.09-.15.07-.22.12a.45.45,0,0,0-.22.59s0,.08,0,.12a.27.27,0,0,1,0,.15,3.76,3.76,0,0,1,0,.75c0,.21.07.42,0,.63a.13.13,0,0,1-.07.09c-.12,0-.07-.17-.15-.21a1.36,1.36,0,0,1-.11-.66,5.34,5.34,0,0,0,0-.69A.9.9,0,0,0-13.95-1.38Z" transform="translate(24.5 8.5)"/><path class="cls-69" d="M-20.48-.44a.72.72,0,0,0,0-.25c.07.08.18,0,.24.07-.12,0-.16.05-.16.17a10.77,10.77,0,0,0,.1,1.13A9.39,9.39,0,0,0-20,2.16a.73.73,0,0,1-.17-.49.23.23,0,0,0-.19-.26.34.34,0,0,0,0-.34c-.08-.13-.13-.23,0-.37s0-.1-.06-.11S-20.6.32-20.6.18A1,1,0,0,1-20.48-.44Z" transform="translate(24.5 8.5)"/><path class="cls-70" d="M-19.36,3.36c0-.12-.22-.19-.13-.35l0,0a.17.17,0,0,1,.18.09.61.61,0,0,0,.29.21c.09.08.17.17.31.14a.39.39,0,0,1,.32.13.17.17,0,0,0,.13,0c.21,0,.37.14.58.15s.16.09.16.21-.1.14-.18.09a2.31,2.31,0,0,0-.88-.24.52.52,0,0,1-.26-.12.65.65,0,0,0-.44-.18C-19.33,3.49-19.38,3.45-19.36,3.36Z" transform="translate(24.5 8.5)"/><path class="cls-71" d="M-19.36,3.36l.11.13a.15.15,0,0,1,.11.08c.06.09.24.11.18.28a1.18,1.18,0,0,1-.37-.24.15.15,0,0,0-.24,0c0-.09.11-.15.07-.26S-19.5,3.29-19.36,3.36Z" transform="translate(24.5 8.5)"/><path class="cls-70" d="M-20,2.2c.14.26.32.48.48.72a0,0,0,0,1,0,.07V3a.44.44,0,0,1-.27-.28A1.28,1.28,0,0,1-20,2.2Z" transform="translate(24.5 8.5)"/><path class="cls-72" d="M-20.57,1.07c.11.06.27.09.16.29A.27.27,0,0,1-20.57,1.07Z" transform="translate(24.5 8.5)"/><path class="cls-73" d="M-19,3.85c0-.15-.19-.14-.24-.25s.16-.11.24,0a.14.14,0,0,0,.16,0c.1,0,.14.12.24.12s.13.08.22.06a.72.72,0,0,1,.47.16,1.2,1.2,0,0,0,.31.13h0c.28.27.64.1,1,.19s.37-.15.51-.3A.16.16,0,0,1-16,4a4.56,4.56,0,0,0,.52-.18.66.66,0,0,1,.5,0c.06,0,.13.06.18,0s.33-.28.34-.53a6.64,6.64,0,0,0,.66-1.08.11.11,0,0,1,.06-.07l.07-.17c.06.2-.06.38-.07.57-.19,0-.09.22-.12.33a1.45,1.45,0,0,1-.35.67,3.62,3.62,0,0,1-.91.88,2.78,2.78,0,0,0-.27.21.94.94,0,0,1-.55.23c-.19,0-.35.11-.53.15a1.67,1.67,0,0,1-.63,0l-.44,0-.09,0s0,0-.05,0a.81.81,0,0,0-.22-.07c-.06,0-.13,0-.14-.14s.16-.06.25-.05.24.08.36,0,.09,0,.13,0a.46.46,0,0,0,.48,0s.06,0,0-.08,0,0-.08,0-.35,0-.52,0-.12,0-.16-.08a.53.53,0,0,0-.35-.19A.2.2,0,0,1-18,4.23.85.85,0,0,0-18.64,4a.8.8,0,0,1-.32-.1Z" transform="translate(24.5 8.5)"/><path class="cls-74" d="M-13.95-1.38c.12,0,.17,0,.2.17a9.58,9.58,0,0,1,.12,1.6h0a4.72,4.72,0,0,0,0,.92.53.53,0,0,1,0,.22c0,.13-.1.17-.21.08s0-.06,0-.09c0-.66-.15-1.31-.2-2a.78.78,0,0,1,0-.22c0-.15,0-.32-.09-.44l0,0c0-.12,0-.21.16-.19Z" transform="translate(24.5 8.5)"/><path class="cls-75" d="M-13.54-1c0-.07,0-.15,0-.22a.48.48,0,0,1,.52-.62.76.76,0,0,1,.25.57A2.26,2.26,0,0,1-13,.19c-.19,0-.07-.17-.06-.27a1.34,1.34,0,0,0,.14-1c0-.16,0-.32-.07-.45A2.82,2.82,0,0,1-12.94-.4c0,.08,0,.16-.11.2s-.12-.2-.11-.32c0-.29-.14-.52-.15-.81C-13.48-1.26-13.27-1-13.54-1Z" transform="translate(24.5 8.5)"/><path class="cls-76" d="M-13.9,1.6c.27,0,.07-.21.17-.27-.14-.22,0-.44,0-.65a.43.43,0,0,1,.05-.29l0,.53a.05.05,0,0,1,0,.08,1.71,1.71,0,0,1-.13.8.28.28,0,0,0-.05.2.76.76,0,0,1-.17.46.08.08,0,0,1-.11,0c-.07-.09,0-.2,0-.3A2.28,2.28,0,0,0-14,1.73.15.15,0,0,1-13.9,1.6Z" transform="translate(24.5 8.5)"/><path class="cls-77" d="M-14.07,2.48A.65.65,0,0,0-13.86,2c0-.1,0-.13.11-.16v.28a1.29,1.29,0,0,1-.28.59c-.11.09-.11.26-.21.38a.69.69,0,0,1-.19.19s0,0,0,.08-.14.11-.21,0,.06-.13.07-.2.16-.15.18-.26a.18.18,0,0,1,.07-.05c.14,0,.14-.16.18-.26A.18.18,0,0,1-14.07,2.48Z" transform="translate(24.5 8.5)"/><path class="cls-78" d="M-13,0c0,.08-.12.16,0,.24l0,.08a.23.23,0,0,0-.18.13.28.28,0,0,1-.17.13h-.05a2.37,2.37,0,0,1,0-.65.09.09,0,0,1,.11,0c.07,0,.09.11.14.17s0,.09,0,.05S-13.13-.08-13,0Z" transform="translate(24.5 8.5)"/><path class="cls-79" d="M-13.46.52h0a.35.35,0,0,0,.2-.15c.06-.07.06-.06.13,0a.41.41,0,0,1-.11.25c-.09.09-.18.11-.27,0Z" transform="translate(24.5 8.5)"/><path class="cls-80" d="M-13.1.36c-.09,0-.1,0-.15.08s-.09.12-.18.07A1.24,1.24,0,0,0-13.25.3c0-.08.11-.09.19,0Z" transform="translate(24.5 8.5)"/><path class="cls-68" d="M-13.62,1V.92l.11-.19a.33.33,0,0,1,0,.32S-13.59,1-13.62,1Z" transform="translate(24.5 8.5)"/><path class="cls-81" d="M-16.48,4.89a6.18,6.18,0,0,1,.84-.24.4.4,0,0,0,.17-.09,13.31,13.31,0,0,0,1.06-.93,1.33,1.33,0,0,0,.14-.19c.25,0,.28,0,.29.13s-.12.29-.24.4h0a.79.79,0,0,0-.29.18c-.34.28-.75.45-1.11.7-.07,0-.16,0-.24.06a.42.42,0,0,0-.33,0A.18.18,0,0,1-16.48,4.89Z" transform="translate(24.5 8.5)"/><path class="cls-82" d="M-15.35,5.86c0-.14.1-.21.16-.31s.24-.44.36-.66c.14.08.09.21.08.32l-.18.35A.49.49,0,0,1-15.35,5.86Z" transform="translate(24.5 8.5)"/><path class="cls-83" d="M-14,3.57c0-.08-.07-.14-.17-.08s-.08,0-.12-.05a5.16,5.16,0,0,0,.4-.63A1,1,0,0,1-14,3.57Z" transform="translate(24.5 8.5)"/><path class="cls-84" d="M-14.75,5.21l-.08-.32a1.57,1.57,0,0,1,.32-.41C-14.58,4.73-14.53,5-14.75,5.21Z" transform="translate(24.5 8.5)"/><path class="cls-81" d="M-14.42,4.29h-.05c0-.17,0-.24.23-.33h0A1,1,0,0,1-14.42,4.29Z" transform="translate(24.5 8.5)"/><path class="cls-71" d="M-19,3.85c.33,0,.71,0,.95.33a.13.13,0,0,0,.14.06.28.28,0,0,1,.28.11.81.81,0,0,0,.78.13c.07,0,.11,0,.12,0a.21.21,0,0,1-.08.25,1,1,0,0,1-.55,0c-.11,0,0-.11-.07-.17-.13.28-.32.07-.48.07a.91.91,0,0,0-.17,0,.12.12,0,0,1-.08,0c-.08,0-.12-.05-.16-.11a1,1,0,0,0-.4-.17C-18.89,4.31-18.89,4.06-19,3.85Z" transform="translate(24.5 8.5)"/><path class="cls-85" d="M-18,5.7a.73.73,0,0,1-.42-.77c0-.17-.12-.26-.15-.4.15,0,.21.06.25.16a.52.52,0,0,0,.12.17.65.65,0,0,1,.09.23.43.43,0,0,0,.06.37C-18,5.53-18,5.6-18,5.7Z" transform="translate(24.5 8.5)"/><path class="cls-86" d="M-18,5.7c0-.09-.08-.14-.12-.2a.43.43,0,0,1,0-.41c.12,0,.13.07.12.16s.22.27.26.46a.4.4,0,0,1,0,.19Z" transform="translate(24.5 8.5)"/><path class="cls-87" d="M-18.28,4.89c-.15-.08-.14-.31-.33-.36l-.07-.08a.41.41,0,0,1,.44.12C-18.28,4.67-18.13,4.8-18.28,4.89Z" transform="translate(24.5 8.5)"/><path class="cls-88" d="M-14.24,4a.71.71,0,0,0-.23.33l-.24.28a4.86,4.86,0,0,0-.42.59.14.14,0,0,1-.11.07l0,0c-.06-.11.06-.2,0-.32a1.43,1.43,0,0,0-.42.1c-.12,0-.23.08-.34,0s.08-.07.13-.09.3-.18.46-.26a9.35,9.35,0,0,0,1-.63C-14.36,4-14.31,3.89-14.24,4Z" transform="translate(24.5 8.5)"/><path class="cls-89" d="M-18.28,4.89c.07-.1-.1-.23,0-.32s0,.12.12.12.07.06,0,.11,0,.11,0,.16a3.58,3.58,0,0,0,.72.92l0,0a1.49,1.49,0,0,0,.55.27.28.28,0,0,0,.3-.06,1.35,1.35,0,0,1,.73-.37.45.45,0,0,0,.24-.16l.05-.06c.06,0,.09-.11.17-.08a.73.73,0,0,1-.41.48c-.2.07-.46.06-.55.36s-.26.1-.4.07a1.85,1.85,0,0,1-1.13-.69c-.11-.13-.2-.29-.32-.42s0-.13-.12-.16Z" transform="translate(24.5 8.5)"/><path class="cls-90" d="M-15.27,5.45l-.12.12a.13.13,0,0,1,0-.11.3.3,0,0,1,.21-.25,4.81,4.81,0,0,1,.4-.52s.06-.1.12-.12C-14.89,4.87-15.08,5.16-15.27,5.45Z" transform="translate(24.5 8.5)"/><path class="cls-91" d="M-19.5.68c.12.1.29.09.42.15a.38.38,0,0,1,.24.19.35.35,0,0,0,.21.18s.08,0,.09.06.07.17.19.09A.27.27,0,0,0-18.23,1c-.05-.07-.13-.12-.14-.21l.13,0c.17.05.24.2.33.33s.1.24.11.38-.06.24-.23.25a1.57,1.57,0,0,0-.51.15c-.06,0-.08.08-.1.14a1.19,1.19,0,0,1-.3.44c-.18.17-.26.16-.38,0a.35.35,0,0,1-.05-.08c-.12-.34-.17-.69-.28-1A.18.18,0,0,1-19.44,1a.46.46,0,0,0-.11-.27C-19.59.72-19.58.71-19.5.68Z" transform="translate(24.5 8.5)"/><path class="cls-92" d="M-14.91-4.74l.32.32a.41.41,0,0,1,.13.34,1.26,1.26,0,0,0,.14.57.2.2,0,0,1,0,.2c-.07.05-.12,0-.17,0A1.23,1.23,0,0,1-14.73-4a.46.46,0,0,0-.41-.46.63.63,0,0,1-.41-.23.67.67,0,0,0-.62-.23.63.63,0,0,1-.54-.23.41.41,0,0,0-.43-.15,4.38,4.38,0,0,1-.51,0,4.7,4.7,0,0,0-.53,0,2.7,2.7,0,0,0-.77.31.68.68,0,0,1-.36.15c-.06,0-.09,0-.13.09a3.62,3.62,0,0,1-.42.53.2.2,0,0,0-.06.12.67.67,0,0,1-.06.28A1.35,1.35,0,0,0-20-3a.37.37,0,0,1-.06.32c0,.05-.07.11-.14,0a4.75,4.75,0,0,1,0-1.25c0-.11.08-.22.1-.34l0-.11a1.13,1.13,0,0,1,.7-.73.34.34,0,0,0,.32-.18A2.6,2.6,0,0,1-18-5.5c.36,0,.71-.1,1.07-.06a1.87,1.87,0,0,1,.48.11,3.51,3.51,0,0,1,.92.43A1.36,1.36,0,0,0-14.91-4.74Z" transform="translate(24.5 8.5)"/><path class="cls-93" d="M-19.5.68h0c.16.07.14.23.18.36s.09.11,0,.15-.09,0-.12-.07l-.07-.08c-.16.16-.05.31,0,.44s.11.53.2.79.2.36.35.5a0,0,0,0,0,0,0c0-.07,0-.16.07-.19s.15,0,.2.1A1.1,1.1,0,0,0-18,3a.47.47,0,0,1,.31.33c0,.06,0,.14.11.15l.05,0,0,.05a.17.17,0,0,1,0,.12l0,0a.43.43,0,0,1-.27-.08c-.06-.07-.1-.13-.21-.11s-.19-.07-.28-.13-.26-.2-.44-.12A1.6,1.6,0,0,0-19,3.2a.6.6,0,0,1-.47-.4v0a6.73,6.73,0,0,1-.39-1.71,1.38,1.38,0,0,1,.06-.49.07.07,0,0,1,.09-.08Z" transform="translate(24.5 8.5)"/><path class="cls-94" d="M-15.79-6.78l-.05,0c-.1,0-.21,0-.2.14s.12.09.21.1.28.17.34.32-.14.24-.3.17-.37-.07-.52-.21a.33.33,0,0,0-.26-.08.43.43,0,0,1-.24-.08c-.13-.07-.11-.18-.11-.29s0-.08,0-.07.22,0,.28.13a.09.09,0,0,0,.1,0c.05-.06-.1-.16,0-.22a.67.67,0,0,1,.24,0C-16.1-6.84-15.93-7-15.79-6.78Z" transform="translate(24.5 8.5)"/><path class="cls-95" d="M-18.48.68a1.3,1.3,0,0,1-.78,0A.63.63,0,0,1-19.7.23a2.34,2.34,0,0,1-.16-.59c.08,0,.11,0,.14.06s.07.28.12.41l0,.09a1.5,1.5,0,0,1,0-.37c0-.13.1-.17.21-.17h.3l.05,0c-.05.21.05.3.24.37s.19.19.12.35.05.08.1.11S-18.39.54-18.48.68Z" transform="translate(24.5 8.5)"/><path class="cls-96" d="M-18.48.68a.13.13,0,0,0-.15-.09.15.15,0,0,1-.19-.13c0-.11.09-.09.15-.13A.42.42,0,0,0-19,.05c-.24,0-.19-.12-.08-.25A.73.73,0,0,0-19-.29a.08.08,0,0,1,0-.07.29.29,0,0,1,.36-.11c.18.09.47,0,.49.34a1.12,1.12,0,0,1,0,.41c0,.14-.12.22-.15.35Z" transform="translate(24.5 8.5)"/><path class="cls-97" d="M-14.91-4.74c-.31.13-.5-.11-.7-.26a1.48,1.48,0,0,0-.33-.17,4.53,4.53,0,0,0-.8-.3,1.55,1.55,0,0,0-.74,0,.7.7,0,0,1-.35,0A2.86,2.86,0,0,0-19-5.2s0,0-.06,0-.1.09-.17,0a.13.13,0,0,1,0-.06c.08-.2.29-.19.44-.24a3.67,3.67,0,0,1,.67-.18,7.24,7.24,0,0,1,1.14,0,2.85,2.85,0,0,1,.95.21A4.63,4.63,0,0,1-14.91-4.74Z" transform="translate(24.5 8.5)"/><path class="cls-98" d="M-16.83-.37l.31.49c.09.25.28.33.59.25.08,0,.17,0,.22.07a.08.08,0,0,1,0,.08c-.09.1,0,.25-.11.35a1.29,1.29,0,0,1-.25.2c-.14.09-.15.16,0,.29s.11.14.09.23-.21.07-.32,0a1,1,0,0,0-.2-.21.42.42,0,0,1-.15-.3l0-.05.26-.1c.09,0,.17-.06.16-.17s-.09-.14-.18-.14h-.08A.49.49,0,0,1-17,0C-17-.12-17-.28-16.83-.37Z" transform="translate(24.5 8.5)"/><path class="cls-99" d="M-19.69.48a2.14,2.14,0,0,0,0,.91,2.77,2.77,0,0,1,.14.86c0,.19.18.32.12.51-.14-.25-.4-.42-.43-.74a.17.17,0,0,0-.07-.16.08.08,0,0,1,0-.1c.19-.31.06-.6,0-.91a2.49,2.49,0,0,1,0-1A4.78,4.78,0,0,0-19.69.48Z" transform="translate(24.5 8.5)"/><path class="cls-100" d="M-18.29.63c-.05-.05-.08-.1,0-.16s.1-.08.1-.15a2.12,2.12,0,0,0,.14-.4c.08-.21,0-.33-.22-.38a1.26,1.26,0,0,1-.29-.12c-.07,0-.12-.08-.09-.16a.72.72,0,0,1,.77.08c.11.08.18.06.21-.07s0-.15.08-.19l0,0A1.29,1.29,0,0,1-18.29.63Z" transform="translate(24.5 8.5)"/><path class="cls-101" d="M-16.83-.37a.93.93,0,0,0,0,.75c.08.13.21.14.33.17s-.06.13-.07.2a.05.05,0,0,1,0,.05l-.05,0c-.07,0-.15.07-.23,0a.19.19,0,0,1,0-.08.33.33,0,0,0,0-.17.17.17,0,0,0-.28-.07c-.08.06-.11.17-.2.22s-.09-.17-.05-.26.08-.19.12-.29.05-.11,0-.15-.06-.3,0-.45a1.38,1.38,0,0,1,.08-.29.15.15,0,0,1,.13-.11.15.15,0,0,1,.14.1Z" transform="translate(24.5 8.5)"/><path class="cls-102" d="M-16.84.83c.08,0,.1-.19.2,0s.17,0,.21.09-.19.1-.24.19h0a.27.27,0,0,1-.36.28c-.13-.06-.25,0-.37,0s-.11,0-.13.1a.18.18,0,0,1-.19.15s-.06,0-.06-.05a2,2,0,0,0-.1-.41c.06-.07.12,0,.19,0a.23.23,0,0,0,.24,0c.16-.1.32,0,.48,0s0,0,0,0,0,0,0,0-.27,0-.37-.12-.11-.09-.16-.14-.2-.13-.24-.24c.28-.19.28-.5.37-.78a.66.66,0,0,1,.07-.25,2.59,2.59,0,0,0,.14.45c.07.12-.09.29-.15.43s-.09.16,0,.26a.08.08,0,0,1,.08,0A.5.5,0,0,0-16.84.83Z" transform="translate(24.5 8.5)"/><path class="cls-103" d="M-18.37.79c.13,0,.18.16.27.25s0,0,0,.05-.3.39-.39.39-.1,0-.11,0c-.05-.24-.37-.26-.41-.52,0-.08-.13,0-.2-.05s.07,0,.1,0A5.63,5.63,0,0,0-18.37.79Z" transform="translate(24.5 8.5)"/><path class="cls-104" d="M-16-5.43c-.16,0-.29-.06-.43-.09-.3-.06-.61-.05-.92-.08A3.67,3.67,0,0,0-19-5.29a.4.4,0,0,0-.22.14s-.05.08-.1.09a.86.86,0,0,0-.41.24s-.09.1-.17.08a1.57,1.57,0,0,1,.78-.64A5.35,5.35,0,0,1-17-5.7a3.36,3.36,0,0,1,.88.18A.87.87,0,0,1-16-5.43Z" transform="translate(24.5 8.5)"/><path class="cls-105" d="M-14.31-3.3a1.33,1.33,0,0,0-.09-.21c-.2-.28-.08-.62-.19-.91a.38.38,0,0,1,.2.3,2.45,2.45,0,0,0,.26.68,2.56,2.56,0,0,1,.32,1.28.22.22,0,0,1-.1.18C-14-2-14-2.15-14-2.24A1.17,1.17,0,0,0-14-2.61a1.79,1.79,0,0,0-.19-.45C-14.28-3.13-14.35-3.2-14.31-3.3Z" transform="translate(24.5 8.5)"/><path class="cls-106" d="M-17.8-1.37a7,7,0,0,0-1.12,0c0-.15.11-.23.22-.32a2.06,2.06,0,0,1,.26,0,.31.31,0,0,0,.31,0c.13,0,.24-.15.38-.07a.2.2,0,0,1-.11.28c.12,0,.29,0,.37.15a.08.08,0,0,1-.05.08A1.1,1.1,0,0,1-17.8-1.37Z" transform="translate(24.5 8.5)"/><path class="cls-107" d="M-19.37-1.18a2.36,2.36,0,0,1,1.29,0A.18.18,0,0,1-18-1c-.05.1-.1.19-.24.18a2,2,0,0,0-.35,0c-.05,0-.1,0-.12,0s.11-.11.19-.14.08,0,.1,0,0,0-.06,0-.07-.14-.16-.12-.28-.12-.44,0-.11.1-.09.19,0-.1.06-.14.11-.13.2-.1.06.12,0,.19,0,.07,0,.1.12,0,.12.09-.11.08-.16.12h-.06c-.13,0-.22.16-.36.07a.21.21,0,0,1,0-.06c0-.06,0-.12,0-.18a.89.89,0,0,1,0-.23A.43.43,0,0,1-19.37-1.18Z" transform="translate(24.5 8.5)"/><path class="cls-108" d="M-16.07-1.69l-.6.21c-.11,0-.16-.06-.22-.13a.28.28,0,0,0-.05-.25.19.19,0,0,1,0-.27.94.94,0,0,1,.57-.07s0,0,0,.05-.06.14-.1.21,0,.06,0,0a.36.36,0,0,1,.23,0A.21.21,0,0,1-16.07-1.69Z" transform="translate(24.5 8.5)"/><path class="cls-109" d="M-15.71.47a.51.51,0,0,0-.24,0c-.1,0-.25.07-.29-.12l.09,0A.17.17,0,0,1-16,.22a1.35,1.35,0,0,0,.77,0,.88.88,0,0,0,.61-.34.88.88,0,0,0,.12-.55c0-.19-.08-.4.08-.58l.06-.08c.11.09,0,.2,0,.3s0,.17.08.22l0,.05a.94.94,0,0,1-.06.44c-.05.1-.08.21-.14.31a.88.88,0,0,1-.44.34,1.55,1.55,0,0,1-.67.17A.18.18,0,0,1-15.71.47Z" transform="translate(24.5 8.5)"/><path class="cls-110" d="M-16.32-1.41a3.16,3.16,0,0,1,1.45-.28c.09,0,.19,0,.24.11a.38.38,0,0,1,0,.21c0,.14-.14.22-.21.33A.08.08,0,0,1-15-1a.13.13,0,0,1,0-.1c0-.11.13-.22,0-.33a.3.3,0,0,0-.37,0l-.08,0c-.16,0-.33-.13-.44.07s-.09.05-.13.08-.2.12-.29,0A.3.3,0,0,0-16.32-1.41Z" transform="translate(24.5 8.5)"/><path class="cls-111" d="M-14.67-1.37l0-.21a.61.61,0,0,1,.21.37,4.08,4.08,0,0,1,0,.92A.53.53,0,0,1-14.6,0c-.11,0-.05-.13,0-.19a.31.31,0,0,0-.08-.37c-.12-.11,0-.28-.07-.42S-14.67-1.23-14.67-1.37Z" transform="translate(24.5 8.5)"/><path class="cls-112" d="M-17.4-.17c0,.15,0,.3-.05.45a.41.41,0,0,1-.31.36s0,.09,0,.13a.21.21,0,0,0,.18.29c.06,0,.14,0,.14.09a.18.18,0,0,1-.24,0c-.07,0-.12-.08-.2-.08a.08.08,0,0,1-.08,0,1.75,1.75,0,0,1-.28-.33c.08-.1.22,0,.33-.11A2,2,0,0,0-17.4-.17Z" transform="translate(24.5 8.5)"/><path class="cls-113" d="M-19.81-1.29c-.27.11-.5,0-.56-.2a.31.31,0,0,1,0-.25c.11-.11.11,0,.13.07s0,.17.13.15.09-.11.1-.19c0-.24.14-.32.37-.24s.2.11.11.24a.94.94,0,0,0-.1.23C-19.66-1.38-19.73-1.33-19.81-1.29Z" transform="translate(24.5 8.5)"/><path class="cls-114" d="M-20.41-1.53a1.81,1.81,0,0,1-.06-1c0-.41.12-.82.18-1.23a.15.15,0,0,1,0-.11.33.33,0,0,1,0,.19,6.86,6.86,0,0,0,0,1.11.18.18,0,0,1,0,.1.7.7,0,0,0-.1.4A3.68,3.68,0,0,1-20.41-1.53Z" transform="translate(24.5 8.5)"/><path class="cls-115" d="M-16.07-1.69l-.13-.17c0-.14.13-.13.2-.18a2,2,0,0,1,.54-.11h.12c.09,0,.14,0,.15.13a.13.13,0,0,1-.12.14.33.33,0,0,0-.16.07Z" transform="translate(24.5 8.5)"/><path class="cls-116" d="M-16.32-1.41l.08,0a1,1,0,0,0-.13.23.34.34,0,0,0-.21.4,1.23,1.23,0,0,0,.45.83c0,.05.11.08.14.14a0,0,0,0,1,0,.05h-.16a1.49,1.49,0,0,1-.57-.84C-16.86-1-16.78-1.21-16.32-1.41Z" transform="translate(24.5 8.5)"/><path class="cls-117" d="M-19.64.15a3,3,0,0,1-.14-.39s0-.13-.08-.12a.77.77,0,0,1,0-.37c.07,0,.13,0,.19,0s.26.07.39.1.2-.06.28,0a.11.11,0,0,1,0,.11c-.08.11-.19.1-.3.09s-.25,0-.26.23S-19.51.09-19.64.15Z" transform="translate(24.5 8.5)"/><path class="cls-118" d="M-18.92-.73c0-.05.09,0,.15-.05l-.12-.06a.11.11,0,0,1,.09-.08.11.11,0,0,1,.11.08.83.83,0,0,0,.56,0,.24.24,0,0,0,.05-.34l.28.08c0,.11,0,.21,0,.32s0,.17-.12.21a.82.82,0,0,0-.73-.11A.18.18,0,0,1-18.92-.73Z" transform="translate(24.5 8.5)"/><path class="cls-119" d="M-14.27-.79s-.06.08-.08.08,0-.06,0-.09a3.91,3.91,0,0,1,0-.49l.09-.32c0-.12.17-.07.2-.16.08.15,0,.29,0,.44s-.12.11-.13.19A.28.28,0,0,1-14.27-.79Z" transform="translate(24.5 8.5)"/><path class="cls-120" d="M-14-2.66a1.74,1.74,0,0,1,.08.68,3.06,3.06,0,0,1-1.24.13c0-.16.14-.18.24-.24a1.1,1.1,0,0,0,.67,0c.15,0,.23-.09.2-.26S-14.1-2.56-14-2.66Z" transform="translate(24.5 8.5)"/><path class="cls-121" d="M-17.92-.61a.82.82,0,0,0,0-.35c0-.07,0-.15.08-.18a.7.7,0,0,1,.2.22.85.85,0,0,1,0,.23s0,.15-.05.15S-17.87-.48-17.92-.61Z" transform="translate(24.5 8.5)"/><path class="cls-122" d="M-18.72-1.7a.63.63,0,0,1-.2.28h-.2c-.19,0-.22,0-.24-.23a.2.2,0,0,1,.09-.09.34.34,0,0,1,.12-.06.76.76,0,0,1,.3,0A.24.24,0,0,1-18.72-1.7Z" transform="translate(24.5 8.5)"/><path class="cls-123" d="M-14.91-2c0,.11-.17.11-.24.2a1.17,1.17,0,0,1-.32,0,.2.2,0,0,1,.11-.11s.13,0,.12-.1-.1-.07-.16-.08h-.08a.09.09,0,0,1,.05-.08,1.1,1.1,0,0,1,.18,0,.5.5,0,0,1,.34,0C-14.85-2.15-14.84-2.1-14.91-2Z" transform="translate(24.5 8.5)"/><path class="cls-124" d="M-19.89-4.74a1.23,1.23,0,0,1,.68-.41v0c0,.1-.11.08-.16.12a1.55,1.55,0,0,0-.72.69A.69.69,0,0,1-19.89-4.74Z" transform="translate(24.5 8.5)"/><path class="cls-125" d="M-20.25-2.58a7.27,7.27,0,0,1,0-1.32l.12-.29a6.79,6.79,0,0,0-.08,1.1,1.74,1.74,0,0,1,0,.51A0,0,0,0,1-20.25-2.58Z" transform="translate(24.5 8.5)"/><path class="cls-126" d="M-19.24-1.69l-.08,0c-.15,0-.11.23-.21.31a.66.66,0,0,1-.28.05c.12-.13,0-.34.21-.45a.19.19,0,0,1,.09,0C-19.42-1.77-19.31-1.78-19.24-1.69Z" transform="translate(24.5 8.5)"/><path class="cls-127" d="M-16.88-1.61c.13-.06.13.1.21.13l-.21.07a1,1,0,0,1-.64,0v-.07c.09-.11.23,0,.33-.09S-17-1.66-16.88-1.61Z" transform="translate(24.5 8.5)"/><path class="cls-128" d="M-19.29-1.13v.29c0,.1-.1.15-.19.12A.23.23,0,0,1-19.66-1a.29.29,0,0,1,.1-.12h.07C-19.42-1.09-19.36-1.18-19.29-1.13Z" transform="translate(24.5 8.5)"/><path class="cls-129" d="M-19.53-1.34s0-.07,0-.09c-.1-.22,0-.23.19-.22s.05.23.2.24Z" transform="translate(24.5 8.5)"/><path class="cls-130" d="M-16.24.31c.08.08.2.06.29.12-.21.12-.38,0-.55-.09s0-.15,0-.22S-16.36.29-16.24.31Z" transform="translate(24.5 8.5)"/><path class="cls-131" d="M-17.52-1.38a3.39,3.39,0,0,0,.64,0v0s.05.09,0,.11l0-.08,0,0c-.1.05,0,.19-.09.24s0-.11,0-.17-.08-.14-.15-.1-.36,0-.53-.05Z" transform="translate(24.5 8.5)"/><path class="cls-94" d="M-15.77-5.9c.1,0,.35.35.32.43a0,0,0,0,1-.08,0l-.27-.34S-15.83-5.89-15.77-5.9Z" transform="translate(24.5 8.5)"/><path class="cls-132" d="M-14.07-1.77c.06.21-.13.1-.2.16s-.09-.07-.12-.11,0-.1,0-.09S-14.15-1.85-14.07-1.77Z" transform="translate(24.5 8.5)"/><path class="cls-133" d="M-19.56-1.13l-.05.11c-.1.07,0,.18-.06.26a.11.11,0,0,1-.06.07c-.06,0-.11,0-.15,0A.38.38,0,0,1-19.56-1.13Z" transform="translate(24.5 8.5)"/><path class="cls-125" d="M-20.41-1.53v-.64a.57.57,0,0,1,.12-.37c.08.07,0,.14,0,.22a.54.54,0,0,0,0,.31.25.25,0,0,1-.08.23v.29Z" transform="translate(24.5 8.5)"/><path class="cls-134" d="M-20.37-1.07a.4.4,0,0,0,.26.17C-20.37-.81-20.37-.81-20.37-1.07Z" transform="translate(24.5 8.5)"/><path class="cls-135" d="M-17.08-1a1.47,1.47,0,0,1,0-.21c0-.07,0-.1.09,0A1.93,1.93,0,0,1-17-1C-17-1-17-1-17.08-1Z" transform="translate(24.5 8.5)"/><path class="cls-136" d="M-16.91-1.25l0-.11c.09.17,0,.33-.06.49Z" transform="translate(24.5 8.5)"/><path class="cls-137" d="M-19.29-1.13c-.05,0-.09,0-.13.07s-.09,0-.07-.07.08,0,.12-.05Z" transform="translate(24.5 8.5)"/><path class="cls-99" d="M-19.44,2.8c.13.13.29.22.43.34s.11,0,.15-.06a.42.42,0,0,0,.1.2c-.06.17-.15.11-.25.05s-.27-.05-.32-.21A.38.38,0,0,0-19.48,3V2.92Z" transform="translate(24.5 8.5)"/><path class="cls-138" d="M-20.48-.44a3.55,3.55,0,0,0,0,1c0,.1-.08,0-.1,0a1.27,1.27,0,0,1-.1-.72c0-.12,0-.25,0-.37s0-.14.07-.14.08.06.09.13Z" transform="translate(24.5 8.5)"/><path class="cls-139" d="M-20.81-.13a5,5,0,0,0,0,.55,2.76,2.76,0,0,1-.15-1.14.53.53,0,0,1,0-.12s.06-.06.1,0,0,.05,0,.08a1.09,1.09,0,0,0,0,.62s0,0,0,0A0,0,0,0,1-20.81-.13Z" transform="translate(24.5 8.5)"/><path class="cls-140" d="M-20.81-.13V-.47A.34.34,0,0,1-20.81-.13Z" transform="translate(24.5 8.5)"/><path class="cls-141" d="M-13.27,0c-.12,0-.12-.06-.11-.15a.61.61,0,0,0-.13-.77s-.05-.07,0-.12.18-.05.06-.17.09-.3.14-.3.07.07.08.12a4.15,4.15,0,0,1,.2,1.16C-13,0-13.14,0-13.27,0Z" transform="translate(24.5 8.5)"/><path class="cls-142" d="M-13.51-.89l.13.1a.41.41,0,0,1,0,.67h-.12A6.43,6.43,0,0,1-13.51-.89Z" transform="translate(24.5 8.5)"/><path class="cls-143" d="M-17.52,4c0-.08-.11-.11-.16-.16s.08-.05.12-.08h0s.11,0,.17,0a.58.58,0,0,1,.26.06c.05,0,.07.12.15.06s.18,0,.26.06c0-.11.07-.2.19-.22s.42-.08.55-.26l.06,0a.16.16,0,0,1,.09.07s.06.08.06.13l0,0c-.06,0-.13.06-.1.15a.26.26,0,0,1,0,.08c-.1.11-.27.14-.36.27s-.16.09-.27.09a1.72,1.72,0,0,0-.6,0C-17.3,4.23-17.43,4.1-17.52,4Z" transform="translate(24.5 8.5)"/><path class="cls-144" d="M-17.52,4c.1.07.27,0,.3.2l.06,0c.21-.11.41,0,.62,0s.17,0,.22-.06a.27.27,0,0,1,.33,0c-.06.19-.31.18-.36.36-.11-.06-.21,0-.34,0a.61.61,0,0,0-.48,0c-.12,0-.22,0-.27-.09s-.06-.06-.12-.08A.73.73,0,0,1-17.94,4a.35.35,0,0,0-.37-.14.22.22,0,0,1-.25-.11,5,5,0,0,1,.76.12s.09,0,.1,0S-17.59,4-17.52,4Z" transform="translate(24.5 8.5)"/><path class="cls-145" d="M-17.56,3.73l-.12.08c-.13,0-.31,0-.39-.14-.25.11-.38-.21-.61-.18-.06-.12,0-.19.1-.18a.44.44,0,0,1,.29.14c.07.12.15.1.25.09s.17,0,.2.1A.55.55,0,0,1-17.56,3.73Z" transform="translate(24.5 8.5)"/><path class="cls-26" d="M-17.84,3.64a.09.09,0,0,0-.05,0,.79.79,0,0,1-.6-.22c-.06-.05-.23-.11-.19.1-.17.07-.26,0-.33-.16a.23.23,0,0,0,.25-.05.17.17,0,0,0,.13-.07s.05-.07.07,0,.21.13.29.21a.27.27,0,0,0,.26.09C-17.89,3.47-17.84,3.53-17.84,3.64Z" transform="translate(24.5 8.5)"/><path class="cls-144" d="M-18.8,3.65c-.06.08-.14.11-.18,0s-.14-.07-.22-.06l-.05-.11C-19,3.39-18.94,3.57-18.8,3.65Z" transform="translate(24.5 8.5)"/><path class="cls-146" d="M-15.23,5.21l-.16.24a.57.57,0,0,1-.62.22.35.35,0,0,0-.43.22c-.12.24-.21.25-.48.18a1.1,1.1,0,0,1-.66-.41,1.31,1.31,0,0,1-.22-.25A.32.32,0,0,0-18,5.05c-.12,0-.05-.15.07-.18h.08a1.21,1.21,0,0,0,.19,0h.07l0,.05a.88.88,0,0,0,.48.88.25.25,0,0,0,.38-.13c.19-.36.19-.36.61-.3a1.65,1.65,0,0,1,.31,0,.31.31,0,0,0,.24-.08c.06,0,.1-.13.18-.15a.07.07,0,0,1,.06,0Z" transform="translate(24.5 8.5)"/><path class="cls-144" d="M-16,3.84V3.77a.15.15,0,0,1,.16-.14s.09.09.16.07a1,1,0,0,1,.47-.08.74.74,0,0,0,.69-.34l0,0c0,.15,0,.27-.16.35s-.12.24-.26.3-.07.06-.08,0c-.09-.27-.31,0-.46-.13s-.18.06-.24.11A.37.37,0,0,1-16,4C-16,3.91-16,3.88-16,3.84Z" transform="translate(24.5 8.5)"/><path class="cls-147" d="M-17.56,4.93v0a3.49,3.49,0,0,1,.79,0,1.36,1.36,0,0,0,.29,0,.34.34,0,0,0,.31,0,.24.24,0,0,1,.3,0L-16,5a.15.15,0,0,1-.15.07l-.63.08a1.14,1.14,0,0,0-.37,0,.27.27,0,0,1-.21,0,.14.14,0,0,1,0-.07s.1-.1,0,0S-17.51,5-17.56,4.93Z" transform="translate(24.5 8.5)"/><path class="cls-90" d="M-17.8,4.93h-.08a.19.19,0,0,0-.22,0h0c-.16-.09,0-.19,0-.28H-18c.12.09.28.08.4.16C-17.68,4.9-17.75,4.9-17.8,4.93Z" transform="translate(24.5 8.5)"/><path class="cls-148" d="M-16,3.84-16,4v.08a.93.93,0,0,0-.33,0c0-.07.06-.13.08-.12.18,0,.07-.09.08-.17C-16.09,3.87-16,3.91-16,3.84Z" transform="translate(24.5 8.5)"/><path class="cls-149" d="M-17.8,4.93c0-.16.11,0,.16-.08a0,0,0,0,1,0,0C-17.68,4.93-17.72,5-17.8,4.93Z" transform="translate(24.5 8.5)"/><path class="cls-150" d="M-14.34-.29l.08-.44c0-.13,0-.27.07-.4l.06-.08a.82.82,0,0,1,0,.7c0,.08.06.16.08.26a8.26,8.26,0,0,0,.08,1,1.36,1.36,0,0,1,.09.54c0,.11,0,.22-.06.33a1.79,1.79,0,0,1-.17.6c0,.12,0,.22-.17.28a.45.45,0,0,0-.19.41l0,0c-.06,0-.12,0-.14.1-.16.22-.4.11-.6.13s-.22,0-.29-.09.09-.11.16-.13a.44.44,0,0,0,.33-.5c0-.11,0-.23.06-.34a.23.23,0,0,1,.18-.17.12.12,0,0,1,.1.11c0,.09,0,.18.13.16a.21.21,0,0,0,.2-.19.64.64,0,0,1,.14-.3.32.32,0,0,0,0-.36.28.28,0,0,1,0-.34c.09-.16,0-.31,0-.46s0-.06-.09-.07-.14-.11-.09-.18A.68.68,0,0,0-14.34-.29Z" transform="translate(24.5 8.5)"/><path class="cls-151" d="M-14.19-1.13a1.09,1.09,0,0,1-.07.4V-.79l0-.35Z" transform="translate(24.5 8.5)"/><path class="cls-152" d="M-13.27,0c.06-.09.18-.12.21-.23A1.32,1.32,0,0,0-13-.91a1.73,1.73,0,0,0-.19-.74,0,0,0,0,1,0-.07c.05,0,.08,0,.11,0a1,1,0,0,1,.14.44A2.11,2.11,0,0,1-13,0c-.08,0-.11.13-.17.17a.14.14,0,0,1-.2,0C-13.37.05-13.29.09-13.27,0Z" transform="translate(24.5 8.5)"/><path class="cls-153" d="M-14.47,2.92c-.1-.21.13-.34.15-.52,0,0,.05,0,.05,0,.23.14.12-.13.2-.16s0,.19,0,.28,0,.07-.08.08,0,.25-.2.28l0,0S-14.43,3-14.47,2.92Z" transform="translate(24.5 8.5)"/><path class="cls-143" d="M-15.64,3.76c-.13.07-.15,0-.16-.11s0,0,0,0v0h0c.1-.13.26-.22.33-.39l0,0a2.18,2.18,0,0,1,.57,0,.16.16,0,0,0,.15,0c.06,0,.11-.05.16,0s-.1.09-.12.15a.13.13,0,0,1-.11.17c-.15,0-.28.13-.45.09A.41.41,0,0,0-15.64,3.76Z" transform="translate(24.5 8.5)"/><path class="cls-148" d="M-15.64,3.76a2,2,0,0,0,.1-.21s0-.11.11,0a.06.06,0,0,0,.1,0c.06-.07.11,0,.18,0a.13.13,0,0,0,.19,0c.07-.09.24,0,.29-.15.08.06.13,0,.2,0a.34.34,0,0,1-.38.33.14.14,0,0,0-.12.06.15.15,0,0,1-.16.05A.57.57,0,0,0-15.64,3.76Z" transform="translate(24.5 8.5)"/><path class="cls-154" d="M-14.55,3.17a.54.54,0,0,1-.55,0h0c-.11.13-.21,0-.31,0s-.06,0-.08-.06,0-.07,0-.06a3.85,3.85,0,0,0,.68,0c.09,0,.1-.07.16-.09a.3.3,0,0,1,.16-.08h0l.08,0C-14.35,3-14.57,3-14.55,3.17Z" transform="translate(24.5 8.5)"/><path class="cls-155" d="M-14.35,2.84c.08-.08.08-.22.2-.28a.46.46,0,0,1-.08.28C-14.27,2.93-14.31,2.88-14.35,2.84Z" transform="translate(24.5 8.5)"/><path class="cls-156" d="M-17.36,5.05h.24a.44.44,0,0,0,.32,0A3.62,3.62,0,0,1-16,5c.26,0,.47-.13.71-.17,0,0,.1,0,.15,0s0,.1,0,.15-.11.17-.12.27h0a.83.83,0,0,1-.85.19,3.21,3.21,0,0,0-.69,0,1.14,1.14,0,0,1-.45,0,.22.22,0,0,1-.18-.22C-17.49,5.13-17.47,5.05-17.36,5.05Z" transform="translate(24.5 8.5)"/><path class="cls-90" d="M-15.43,5.61c-.13.24-.39.22-.59.31a.73.73,0,0,0-.31.17.42.42,0,0,1-.52.13,1.19,1.19,0,0,1-.51-.29c.18,0,.31.1.47.13s.3.05.43-.17a.4.4,0,0,1,.32-.22,2.35,2.35,0,0,0,.64-.09S-15.45,5.59-15.43,5.61Z" transform="translate(24.5 8.5)"/><path class="cls-149" d="M-15.43,5.61c-.24,0-.46.13-.71.13a.41.41,0,0,0-.27.16.43.43,0,0,1-.64.16l-.31-.13h0c-.09-.09-.25-.14-.2-.32A1.16,1.16,0,0,0-16.8,6a.21.21,0,0,0,.29-.13c.17-.35.17-.35.56-.3a.82.82,0,0,0,.56-.16v.12Z" transform="translate(24.5 8.5)"/><path class="cls-90" d="M-17.56,5.61c0,.15.14.22.2.32a.14.14,0,0,1-.12-.06,4.44,4.44,0,0,1-.64-.9h0a.54.54,0,0,1,.36.44A.64.64,0,0,0-17.56,5.61Z" transform="translate(24.5 8.5)"/><path class="cls-157" d="M-18,1.08l.08,0c.16.11.13.29.16.45s0,.26-.2.29-.14,0-.2.06-.2.26-.31.38a.12.12,0,0,0,.14.18c.07,0,.14,0,.17.08s.2.19.3.28.22,0,.34,0,.14.06.21.08a.71.71,0,0,1,.29,0c.09.06.18.1.28,0a.18.18,0,0,1,.21,0s0,0,0,0a.39.39,0,0,1-.57.24.34.34,0,0,0-.36,0,.15.15,0,0,0-.11.16.23.23,0,0,1-.1.24c-.08,0-.14.06-.16-.07s0-.36-.31-.38c-.11,0-.2-.16-.35-.09,0-.15-.21-.16-.27-.29a.24.24,0,0,0-.16-.15c0,.06,0,.1,0,.14s.07.1,0,.14a.13.13,0,0,1-.17,0,1.59,1.59,0,0,1-.34-.39c0-.07,0-.13,0-.19s.06.22.17.22.13-.13.21-.19a.56.56,0,0,0,.23-.42s0-.06,0-.07A1.69,1.69,0,0,1-18,1.65c.19,0,.2-.07.18-.21S-18,1.21-18,1.08Z" transform="translate(24.5 8.5)"/><path class="cls-157" d="M-19,2.06c.07,0,.12,0,.1.11s0,0,0,0S-19,2.12-19,2.06Z" transform="translate(24.5 8.5)"/><path class="cls-158" d="M-18.2-5.35c.19,0,.37-.05.56,0a.48.48,0,0,0,.42,0,.37.37,0,0,1,.44.1,1.16,1.16,0,0,0,.34.24c.05,0,.13.08.18.05a.54.54,0,0,1,.43,0c.21,0,.23.11.11.3,0,0-.1,0-.13,0a.63.63,0,0,0-.58-.08h-.09c-.06,0-.11-.11-.2-.07s-.41,0-.61,0a.33.33,0,0,1-.27-.12.25.25,0,0,0-.36,0c-.14.1-.32.06-.48.11a.72.72,0,0,0-.49.34.53.53,0,0,1-.13.13s-.08,0-.07.06c0,.26-.22.45-.16.71,0,0,0,.09-.05.11-.24.18-.25.48-.34.73a.63.63,0,0,0,.07.42s.08.1.06.16-.19.08-.29.06-.1,0-.15-.06a.25.25,0,0,1-.14-.43A.6.6,0,0,0-20-3a.35.35,0,0,1,.09-.28c.11-.09.21-.19.07-.34a.11.11,0,0,1,0-.11,6.12,6.12,0,0,1,.35-.93c.06-.09.12-.16.24-.15A.36.36,0,0,0-19-4.91a1,1,0,0,1,.51-.23C-18.38-5.17-18.31-5.29-18.2-5.35Z" transform="translate(24.5 8.5)"/><path class="cls-159" d="M-14.91-2a.13.13,0,0,0,0-.12c0-.06.18-.11,0-.17S-15-2.42-15-2.48a.18.18,0,0,1,0-.16c.2,0,.29-.2.42-.31s0-.21,0-.32.05-.13.14-.11l.12.08a1.75,1.75,0,0,1,.32.64,1.45,1.45,0,0,0,0,.36c.06.17,0,.26-.17.29a2.66,2.66,0,0,0-.39.07C-14.68-1.89-14.79-2-14.91-2Z" transform="translate(24.5 8.5)"/><path class="cls-160" d="M-18.2-5.35a.57.57,0,0,1-.53.33.23.23,0,0,0-.18.08.4.4,0,0,1-.32.16c-.12,0-.17.08-.23.18-.16.27-.13.61-.32.87a.08.08,0,0,0,0,.13c.25.08.07.17,0,.26s-.07,0-.11.08S-20-3-20-2.91a.58.58,0,0,1-.12.36.52.52,0,0,0-.09.32c0,.11,0,.22-.18.21,0-.18.09-.34.08-.52l0,0h0a.43.43,0,0,0,.1-.42A1.33,1.33,0,0,1-20-3.9a.25.25,0,0,0,0-.21.08.08,0,0,1,0-.1c.24-.14.33-.4.51-.58s.07-.07.12-.07A.45.45,0,0,0-19-5,3.89,3.89,0,0,1-18.2-5.35Z" transform="translate(24.5 8.5)"/><path class="cls-161" d="M-14.43-3.38s0,.12-.12.12-.17,0-.32-.21c-.2.12-.36.08-.39-.15s-.27-.38-.34-.6c0,0-.06,0-.1,0A.72.72,0,0,1-16-4.41a.72.72,0,0,0-.44-.26s-.05,0,0-.07a.61.61,0,0,1,.69.12c.12,0,.17.1.26.15s.21.15.36.07a.21.21,0,0,1,.29.09c.06.09.11.19.17.29A2.06,2.06,0,0,0-14.43-3.38Z" transform="translate(24.5 8.5)"/><path class="cls-162" d="M-14.67-4a.67.67,0,0,1-.23-.27c0-.06-.1-.12-.16-.07-.31.21-.46-.06-.64-.2l-.05-.06c0-.08.11-.15,0-.22a.4.4,0,0,0-.39-.08.53.53,0,0,1-.6-.16c-.18-.16-.33-.28-.58-.16a.26.26,0,0,1-.33-.11c.24,0,.48-.05.72,0a.26.26,0,0,1,.22.12.55.55,0,0,0,.51.26.79.79,0,0,1,.66.22.56.56,0,0,0,.46.23C-14.89-4.57-14.69-4.26-14.67-4Z" transform="translate(24.5 8.5)"/><path class="cls-163" d="M-19.37-5a.48.48,0,0,1,.16-.12l.16,0A.28.28,0,0,1-19.37-5Z" transform="translate(24.5 8.5)"/><path class="cls-164" d="M-17.6,3.56a.52.52,0,0,0,0-.35c0-.07,0-.13.1-.11s.12,0,.18-.06a.18.18,0,0,1,.22,0c.26.18.43.15.61-.12s.29-.14.38,0a.36.36,0,0,1,0,.47.31.31,0,0,1-.16.06c-.06,0-.1,0-.15,0a1,1,0,0,0-.34.06,1.31,1.31,0,0,1-.79.12Z" transform="translate(24.5 8.5)"/><path class="cls-157" d="M-17.56,3.57c.2,0,.4-.14.61-.08s0-.18.15-.13.13.15.09.26a.19.19,0,0,1-.21.13,1,1,0,0,0-.24,0c-.07,0-.18,0-.24-.07s-.1-.09-.16-.12Z" transform="translate(24.5 8.5)"/><path class="cls-165" d="M-17.56,3.61c.1,0,.16,0,.16.12s-.11,0-.16,0Z" transform="translate(24.5 8.5)"/><path class="cls-166" d="M-18.92-.73h.27a.83.83,0,0,0,.4.19c.25,0,.37.18.29.42a1,1,0,0,1-.24.43c.05-.19-.08-.36-.05-.54a.07.07,0,0,0-.06-.09c-.25,0-.5-.25-.73,0h-.05c-.05-.07,0-.11,0-.16V-.57c0-.11,0-.13.12-.16Z" transform="translate(24.5 8.5)"/><path class="cls-167" d="M-19-.45l0,.16a.29.29,0,0,1-.24,0c-.14,0-.24,0-.2.17s0,.32,0,.49l-.12-.24c0-.11,0-.22,0-.33s.09-.29.28-.25A.41.41,0,0,0-19-.45Z" transform="translate(24.5 8.5)"/><path class="cls-168" d="M-15.71.47a2.68,2.68,0,0,0,.88-.16c.14,0,.07.13,0,.18A1.08,1.08,0,0,0-15,.92a.25.25,0,0,1-.11.16.64.64,0,0,1-.54,0c-.14-.05-.14-.2-.15-.33V.64c0-.05-.05-.1,0-.16Z" transform="translate(24.5 8.5)"/><path class="cls-169" d="M-15.79.48s.08.06.08.11c-.08.32,0,.42.24.57a1,1,0,0,1,.34.24c.07.1.18.06.28.07s.15.13.15.24a.14.14,0,0,1-.08.17.13.13,0,0,1-.16,0c-.07-.07-.11-.16-.21-.18-.21-.22-.46-.09-.7-.07,0,0,0,0-.06,0-.31-.19-.33-.33-.11-.59a.83.83,0,0,0,.15-.17.33.33,0,0,0,0-.26C-15.86.51-15.85.48-15.79.48Z" transform="translate(24.5 8.5)"/><path class="cls-170" d="M-17.92,1.8c.19,0,.15-.14.2-.24a.23.23,0,0,0,.12-.15.23.23,0,0,1,.28-.15c.12,0,.24-.05.34.07s.06,0,.07,0,.07-.13.18-.11,0-.11.05-.13l.17.27c0,.15.12.2.18.3a.08.08,0,0,1,0,.05c-.07.07-.15,0-.23,0a.15.15,0,0,1-.09-.1c-.2,0-.37-.13-.57-.09s-.11-.1-.16,0a.42.42,0,0,0-.05.33c0,.09-.12.13-.18.19-.24.1-.31.07-.4-.16C-18,1.82-18,1.78-17.92,1.8Z" transform="translate(24.5 8.5)"/><path class="cls-36" d="M-16.67,1.07c0-.18.17-.11.23-.2v0s-.12,0-.16-.09.05-.16.12-.21.28,0,.31.17-.08.24-.22.28S-16.57,1.1-16.67,1.07Z" transform="translate(24.5 8.5)"/><path class="cls-171" d="M-15.87.83a1.06,1.06,0,0,1-.15.28c-.16.15-.1.26,0,.37a.23.23,0,0,0,.11.08c0,.1-.05.15-.14.15s-.1,0-.07-.11-.07-.16-.12-.23-.1-.29.08-.36S-16,.88-15.87.83Z" transform="translate(24.5 8.5)"/><path class="cls-170" d="M-16.08,1.6c.11.18.14,0,.21,0h0c.06,0,.09,0,.12.06a.16.16,0,0,1,0,.12.38.38,0,0,1-.6.07s-.06-.07,0-.12v0s0-.09,0-.12S-16.18,1.71-16.08,1.6Z" transform="translate(24.5 8.5)"/><path class="cls-172" d="M-16.31,1.55c0,.05,0,.09,0,.12s-.21-.16-.22-.22,0-.07.06-.1S-16.38,1.49-16.31,1.55Z" transform="translate(24.5 8.5)"/><path class="cls-173" d="M-17.32.75l0,0a.35.35,0,0,1,.27-.35c.13,0,.22.08.29.19s0,.13,0,.19A.39.39,0,0,1-17.32.75Z" transform="translate(24.5 8.5)"/><path class="cls-36" d="M-17.32.75a1.29,1.29,0,0,0,.48,0V.83A.32.32,0,0,1-17.32.75Z" transform="translate(24.5 8.5)"/><path class="cls-174" d="M-16.44.87a.61.61,0,0,1-.19,0c-.11,0,0-.06,0-.09h0a.26.26,0,0,1,.15,0c.09,0,.07.06,0,.09Z" transform="translate(24.5 8.5)"/><path class="cls-102" d="M-16.44.87c0-.16-.11,0-.16-.08v0h.2s.07,0,.06.06S-16.4.88-16.44.87Z" transform="translate(24.5 8.5)"/><path class="cls-175" d="M-17.44,1.15c-.06-.07-.14,0-.22,0s-.25-.26-.1-.49c.28,0,.28,0,.24.19s.12.06.15.12a1.37,1.37,0,0,0,.63.1.34.34,0,0,1-.35.1A.53.53,0,0,0-17.44,1.15Z" transform="translate(24.5 8.5)"/><path class="cls-176" d="M-17.37,1h-.15s-.09,0-.1,0,.06-.07.1-.08S-17.34.82-17.37,1Z" transform="translate(24.5 8.5)"/><path class="cls-177" d="M-17.15-1.49c-.12.08-.25,0-.37,0s-.35,0-.49-.2c.21.06.21-.08.25-.21s-.12,0-.15-.08,0-.16.14-.15.26.07.23.19.1.26.25.31S-17.18-1.55-17.15-1.49Z" transform="translate(24.5 8.5)"/><path class="cls-178" d="M-18.12-1.77c-.06.16-.17.1-.28.07s0-.16-.12-.18a2.84,2.84,0,0,0-.58-.05c-.08,0-.17-.06-.15-.17a.09.09,0,0,1,.08,0,3,3,0,0,1,.67.08c.15.06.32.08.38.27Z" transform="translate(24.5 8.5)"/><path class="cls-179" d="M-18.49-1.93a.19.19,0,0,1,.18.13c0,.08-.07.06-.09.1h-.32l-.13,0A1.58,1.58,0,0,1-18.49-1.93Z" transform="translate(24.5 8.5)"/><path class="cls-178" d="M-17.89-1.94c.06,0,.12,0,.13.08a.36.36,0,0,0-.2.11c-.07.07-.12,0-.16,0h0c0-.18,0-.2.17-.21A.09.09,0,0,1-17.89-1.94Z" transform="translate(24.5 8.5)"/><path class="cls-180" d="M-18.69-.84l-.11-.05c-.07,0-.1,0-.08-.08s0-.12,0-.19-.2.11-.16.25-.05.13-.12.14,0-.09-.06-.14.05-.28.24-.29a2.48,2.48,0,0,0,.38,0c.18,0,.22.06.19.21s0,.09,0,.08A.4.4,0,0,1-18.69-.84Z" transform="translate(24.5 8.5)"/><path class="cls-137" d="M-19.72-.77A.2.2,0,0,1-19.61-1c0,.11,0,.18.11.23s.15,0,.21,0v.19C-19.48-.52-19.6-.55-19.72-.77Z" transform="translate(24.5 8.5)"/><path class="cls-181" d="M-19.72-.77a.43.43,0,0,0,.43.12v0s0,0,0,.05a.57.57,0,0,1-.29,0c-.11,0-.15-.06-.15-.16Z" transform="translate(24.5 8.5)"/><path class="cls-118" d="M-19.29-.57V-.62c.13,0,.22-.15.36-.11L-19-.57C-19.12-.56-19.2-.34-19.29-.57Z" transform="translate(24.5 8.5)"/><path class="cls-182" d="M-18.48-.93l0-.08c.05,0,0-.13.11-.07s.06.07,0,.09S-18.39-.83-18.48-.93Z" transform="translate(24.5 8.5)"/><path class="cls-183" d="M-18.88-1l.08.08s-.06,0-.09.05S-19-.86-19-.92-18.92-1-18.88-1Z" transform="translate(24.5 8.5)"/><path class="cls-184" d="M-17.89-1.94h0A2.24,2.24,0,0,1-18.43-2a4.39,4.39,0,0,0-.52-.13c-.1,0-.13-.06-.1-.16l0,0c.12-.15.33-.19.45-.34a.23.23,0,0,1,.23,0c.18.06.37,0,.55.1a.2.2,0,0,0,.17,0,.56.56,0,0,0,.34-.12c.11-.09.26,0,.39,0s.19.08.28,0a.2.2,0,0,1,.11,0c.25.06.51-.05.75,0,.08,0,.14.07.13.15s-.08.08-.14.09-.1.13-.14.2a.66.66,0,0,1-.45.13,2.7,2.7,0,0,1-.56.08c-.06,0-.08.08,0,.15s.14.21.05.29a.46.46,0,0,1-.41.13c-.08-.05-.18,0-.26-.07s-.15-.12-.05-.22.05-.15,0-.18S-17.86-2.14-17.89-1.94Z" transform="translate(24.5 8.5)"/><path class="cls-185" d="M-15.43-2.14l-.05,0L-16-2c-.13,0-.24.07-.37.07s-.12,0-.12-.08l.13-.15a5.38,5.38,0,0,1,.51-.2c.06,0,.12,0,.17,0S-15.45-2.27-15.43-2.14Z" transform="translate(24.5 8.5)"/><path class="cls-186" d="M-17.32-1.53c.15,0,.2-.21.37-.15a.38.38,0,0,0,0-.24c-.05-.1,0-.16.07-.18-.06.12,0,.19.07.27s.07.16,0,.22a.83.83,0,0,1-.27.12C-17.21-1.5-17.27-1.48-17.32-1.53Z" transform="translate(24.5 8.5)"/><path class="cls-187" d="M-15.68-2.26c-.17-.05-.32.06-.48.09a1.62,1.62,0,0,1-.19,0v-.05l.45-.16a.21.21,0,0,1,.22-.07s0,0,0,0A.08.08,0,0,1-15.68-2.26Z" transform="translate(24.5 8.5)"/><path class="cls-188" d="M-16.48-2A2.66,2.66,0,0,0-16-2c-.06.06-.17,0-.21.11a1.52,1.52,0,0,1-.21,0c-.05,0-.13.09-.17,0S-16.53-1.94-16.48-2Z" transform="translate(24.5 8.5)"/><path class="cls-189" d="M-14.87,1.48c-.06.16-.19.1-.25,0s-.38-.24-.54-.41a.38.38,0,0,1-.05-.51V.65a.38.38,0,0,0,.53.41A.18.18,0,0,0-15,.89a.54.54,0,0,1,.18-.44.09.09,0,0,0,0-.14A1,1,0,0,0-14.46,0h0c0,.21.08.43,0,.64a1,1,0,0,0,0,.54.27.27,0,0,1-.27.34s0-.07-.08-.07Z" transform="translate(24.5 8.5)"/><path class="cls-190" d="M-14.47.59s0-.06,0-.09a.69.69,0,0,1,0-.51l.12-.28c.15.2.21.39,0,.6a.12.12,0,0,0,0,.14c.15-.19.17-.07.2.08a.64.64,0,0,1,0,.6c0,.05-.07.11,0,.14s.08.45,0,.53-.11.1-.08.19,0,.18-.1.17-.05.14-.2.12-.16-.14-.18-.25l0-.07c0-.12.1-.14.17-.2s.11,0,.11-.1c0-.29.08-.57.05-.86C-14.43.73-14.5.67-14.47.59Z" transform="translate(24.5 8.5)"/><path class="cls-191" d="M-14.71-1v.24s0,.11,0,.12c.32.1.12.29.09.46s-.06.09,0,.14a.85.85,0,0,1-.59.32s-.12,0-.07-.1a.15.15,0,0,1,.11,0,.51.51,0,0,0,.37-.62,1.54,1.54,0,0,1,0-.3C-14.82-.84-14.84-.95-14.71-1Z" transform="translate(24.5 8.5)"/><path class="cls-192" d="M-15.27.23l.08.08a1.16,1.16,0,0,1-.8,0v0c.06-.07.15,0,.23-.06S-15.43.15-15.27.23Z" transform="translate(24.5 8.5)"/><path class="cls-193" d="M-14.71-1a.53.53,0,0,0,0,.41.83.83,0,0,1-.08.58.31.31,0,0,1-.34.21c0-.18.2-.31.22-.5A.32.32,0,0,0-15-.7a.19.19,0,0,1-.08-.16c0-.07,0-.15.11-.15a1.7,1.7,0,0,0,.29-.36A2.58,2.58,0,0,1-14.71-1Z" transform="translate(24.5 8.5)"/><path class="cls-194" d="M-15-1-15-.85a.24.24,0,0,1-.19.08c-.19,0-.26-.07-.24-.28V-1.1c0-.07,0-.11,0-.17a.2.2,0,0,1,.07-.18l0,0s.09,0,.14,0c0,.22.19.24.31.33Z" transform="translate(24.5 8.5)"/><path class="cls-195" d="M-15.44-1.45a.25.25,0,0,1,0,.2c-.08.17-.22.16-.37.09s-.11-.08-.07-.17-.05-.17.07-.19S-15.55-1.61-15.44-1.45Z" transform="translate(24.5 8.5)"/><path class="cls-196" d="M-15.84-1.21a.32.32,0,0,0,.36,0c.05,0,.17,0,.08.12a2.38,2.38,0,0,1-.75.15c-.09,0-.15-.1-.26-.09s0-.07,0-.1,0-.19.16-.21,0,.13,0,.14A.19.19,0,0,0-16-1.33C-16-1.32-15.95-1.18-15.84-1.21Z" transform="translate(24.5 8.5)"/><path class="cls-197" d="M-15.28-1.45l-.11,0c.14-.19.32-.06.48,0s.05.23-.09.28a.17.17,0,0,1-.23-.12A.16.16,0,0,0-15.28-1.45Z" transform="translate(24.5 8.5)"/><path class="cls-198" d="M-15.28-1.45l0,0c.06.08.12.17.23.13s.09-.14.09-.23a.37.37,0,0,1,0,.39h0C-15.28-1.16-15.28-1.16-15.28-1.45Z" transform="translate(24.5 8.5)"/><path class="cls-199" d="M-15.84-1.21c-.13.07-.19,0-.2-.12s.08-.06.12,0Z" transform="translate(24.5 8.5)"/><path class="cls-200" d="M-20.37-2a.26.26,0,0,0,.12-.18.25.25,0,0,1,0-.08A4.48,4.48,0,0,0-20-3.16a.11.11,0,0,1,.12-.1.35.35,0,0,0-.08.24.68.68,0,0,1-.16.52c-.11.12,0,.22.12.28a.49.49,0,0,0,.4.08,0,0,0,0,1,.06,0c0,.15-.06.2-.18.23s-.28,0-.28.22.07.21-.13.24-.25,0-.23-.2a.18.18,0,0,0,0-.14Z" transform="translate(24.5 8.5)"/><path class="cls-201" d="M-19.69-1.9c0-.08.15-.12.17-.23s.15,0,.23,0a.1.1,0,0,1,0,.05c0,.06.11.08.16.12s-.11.17-.2.23-.16,0-.24,0h-.07C-19.53-1.85-19.64-1.85-19.69-1.9Z" transform="translate(24.5 8.5)"/><path class="cls-202" d="M-15.79.23c-.07.07-.13,0-.2,0a1.15,1.15,0,0,1-.65-1c.12,0,.23.09.29-.08,0,0,0,0,0,0,.26,0,.46-.25.73-.21a.3.3,0,0,1-.2.46c-.08,0-.17,0-.22.11s-.11.39.18.64A.13.13,0,0,1-15.79.23Z" transform="translate(24.5 8.5)"/><path class="cls-203" d="M-15.59-1a.22.22,0,0,0-.25.12c-.07.13-.22.08-.34.1s-.12,0-.13.09,0,.16-.11.15-.2,0-.22-.14c-.06-.28,0-.35.24-.44v.06c.11-.08.14.13.27.07s.46,0,.67-.11c0,0,0,0,0,0s0,0,0,0S-15.51-1-15.59-1Z" transform="translate(24.5 8.5)"/><path class="cls-204" d="M-19.28-1.78A.69.69,0,0,1-19.09-2a1,1,0,0,1,.6,0c-.05.19-.21.18-.36.2h-.31A.08.08,0,0,1-19.28-1.78Z" transform="translate(24.5 8.5)"/><path class="cls-113" d="M-19.28-1.78l.12.05-.08,0-.29-.05C-19.45-1.8-19.36-1.76-19.28-1.78Z" transform="translate(24.5 8.5)"/><path class="cls-187" d="M-15-2.5c.09.06.12.21.28.14s.07,0,.07.07a.07.07,0,0,1-.06.07l-.21.05-.33,0a.62.62,0,0,1-.43-.23h0c-.07-.05,0-.09,0-.11a.24.24,0,0,0,.14-.1l0,0C-15.3-2.59-15.13-2.63-15-2.5Z" transform="translate(24.5 8.5)"/><path class="cls-205" d="M-15.67-2.37l.43.23h-.19c-.08,0-.18,0-.25-.12Z" transform="translate(24.5 8.5)"/><path class="cls-171" d="M-15.79,1.64l-.08-.08c0-.05.08-.12.17-.06a.18.18,0,0,0,.1,0c.19-.18.31,0,.45.09s.09.31.06.46,0,.3.14.38a.43.43,0,0,1-.34.56.3.3,0,0,0-.18.08l0,0v0a.37.37,0,0,1-.44.28h0a.3.3,0,0,1-.24.08c-.06,0-.14,0-.12-.13.23-.08.27-.14.19-.38s-.23-.06-.36-.06h0c0-.16.1-.24.22-.3A.64.64,0,0,0-16,2.4a.48.48,0,0,1,.42-.23s.06,0,.09,0c.19-.06.11-.2.09-.34a.14.14,0,0,1-.18.05C-15.67,1.79-15.69,1.68-15.79,1.64Z" transform="translate(24.5 8.5)"/><path class="cls-165" d="M-17.16,3.8a.18.18,0,0,1,.21-.11.17.17,0,0,0,.19,0c.05-.05.15-.05.19-.13s.11.1.05.18-.14.1-.12.2,0,.06-.06.07-.06,0-.08,0c-.1-.32-.18,0-.29,0S-17.1,3.84-17.16,3.8Z" transform="translate(24.5 8.5)"/><path class="cls-206" d="M-16.52,3.69a.17.17,0,0,0-.08-.16c0-.07,0-.12.08-.11s0-.08.09-.09l.12,0c.1.16.24,0,.36.05a.3.3,0,0,1-.3.23c-.06,0-.17,0-.18.1S-16.46,3.78-16.52,3.69Z" transform="translate(24.5 8.5)"/><path class="cls-207" d="M-15.92,3.41c.2,0,.29-.2.44-.29l.05.08h0c0,.15-.17.22-.25.34s-.12-.06-.19,0Z" transform="translate(24.5 8.5)"/><path class="cls-154" d="M-15.87,3.49c.17.06.25-.05.33-.18s.07-.07.11-.11a.53.53,0,0,1-.36.4Z" transform="translate(24.5 8.5)"/><path class="cls-148" d="M-15.8,3.61v0l-.15.12C-16,3.59-15.91,3.61-15.8,3.61Z" transform="translate(24.5 8.5)"/><path class="cls-208" d="M-17.36,5.05c-.12.19-.07.3.14.32s.6,0,.91,0c.13,0,.27,0,.41,0a.36.36,0,0,0,.34-.08.34.34,0,0,1,.25-.11c-.19.37-.51.27-.81.23s-.36,0-.48.27a.32.32,0,0,1-.52.16,1.69,1.69,0,0,1-.47-.49.34.34,0,0,1,0-.45.66.66,0,0,0,.14,0C-17.29,4.91-17.33,5-17.36,5.05Z" transform="translate(24.5 8.5)"/><path class="cls-149" d="M-17.76,5.41c-.15-.12-.18-.34-.36-.44.05-.19.15-.08.24,0s-.09,0-.09,0,0,.06,0,.06C-17.61,5-17.71,5.23-17.76,5.41Z" transform="translate(24.5 8.5)"/><path class="cls-208" d="M-16.8,5.05c-.1,0-.21.15-.32,0C-17,4.92-16.9,5.11-16.8,5.05Z" transform="translate(24.5 8.5)"/><path class="cls-209" d="M-14.95,2.44c-.24,0-.28-.06-.23-.28a1.06,1.06,0,0,0,0-.56.34.34,0,0,1,.25.17s0,.1.1.07.05-.09.05-.14-.12-.13-.12-.22l.08-.08s0,.07.08.08.25-.1.21-.27a1.54,1.54,0,0,1-.05-.43.19.19,0,0,1,.08-.19.27.27,0,0,1,.11.32,1.38,1.38,0,0,1-.09.53v0c.23.35-.12.35-.27.47l0,0C-14.93,2.07-14.87,2.29-14.95,2.44Z" transform="translate(24.5 8.5)"/><path class="cls-153" d="M-14.47,2.92a.14.14,0,0,1-.16.08C-14.62,2.89-14.59,2.82-14.47,2.92Z" transform="translate(24.5 8.5)"/><path class="cls-210" d="M-15.47,2.16c-.07,0,.08.16-.06.1s-.3,0-.39.16a.6.6,0,0,1-.35.27c-.1,0-.14.15-.21.23A.29.29,0,0,0-16.7,3,.19.19,0,0,1-17,3c0-.09.07-.07.13-.09s.11,0,.1-.07.09-.12.16-.15.14-.06.15-.15,0,0-.07-.06a.22.22,0,0,0-.22,0s0,.06-.06.08-.24.17-.37,0-.06-.1-.13-.06,0,.09,0,.14a.84.84,0,0,0,.06.14.18.18,0,0,1,0,.16l-.2-.08a.31.31,0,0,0-.19,0c-.06,0-.14,0-.14-.09s.19-.36.38-.46a1.74,1.74,0,0,1,.68-.08,2.67,2.67,0,0,1,.63,0c.15.05.22-.06.21-.27C-15.66,1.89-15.51,2-15.47,2.16Z" transform="translate(24.5 8.5)"/><path class="cls-102" d="M-17.8,2.76c.1.07.26,0,.32.12-.23.13-.41,0-.59-.12s-.08,0-.08-.08-.09-.19-.22-.1-.1,0-.1,0-.08-.21,0-.3a1.24,1.24,0,0,0,.22-.34c0-.07.1,0,.15,0h0c0,.06.05.12.11.17a.13.13,0,0,1,0,.22c-.07.05-.05.08,0,.14S-17.79,2.6-17.8,2.76Z" transform="translate(24.5 8.5)"/><path class="cls-211" d="M-17.28,3s0-.08,0-.12a.4.4,0,0,1,.52,0c.07,0,.15,0,.24.05L-17,3Z" transform="translate(24.5 8.5)"/><path class="cls-102" d="M-17.92,1.8l-.08.08a.09.09,0,0,1-.12,0h0C-18.08,1.79-18,1.66-17.92,1.8Z" transform="translate(24.5 8.5)"/><path class="cls-212" d="M-16.44-4.74a.2.2,0,0,0,.17,0,.24.24,0,0,1,.24.14.52.52,0,0,0,.36.22c.1,0,.2,0,.17.18a.11.11,0,0,0,.07.12c.16,0,.2.17.21.32a.33.33,0,0,0,.1.24c.08.08.15.07.18,0s0-.1.07-.1.06.06.08.11.07.26.24.27c.11.31.09.38-.18.5,0,0,0,0,0,.07a.11.11,0,0,1,0,.16c-.07,0-.09,0-.13-.08s-.06,0-.08,0,0-.12,0-.16l.21-.22s0-.09,0-.12-.12-.09-.19-.1c-.35-.1-.44-.44-.65-.67,0,0,0-.09-.06-.11a7.51,7.51,0,0,1-.72-.54.3.3,0,0,0-.34,0,.3.3,0,0,1-.33,0,.4.4,0,0,0-.43,0,.48.48,0,0,1-.39,0,.43.43,0,0,0-.42.07.21.21,0,0,1-.14.07.45.45,0,0,0-.43.36,1.33,1.33,0,0,1-.39.53h0c0-.18-.07-.37.13-.5a.06.06,0,0,0,0-.1c-.15-.13-.05-.17.07-.21A.24.24,0,0,0-19-4.48c.15-.36.49-.35.79-.42A.36.36,0,0,0-18-5a.26.26,0,0,1,.4,0,.4.4,0,0,0,.37.12,1.54,1.54,0,0,1,.48,0c.07,0,.13.09.2.09Z" transform="translate(24.5 8.5)"/><path class="cls-212" d="M-19.29-2.1c-.08,0-.15,0-.23,0h-.05a.52.52,0,0,1-.11-.69.08.08,0,0,0,0,0c-.13-.34.21-.45.33-.67h0a3,3,0,0,1,.29.2.2.2,0,0,1,.1.22.36.36,0,0,1-.14.34.45.45,0,0,0-.16.55A.09.09,0,0,1-19.29-2.1Z" transform="translate(24.5 8.5)"/><path class="cls-161" d="M-16.52-4.74c-.1.06-.14,0-.2-.09C-16.62-4.87-16.52-4.92-16.52-4.74Z" transform="translate(24.5 8.5)"/><path class="cls-213" d="M-19-3.14c0-.12-.06-.16-.13-.18a.3.3,0,0,1-.2-.22A2.49,2.49,0,0,1-19-4a.45.45,0,0,0,.12-.25.24.24,0,0,1,.28-.24.38.38,0,0,0,.29-.11.38.38,0,0,1,.43-.07.42.42,0,0,0,.38,0,.38.38,0,0,1,.46,0c.1.08.22.12.32,0s.08,0,.14,0c.21,0,.42.08.51.33,0,.08.11.1.2.12s.22.17.33.28.21.57.59.62c.1,0,.2.15.34.17s.08.08,0,.13-.17.27-.34.32,0,.05,0,.08a.13.13,0,0,1,0,.12l-.48-.08c0-.1.08-.08.12-.14a1,1,0,0,1-.13-.22.52.52,0,0,0-.36-.32c-.11,0-.2-.09-.16-.23a.08.08,0,0,0,0-.09c-.17-.09-.22-.25-.32-.4s-.28-.15-.44-.2l-.44-.15a.49.49,0,0,0-.48,0,1,1,0,0,1-.3.09,2,2,0,0,0-.73.35.31.31,0,0,0-.13.33,1.55,1.55,0,0,0,.08.23c0,.07.08.16,0,.22S-18.94-3.07-19-3.14Z" transform="translate(24.5 8.5)"/><path class="cls-214" d="M-16.43,3.33c0,.09.08.12.13.19s-.21-.17-.3,0-.09.1-.16.11a.7.7,0,0,0,0-.28C-16.67,3.38-16.56,3.29-16.43,3.33Z" transform="translate(24.5 8.5)"/><path class="cls-215" d="M-18.12,1.88H-18c.09.13.2.21.36.12A.31.31,0,0,1-17.52,2a1.16,1.16,0,0,1,.53.24.88.88,0,0,1-.53.06.76.76,0,0,0-.26,0s-.09,0-.07.1.08,0,.11,0,.2-.12.3,0-.18.13-.14.3-.16,0-.22.1c-.13-.14-.2-.35-.42-.38,0-.07.07-.08.11-.1s.21-.13,0-.22S-18.09,1.94-18.12,1.88Z" transform="translate(24.5 8.5)"/><path class="cls-93" d="M-15.47,2.16c-.1-.2-.29-.13-.44-.16a.14.14,0,0,1-.08,0,1,1,0,0,1-.61-.27.07.07,0,0,1,0-.1h.2c.2.21.31.22.61,0,.06,0,.08.08.13.12s0,0,.07,0,.13-.11.22-.2a3.74,3.74,0,0,0,.05.39C-15.26,2.11-15.3,2.23-15.47,2.16Z" transform="translate(24.5 8.5)"/><path class="cls-216" d="M-16.56,1.68l0,.08a.39.39,0,0,1-.5.15c-.16-.08-.28.07-.42.09h-.12l.16-.16a.13.13,0,0,1,.06-.13.57.57,0,0,0,.16-.11c.05,0,.12-.09.18,0a.37.37,0,0,0,.39,0,0,0,0,0,1,.05,0Z" transform="translate(24.5 8.5)"/><path class="cls-217" d="M-16.64,1.6l-.23.09c-.06,0-.14.05-.17,0-.12-.21-.18-.05-.25,0a.11.11,0,0,1-.11,0,.22.22,0,0,1,.17-.23c.12,0,.24-.15.36,0s.15,0,.23-.08Z" transform="translate(24.5 8.5)"/><path class="cls-218" d="M-17.23,1.52c0,.1-.12.16-.17.23l-.08.09c-.12-.26-.05-.4.26-.49Z" transform="translate(24.5 8.5)"/><path class="cls-210" d="M-15.55,1.8l.06.16c-.14,0-.26-.07-.26-.24l0-.08C-15.67,1.63-15.61,1.7-15.55,1.8Z" transform="translate(24.5 8.5)"/><path class="cls-47" d="M-19-3.14l.11,0s.06,0,.09,0,0-.08,0-.11-.07-.24-.16-.34,0-.08,0-.12a.31.31,0,0,0,.09-.2c0-.07,0-.14.13-.07s.06,0,.07,0c.1-.21.31-.21.5-.27s.16-.12.27-.06.08,0,.11,0a.59.59,0,0,1,.7-.05,2.54,2.54,0,0,0,.47.14c.1,0,.17.11.26.14s.13.1.13.22.15.17.25.22.13.08,0,.17,0,.12.06.13a.54.54,0,0,1,.47.43c0,.11.15.13.18.25s-.19,0-.26.08h0c-.06,0-.07-.1-.1-.15a.68.68,0,0,0-.69-.37c-.28,0-.42-.13-.38-.41,0,0,0-.11,0-.13-.2-.1-.32-.3-.54-.38a.29.29,0,0,0-.3,0,.62.62,0,0,1-.57.13.26.26,0,0,0-.32.13.29.29,0,0,0,0,.35.42.42,0,0,1,.08.39c0,.05,0,.12-.07.12-.27,0-.28.31-.5.38s-.08.11-.12.17h0a.52.52,0,0,0-.17.19h-.12a.09.09,0,0,0,0-.07.46.46,0,0,1,.11-.62A.44.44,0,0,0-19-3.14Z" transform="translate(24.5 8.5)"/><path class="cls-219" d="M-19.17-2.1c-.06-.17.07-.16.17-.19s0,.1,0,.09c.22,0,.35.18.55.18,0,0,0,0,0,0Z" transform="translate(24.5 8.5)"/><path class="cls-106" d="M-18.48-2h0a1.63,1.63,0,0,1,.53.08c-.12,0-.22,0-.21.17A1,1,0,0,0-18.48-2Z" transform="translate(24.5 8.5)"/><path class="cls-219" d="M-19-2.3c0-.11,0-.21.14-.24a.18.18,0,0,0,.14-.2c0-.12.06-.19.19-.13s.11,0,.14-.07a.42.42,0,0,0-.11-.41c-.11-.07-.05-.19-.06-.28s.22-.32.41-.29A.64.64,0,0,0-17.57-4a.44.44,0,0,1,.61.12c.06.09.14.1.21.15s.3.11.11.31c0,0,0,.14,0,.2a.32.32,0,0,0,.29.1.65.65,0,0,1,.8.58l0,.12c0,.09-.2-.11-.22.07-.08,0-.15.06-.23,0S-16-2.42-16-2.49a.39.39,0,0,1,.33-.1c0-.07-.05-.08-.08-.11a.55.55,0,0,0-.54-.07.35.35,0,0,1-.32-.06A.69.69,0,0,0-17-2.91a.36.36,0,0,1-.38-.19.48.48,0,0,0-.54-.27.18.18,0,0,0-.17.17c0,.09.08.08.14.11h0c.3.07.36.17.25.46s-.14.09-.16.07c-.19-.1-.41,0-.59-.11a.16.16,0,0,0-.18,0C-18.66-2.43-18.89-2.45-19-2.3Z" transform="translate(24.5 8.5)"/><path class="cls-220" d="M-17.64-2.62c-.05,0,0-.09,0-.15s-.06-.24-.2-.23-.17-.06-.26-.08a.08.08,0,0,1-.05-.14c.07-.09.07-.26.24-.23a.33.33,0,0,0,.24,0c.05,0,.15-.08.12.08s.07,0,.11,0,.12,0,.12.1.17.31.39.28a.5.5,0,0,1,.4.12.21.21,0,0,0,.3,0c.14-.11.33,0,.5.15-.15,0-.3-.12-.45,0s-.08,0-.12,0-.27-.14-.31.09c0,.06-.07,0-.1,0l-.3-.11c-.21-.07-.29,0-.31.19C-17.45-2.54-17.53-2.65-17.64-2.62Z" transform="translate(24.5 8.5)"/><path class="cls-221" d="M-14.71,1.48c-.11.06-.06-.05-.08-.08l0-.08C-14.68,1.36-14.72,1.43-14.71,1.48Z" transform="translate(24.5 8.5)"/><path class="cls-222" d="M-15.79.23l-.05,0c-.15-.14-.14-.26.06-.35a.49.49,0,0,0,.3-.31.36.36,0,0,1,.34-.22c.24,0,.33.13.27.44a.6.6,0,0,1-.28.48h-.12A.92.92,0,0,1-15.79.23Z" transform="translate(24.5 8.5)"/><path class="cls-192" d="M-14.87-.25c0-.26-.07-.37-.24-.38s-.33.14-.34.39c0,.08,0,.11-.11.09s-.21.06-.3.12,0,.15,0,.22c-.22-.09-.27-.32-.4-.5s0-.06.07-.07a.17.17,0,0,0,.1-.14c0-.09.05-.12.14-.13.32,0,.33-.07.34-.4l.19,0c0,.24,0,.24.37.24C-14.87-.68-14.72-.5-14.87-.25Z" transform="translate(24.5 8.5)"/><path class="cls-223" d="M-16.76,2.8l-.52,0c-.09-.07-.11-.18-.16-.27s.07-.11.13-.15.13-.06.15,0,.05.18.16.17a.18.18,0,0,0,.17-.17c0-.12.14-.11.23-.11s.24,0,.25.12-.1.21-.22.24S-16.72,2.72-16.76,2.8Z" transform="translate(24.5 8.5)"/><path class="cls-224" d="M-17.44,2.36c-.16,0-.32,0-.33.21-.13,0-.15-.15-.19-.24s0-.11.09-.12a.81.81,0,0,1,.41,0,2.36,2.36,0,0,0,.46,0,.82.82,0,0,1,.53-.12c.06,0,.11.07.09.14s-.09,0-.14,0-.13,0-.2,0A2.21,2.21,0,0,0-17.44,2.36Z" transform="translate(24.5 8.5)"/><path class="cls-225" d="M-16.72,2.28c.07-.06.15,0,.22,0s.06-.07,0-.12A.28.28,0,0,1-16.1,2,.11.11,0,0,0-16,2h.08c0,.06.2,0,.12.15s-.17.28-.35.2A1.43,1.43,0,0,0-16.72,2.28Z" transform="translate(24.5 8.5)"/><path class="cls-215" d="M-18.32,2.18a.05.05,0,0,1,.06.06.05.05,0,0,1-.06.06s-.06,0-.05,0A.06.06,0,0,1-18.32,2.18Z" transform="translate(24.5 8.5)"/><path class="cls-226" d="M-16,2a1.18,1.18,0,0,0-.49.12A1.32,1.32,0,0,1-17,2.2a1.81,1.81,0,0,1-.52-.2c.15-.16.32-.29.55-.12,0,0,.09,0,.14,0a.32.32,0,0,1,.23-.09A3.51,3.51,0,0,0-16,2Z" transform="translate(24.5 8.5)"/></g></svg>